G04 #@! TF.FileFunction,Soldermask,Bot*
%FSLAX46Y46*%
G04 Gerber Fmt 4.6, Leading zero omitted, Abs format (unit mm)*
G04 Created by KiCad (PCBNEW 4.0.0-rc2-stable) date 5/23/2016 2:13:21 PM*
%MOMM*%
G01*
G04 APERTURE LIST*
%ADD10C,0.100000*%
%ADD11C,2.076400*%
%ADD12C,1.263600*%
%ADD13C,2.178000*%
%ADD14R,2.279600X2.279600*%
%ADD15C,2.279600*%
%ADD16R,1.908000X1.908000*%
%ADD17C,1.908000*%
%ADD18R,5.480000X5.480000*%
%ADD19C,8.020000*%
%ADD20C,1.204800*%
G04 APERTURE END LIST*
D10*
D11*
X152761100Y-106373600D03*
X152761100Y-103833600D03*
D12*
X155871100Y-120605600D03*
X143121100Y-120605600D03*
X129901100Y-120605600D03*
D13*
X168901100Y-122463600D03*
X166301100Y-122463600D03*
D14*
X170584100Y-106843600D03*
D15*
X170838100Y-104303600D03*
X170584100Y-101763600D03*
X170838100Y-99223600D03*
X170584100Y-96683600D03*
X170838100Y-94143600D03*
X170584100Y-91603600D03*
X170838100Y-89063600D03*
D16*
X125501100Y-84783600D03*
D11*
X125501100Y-82243600D03*
D17*
X128041100Y-84783600D03*
X128041100Y-82243600D03*
X130581100Y-84783600D03*
D11*
X130581100Y-82243600D03*
D17*
X133121100Y-84783600D03*
X133121100Y-82243600D03*
X135661100Y-84783600D03*
X135661100Y-82243600D03*
X138201100Y-84783600D03*
X138201100Y-82243600D03*
X140741100Y-84783600D03*
X140741100Y-82243600D03*
X143281100Y-84783600D03*
X143281100Y-82243600D03*
X145821100Y-84783600D03*
X145821100Y-82243600D03*
X148361100Y-84783600D03*
X148361100Y-82243600D03*
X150901100Y-84783600D03*
X150901100Y-82243600D03*
X153441100Y-84783600D03*
X153441100Y-82243600D03*
X155981100Y-84783600D03*
X155981100Y-82243600D03*
D18*
X160271100Y-114138600D03*
X160271100Y-90008600D03*
D19*
X160271100Y-102073600D03*
D20*
X138561100Y-92653600D03*
X140421100Y-90933600D03*
X156021100Y-99733600D03*
X160831100Y-106653600D03*
X147401100Y-92713600D03*
X147601100Y-94633600D03*
X145811100Y-95123600D03*
X146051100Y-90933600D03*
X139231100Y-97573600D03*
X144711100Y-108193600D03*
X155221100Y-112633600D03*
X155031100Y-107933600D03*
X134561100Y-88833600D03*
X142171100Y-96173600D03*
X146941100Y-108563600D03*
X136711100Y-98283600D03*
X134791100Y-96223600D03*
X147571100Y-88263600D03*
X153111100Y-88573600D03*
X157231100Y-87183600D03*
X163381100Y-87733600D03*
X142551100Y-109643600D03*
X153831100Y-115303600D03*
X169521100Y-112713600D03*
X157021100Y-115003600D03*
X141101100Y-92073600D03*
X138121100Y-94093600D03*
X150571100Y-97993600D03*
X163791100Y-112953600D03*
X166461100Y-108963600D03*
X171851100Y-112643600D03*
X160261100Y-93453600D03*
X156081100Y-95503600D03*
X131421100Y-93993600D03*
X148131100Y-108873600D03*
X143031100Y-115853600D03*
X145541100Y-116213600D03*
X149611100Y-86203600D03*
X163071100Y-86133600D03*
X170271100Y-86883600D03*
X170361100Y-82583600D03*
X137571100Y-105393600D03*
X139301100Y-104463600D03*
X133381100Y-109423600D03*
X133201100Y-111253600D03*
X133881100Y-107533600D03*
X135901100Y-116933600D03*
X135981100Y-114553600D03*
X136321100Y-110253600D03*
X138411100Y-109583600D03*
X153851100Y-90913600D03*
X144061100Y-86473600D03*
X153331100Y-92613600D03*
X143401100Y-95103600D03*
X146221100Y-98873600D03*
X150271100Y-108633600D03*
X138481100Y-88153600D03*
X130601100Y-89073600D03*
X155591100Y-94243600D03*
X139811100Y-96303600D03*
X139841100Y-94213600D03*
X124981100Y-92533600D03*
X164151100Y-120023600D03*
X167221100Y-87343600D03*
X167331100Y-90083600D03*
X172021100Y-83953600D03*
X169031100Y-87463600D03*
X168951100Y-90573600D03*
X144591100Y-95503600D03*
X147871100Y-97663600D03*
X153021100Y-108703600D03*
M02*
