G04 #@! TF.FileFunction,Copper,L2,Bot,Signal*
%FSLAX46Y46*%
G04 Gerber Fmt 4.6, Leading zero omitted, Abs format (unit mm)*
G04 Created by KiCad (PCBNEW 4.0.0-rc2-stable) date 5/23/2016 2:13:21 PM*
%MOMM*%
G01*
G04 APERTURE LIST*
%ADD10C,0.100000*%
%ADD11C,1.676400*%
%ADD12C,0.863600*%
%ADD13C,1.778000*%
%ADD14R,1.879600X1.879600*%
%ADD15C,1.879600*%
%ADD16R,1.508000X1.508000*%
%ADD17C,1.508000*%
%ADD18R,5.080000X5.080000*%
%ADD19C,7.620000*%
%ADD20C,0.804800*%
%ADD21C,0.254000*%
G04 APERTURE END LIST*
D10*
D11*
X152761100Y-106373600D03*
X152761100Y-103833600D03*
D12*
X155871100Y-120605600D03*
X143121100Y-120605600D03*
X129901100Y-120605600D03*
D13*
X168901100Y-122463600D03*
X166301100Y-122463600D03*
D14*
X170584100Y-106843600D03*
D15*
X170838100Y-104303600D03*
X170584100Y-101763600D03*
X170838100Y-99223600D03*
X170584100Y-96683600D03*
X170838100Y-94143600D03*
X170584100Y-91603600D03*
X170838100Y-89063600D03*
D16*
X125501100Y-84783600D03*
D11*
X125501100Y-82243600D03*
D17*
X128041100Y-84783600D03*
X128041100Y-82243600D03*
X130581100Y-84783600D03*
D11*
X130581100Y-82243600D03*
D17*
X133121100Y-84783600D03*
X133121100Y-82243600D03*
X135661100Y-84783600D03*
X135661100Y-82243600D03*
X138201100Y-84783600D03*
X138201100Y-82243600D03*
X140741100Y-84783600D03*
X140741100Y-82243600D03*
X143281100Y-84783600D03*
X143281100Y-82243600D03*
X145821100Y-84783600D03*
X145821100Y-82243600D03*
X148361100Y-84783600D03*
X148361100Y-82243600D03*
X150901100Y-84783600D03*
X150901100Y-82243600D03*
X153441100Y-84783600D03*
X153441100Y-82243600D03*
X155981100Y-84783600D03*
X155981100Y-82243600D03*
D18*
X160271100Y-114138600D03*
X160271100Y-90008600D03*
D19*
X160271100Y-102073600D03*
D20*
X138561100Y-92653600D03*
X140421100Y-90933600D03*
X156021100Y-99733600D03*
X160831100Y-106653600D03*
X147401100Y-92713600D03*
X147601100Y-94633600D03*
X145811100Y-95123600D03*
X146051100Y-90933600D03*
X139231100Y-97573600D03*
X144711100Y-108193600D03*
X155221100Y-112633600D03*
X155031100Y-107933600D03*
X134561100Y-88833600D03*
X142171100Y-96173600D03*
X146941100Y-108563600D03*
X136711100Y-98283600D03*
X134791100Y-96223600D03*
X147571100Y-88263600D03*
X153111100Y-88573600D03*
X157231100Y-87183600D03*
X163381100Y-87733600D03*
X142551100Y-109643600D03*
X153831100Y-115303600D03*
X169521100Y-112713600D03*
X157021100Y-115003600D03*
X141101100Y-92073600D03*
X138121100Y-94093600D03*
X150571100Y-97993600D03*
X163791100Y-112953600D03*
X166461100Y-108963600D03*
X171851100Y-112643600D03*
X160261100Y-93453600D03*
X156081100Y-95503600D03*
X131421100Y-93993600D03*
X148131100Y-108873600D03*
X143031100Y-115853600D03*
X145541100Y-116213600D03*
X149611100Y-86203600D03*
X163071100Y-86133600D03*
X170271100Y-86883600D03*
X170361100Y-82583600D03*
X137571100Y-105393600D03*
X139301100Y-104463600D03*
X133381100Y-109423600D03*
X133201100Y-111253600D03*
X133881100Y-107533600D03*
X135901100Y-116933600D03*
X135981100Y-114553600D03*
X136321100Y-110253600D03*
X138411100Y-109583600D03*
X153851100Y-90913600D03*
X144061100Y-86473600D03*
X153331100Y-92613600D03*
X143401100Y-95103600D03*
X146221100Y-98873600D03*
X150271100Y-108633600D03*
X138481100Y-88153600D03*
X130601100Y-89073600D03*
X155591100Y-94243600D03*
X139811100Y-96303600D03*
X139841100Y-94213600D03*
X124981100Y-92533600D03*
X164151100Y-120023600D03*
X167221100Y-87343600D03*
X167331100Y-90083600D03*
X172021100Y-83953600D03*
X169031100Y-87463600D03*
X168951100Y-90573600D03*
X144591100Y-95503600D03*
X147871100Y-97663600D03*
X153021100Y-108703600D03*
D21*
X138561100Y-92653600D02*
X140281100Y-90933600D01*
X140281100Y-90933600D02*
X140421100Y-90933600D01*
X160271100Y-102073600D02*
X159711100Y-101513600D01*
X159711100Y-101513600D02*
X157931100Y-99733600D01*
X157931100Y-99733600D02*
X156021100Y-99733600D01*
X160831100Y-106653600D02*
X160831100Y-102633600D01*
X160831100Y-102633600D02*
X160271100Y-102073600D01*
X147401100Y-92713600D02*
X147401100Y-94433600D01*
X147401100Y-94433600D02*
X147601100Y-94633600D01*
X170838100Y-89063600D02*
X166471100Y-89063600D01*
X166471100Y-89063600D02*
X160011100Y-95523600D01*
X160011100Y-95523600D02*
X160011100Y-101213600D01*
X160011100Y-101213600D02*
X159711100Y-101513600D01*
X160831100Y-106653600D02*
X160831100Y-109743600D01*
X160831100Y-109743600D02*
X161241100Y-110153600D01*
X161241100Y-110153600D02*
X169571100Y-110153600D01*
X169571100Y-110153600D02*
X171031100Y-111613600D01*
X171031100Y-111613600D02*
X171031100Y-113333600D01*
X171031100Y-113333600D02*
X166301100Y-118063600D01*
X166301100Y-118063600D02*
X166301100Y-122463600D01*
X145811100Y-95123600D02*
X145811100Y-91173600D01*
X145811100Y-91173600D02*
X146051100Y-90933600D01*
X139231100Y-97573600D02*
X139231100Y-102713600D01*
X155221100Y-112633600D02*
X149041100Y-112633600D01*
X149041100Y-112633600D02*
X144711100Y-108303600D01*
X155031100Y-107933600D02*
X155031100Y-112443600D01*
X155031100Y-112443600D02*
X155221100Y-112633600D01*
X144711100Y-108303600D02*
X144711100Y-108193600D01*
X139231100Y-102713600D02*
X144711100Y-108193600D01*
X134561100Y-88833600D02*
X134561100Y-92903600D01*
X141971100Y-95973600D02*
X142171100Y-96173600D01*
X146941100Y-108563600D02*
X146941100Y-106943600D01*
X146941100Y-106943600D02*
X142121100Y-102123600D01*
X142121100Y-102123600D02*
X142121100Y-96223600D01*
X142121100Y-96223600D02*
X142171100Y-96173600D01*
X134561100Y-92903600D02*
X136961100Y-95303600D01*
X136961100Y-95303600D02*
X141301100Y-95303600D01*
X141301100Y-95303600D02*
X142171100Y-96173600D01*
X136711100Y-98283600D02*
X136711100Y-98143600D01*
X136711100Y-98143600D02*
X134791100Y-96223600D01*
X147571100Y-88263600D02*
X152801100Y-88263600D01*
X152801100Y-88263600D02*
X153111100Y-88573600D01*
X157461100Y-86953600D02*
X162601100Y-86953600D01*
X162601100Y-86953600D02*
X163381100Y-87733600D01*
X170584100Y-91603600D02*
X170584100Y-93889600D01*
X170584100Y-93889600D02*
X170838100Y-94143600D01*
X141101100Y-92073600D02*
X140561100Y-92073600D01*
X150571100Y-97463600D02*
X156571100Y-91463600D01*
X156571100Y-91463600D02*
X156571100Y-87843600D01*
X156571100Y-87843600D02*
X157231100Y-87183600D01*
X163791100Y-112953600D02*
X164041100Y-112703600D01*
X164231100Y-112513600D02*
X163791100Y-112953600D01*
X166461100Y-108963600D02*
X169931100Y-108963600D01*
X164231100Y-112513600D02*
X169321100Y-112513600D01*
X169321100Y-112513600D02*
X169521100Y-112713600D01*
X169931100Y-108963600D02*
X171851100Y-110883600D01*
X171851100Y-110883600D02*
X171851100Y-112643600D01*
X157021100Y-115003600D02*
X154131100Y-115003600D01*
X154131100Y-115003600D02*
X153831100Y-115303600D01*
X152931100Y-114403600D02*
X153831100Y-115303600D01*
X152931100Y-114403600D02*
X147311100Y-114403600D01*
X147311100Y-114403600D02*
X142551100Y-109643600D01*
X150571100Y-97463600D02*
X150571100Y-97993600D01*
X140561100Y-92073600D02*
X138681100Y-93953600D01*
X138681100Y-93953600D02*
X138261100Y-93953600D01*
X138261100Y-93953600D02*
X138121100Y-94093600D01*
X157461100Y-86953600D02*
X157231100Y-87183600D01*
X160261100Y-93453600D02*
X160261100Y-90018600D01*
X160261100Y-90018600D02*
X160271100Y-90008600D01*
X160271100Y-114138600D02*
X157266100Y-114138600D01*
X157266100Y-114138600D02*
X156391100Y-113263600D01*
X156391100Y-113263600D02*
X156391100Y-107033600D01*
X155371100Y-101593600D02*
X153831100Y-100053600D01*
X153831100Y-100053600D02*
X153831100Y-97753600D01*
X153831100Y-97753600D02*
X156081100Y-95503600D01*
X155371100Y-101593600D02*
X155371100Y-106013600D01*
X155371100Y-106013600D02*
X156391100Y-107033600D01*
X131421100Y-93993600D02*
X128011100Y-93993600D01*
X125501100Y-82243600D02*
X125661100Y-82243600D01*
X125661100Y-82243600D02*
X126931100Y-83513600D01*
X126931100Y-83513600D02*
X126931100Y-86573600D01*
X126931100Y-86573600D02*
X125551100Y-87953600D01*
X125551100Y-87953600D02*
X125551100Y-91533600D01*
X125551100Y-91533600D02*
X128011100Y-93993600D01*
X148131100Y-108873600D02*
X148131100Y-104933600D01*
X148131100Y-104933600D02*
X145021100Y-101823600D01*
X145021100Y-101823600D02*
X145021100Y-97393600D01*
X145021100Y-97393600D02*
X146091100Y-96323600D01*
X146091100Y-96323600D02*
X148101100Y-96323600D01*
X148101100Y-96323600D02*
X149201100Y-95223600D01*
X149201100Y-95223600D02*
X149201100Y-90913600D01*
X145901100Y-89943600D02*
X140741100Y-84783600D01*
X145901100Y-89943600D02*
X148181100Y-89943600D01*
X148181100Y-89943600D02*
X149151100Y-90913600D01*
X149151100Y-90913600D02*
X149201100Y-90913600D01*
X143031100Y-115853600D02*
X139421100Y-115853600D01*
X139421100Y-115853600D02*
X134921100Y-120353600D01*
X134921100Y-120353600D02*
X130153100Y-120353600D01*
X130153100Y-120353600D02*
X129901100Y-120605600D01*
X145541100Y-116213600D02*
X145541100Y-118185600D01*
X145541100Y-118185600D02*
X143121100Y-120605600D01*
X149611100Y-86203600D02*
X163001100Y-86203600D01*
X163001100Y-86203600D02*
X163071100Y-86133600D01*
X170271100Y-86883600D02*
X171401100Y-86883600D01*
X171401100Y-86883600D02*
X172821100Y-88303600D01*
X172821100Y-88303600D02*
X172821100Y-97240600D01*
X172821100Y-97240600D02*
X170838100Y-99223600D01*
X153441100Y-84783600D02*
X153081100Y-84783600D01*
X153081100Y-84783600D02*
X152061100Y-83763600D01*
X152061100Y-83763600D02*
X152061100Y-81623600D01*
X152061100Y-81623600D02*
X153021100Y-80663600D01*
X153021100Y-80663600D02*
X168441100Y-80663600D01*
X168441100Y-80663600D02*
X170361100Y-82583600D01*
X133121100Y-82243600D02*
X133121100Y-82073600D01*
X133121100Y-82073600D02*
X131711100Y-80663600D01*
X131711100Y-80663600D02*
X130211100Y-80663600D01*
X130211100Y-80663600D02*
X129181100Y-81693600D01*
X129181100Y-81693600D02*
X129181100Y-86923600D01*
X129181100Y-86923600D02*
X127481100Y-88623600D01*
X127481100Y-88623600D02*
X127481100Y-91033600D01*
X127481100Y-91033600D02*
X129081100Y-92633600D01*
X129081100Y-92633600D02*
X131841100Y-92633600D01*
X131841100Y-92633600D02*
X132771100Y-93563600D01*
X132771100Y-93563600D02*
X132771100Y-100593600D01*
X132771100Y-100593600D02*
X137571100Y-105393600D01*
X135661100Y-82243600D02*
X135571100Y-82243600D01*
X135571100Y-82243600D02*
X134271100Y-83543600D01*
X134271100Y-83543600D02*
X132251100Y-83543600D01*
X132251100Y-83543600D02*
X131781100Y-84013600D01*
X131781100Y-84013600D02*
X131781100Y-85993600D01*
X131781100Y-85993600D02*
X129031100Y-88743600D01*
X129031100Y-88743600D02*
X129031100Y-89933600D01*
X129031100Y-89933600D02*
X130331100Y-91233600D01*
X130331100Y-91233600D02*
X132051100Y-91233600D01*
X132051100Y-91233600D02*
X133711100Y-92893600D01*
X133711100Y-92893600D02*
X133711100Y-98873600D01*
X133711100Y-98873600D02*
X139301100Y-104463600D01*
X133381100Y-109423600D02*
X133381100Y-111073600D01*
X133381100Y-111073600D02*
X133201100Y-111253600D01*
X135981100Y-114553600D02*
X135981100Y-116853600D01*
X135981100Y-116853600D02*
X135901100Y-116933600D01*
X133881100Y-107533600D02*
X134151100Y-107533600D01*
X134151100Y-107533600D02*
X135031100Y-108413600D01*
X135031100Y-108413600D02*
X135031100Y-112863600D01*
X135031100Y-112863600D02*
X135981100Y-114553600D01*
X136321100Y-110253600D02*
X137741100Y-110253600D01*
X137741100Y-110253600D02*
X138411100Y-109583600D01*
X138201100Y-82243600D02*
X138591100Y-82243600D01*
X138591100Y-82243600D02*
X139821100Y-83473600D01*
X139821100Y-83473600D02*
X143941100Y-83473600D01*
X143941100Y-83473600D02*
X144481100Y-84013600D01*
X144481100Y-84013600D02*
X144481100Y-85453600D01*
X144481100Y-85453600D02*
X146161100Y-87133600D01*
X146161100Y-87133600D02*
X153371100Y-87133600D01*
X153371100Y-87133600D02*
X154711100Y-88473600D01*
X154711100Y-88473600D02*
X154711100Y-90403600D01*
X154711100Y-90403600D02*
X154201100Y-90913600D01*
X154201100Y-90913600D02*
X153851100Y-90913600D01*
X144061100Y-86473600D02*
X144061100Y-86703600D01*
X144061100Y-86703600D02*
X146501100Y-89143600D01*
X146501100Y-89143600D02*
X148991100Y-89143600D01*
X148991100Y-89143600D02*
X152461100Y-92613600D01*
X152461100Y-92613600D02*
X153331100Y-92613600D01*
X143401100Y-91293600D02*
X139241100Y-87133600D01*
X139241100Y-87133600D02*
X135471100Y-87133600D01*
X135471100Y-87133600D02*
X133121100Y-84783600D01*
X143401100Y-91293600D02*
X143401100Y-95103600D01*
X146231100Y-98883600D02*
X146221100Y-98873600D01*
X149241100Y-107603600D02*
X149241100Y-101893600D01*
X149241100Y-101893600D02*
X146221100Y-98873600D01*
X149241100Y-107603600D02*
X150271100Y-108633600D01*
X135401100Y-88153600D02*
X138481100Y-88153600D01*
X155591100Y-94243600D02*
X155281100Y-94243600D01*
X155281100Y-94243600D02*
X151751100Y-97773600D01*
X151031100Y-101993600D02*
X151031100Y-106773600D01*
X151031100Y-106773600D02*
X152091100Y-107833600D01*
X152091100Y-107833600D02*
X153541100Y-107833600D01*
X153541100Y-107833600D02*
X154271100Y-108563600D01*
X154271100Y-108563600D02*
X154271100Y-110653600D01*
X154271100Y-110653600D02*
X153121100Y-111803600D01*
X153121100Y-111803600D02*
X149031100Y-111803600D01*
X149031100Y-111803600D02*
X146091100Y-108863600D01*
X142381100Y-92653600D02*
X142381100Y-91213600D01*
X142381100Y-91213600D02*
X139321100Y-88153600D01*
X139321100Y-88153600D02*
X138481100Y-88153600D01*
X140041100Y-101093600D02*
X140041100Y-100493600D01*
X140041100Y-100493600D02*
X140041100Y-96533600D01*
X140041100Y-96533600D02*
X139811100Y-96303600D01*
X146091100Y-108863600D02*
X146091100Y-107763600D01*
X146091100Y-107763600D02*
X140071100Y-101743600D01*
X140071100Y-101743600D02*
X140071100Y-100523600D01*
X140071100Y-100523600D02*
X140041100Y-100493600D01*
X135401100Y-88153600D02*
X134641100Y-87393600D01*
X134641100Y-87393600D02*
X132281100Y-87393600D01*
X132281100Y-87393600D02*
X130601100Y-89073600D01*
X151751100Y-97773600D02*
X151751100Y-101273600D01*
X151751100Y-101273600D02*
X151031100Y-101993600D01*
X142381100Y-92653600D02*
X140811100Y-94223600D01*
X140811100Y-94223600D02*
X139851100Y-94223600D01*
X139851100Y-94223600D02*
X139841100Y-94213600D01*
X137101100Y-107473600D02*
X139411100Y-107473600D01*
X139411100Y-107473600D02*
X141301100Y-109363600D01*
X141301100Y-109363600D02*
X141301100Y-112173600D01*
X141301100Y-112173600D02*
X144351100Y-115223600D01*
X144351100Y-115223600D02*
X151741100Y-115223600D01*
X151741100Y-115223600D02*
X153251100Y-116733600D01*
X153251100Y-116733600D02*
X157241100Y-116733600D01*
X157241100Y-116733600D02*
X157861100Y-117353600D01*
X157861100Y-117353600D02*
X161481100Y-117353600D01*
X161481100Y-117353600D02*
X164151100Y-120023600D01*
X137101100Y-107473600D02*
X124981100Y-95353600D01*
X124981100Y-95353600D02*
X124981100Y-92533600D01*
X153441100Y-82243600D02*
X153781100Y-82243600D01*
X153781100Y-82243600D02*
X155161100Y-83623600D01*
X155161100Y-83623600D02*
X164301100Y-83623600D01*
X167331100Y-101503600D02*
X170241100Y-104413600D01*
X170241100Y-104413600D02*
X170728100Y-104413600D01*
X170728100Y-104413600D02*
X170838100Y-104303600D01*
X164301100Y-83623600D02*
X167221100Y-86543600D01*
X167221100Y-86543600D02*
X167221100Y-87343600D01*
X167331100Y-101503600D02*
X167331100Y-90083600D01*
X172021100Y-83953600D02*
X171151100Y-84823600D01*
X171151100Y-84823600D02*
X169471100Y-84823600D01*
X169471100Y-84823600D02*
X169031100Y-85263600D01*
X169031100Y-85263600D02*
X169031100Y-87463600D01*
X168951100Y-90573600D02*
X168951100Y-101763600D01*
X168951100Y-101763600D02*
X170584100Y-101763600D01*
X139821100Y-86443600D02*
X144681100Y-91303600D01*
X144681100Y-91303600D02*
X144681100Y-95413600D01*
X144681100Y-95413600D02*
X144591100Y-95503600D01*
X150291100Y-106993600D02*
X152001100Y-108703600D01*
X152001100Y-108703600D02*
X153021100Y-108703600D01*
X139821100Y-86443600D02*
X138201100Y-84783600D01*
X147891100Y-97643600D02*
X147871100Y-97663600D01*
X147881100Y-97673600D02*
X147871100Y-97663600D01*
X150291100Y-106993600D02*
X150291100Y-100083600D01*
X150291100Y-100083600D02*
X147871100Y-97663600D01*
M02*
