G04 #@! TF.FileFunction,Paste,Top*
%FSLAX46Y46*%
G04 Gerber Fmt 4.6, Leading zero omitted, Abs format (unit mm)*
G04 Created by KiCad (PCBNEW 4.0.0-rc2-stable) date 5/23/2016 2:13:21 PM*
%MOMM*%
G01*
G04 APERTURE LIST*
%ADD10C,0.100000*%
%ADD11R,0.965200X0.304800*%
%ADD12R,0.304800X0.965200*%
%ADD13R,1.000000X1.100000*%
%ADD14R,1.100000X1.000000*%
%ADD15R,0.508000X1.092200*%
%ADD16R,1.981200X0.558800*%
%ADD17R,1.498600X2.006600*%
%ADD18R,3.810000X2.006600*%
%ADD19R,1.500000X1.300000*%
%ADD20R,1.300000X1.500000*%
%ADD21R,0.280000X0.690000*%
%ADD22R,1.700000X1.500000*%
%ADD23R,1.200000X0.550000*%
%ADD24R,2.032000X0.660400*%
%ADD25R,2.500000X2.000000*%
%ADD26R,2.300000X0.500000*%
%ADD27R,0.355600X1.981200*%
%ADD28R,1.100000X0.350000*%
%ADD29R,1.100000X0.600000*%
%ADD30R,1.320800X0.558800*%
G04 APERTURE END LIST*
D10*
D11*
X148660300Y-90153000D03*
X148660300Y-90635600D03*
X148660300Y-91143600D03*
X148660300Y-91651600D03*
X148660300Y-92134200D03*
D12*
X149473100Y-92464400D03*
X149981100Y-92464400D03*
X150489100Y-92464400D03*
D11*
X151301900Y-92134200D03*
X151301900Y-91651600D03*
X151301900Y-91143600D03*
X151301900Y-90635600D03*
X151301900Y-90153000D03*
D12*
X150489100Y-89822800D03*
X149981100Y-89822800D03*
X149473100Y-89822800D03*
D13*
X155271100Y-89233600D03*
X155271100Y-87533600D03*
D14*
X151341100Y-95713600D03*
X149641100Y-95713600D03*
X142501100Y-91173600D03*
X144201100Y-91173600D03*
X142501100Y-88933600D03*
X144201100Y-88933600D03*
D13*
X153711100Y-95693600D03*
X153711100Y-93993600D03*
D15*
X140891500Y-100158200D03*
X142136100Y-100158200D03*
X143406100Y-100158200D03*
X144650700Y-100158200D03*
X144650700Y-97669000D03*
X143406100Y-97669000D03*
X142136100Y-97669000D03*
X140891500Y-97669000D03*
D14*
X135431100Y-100003600D03*
X137131100Y-100003600D03*
D13*
X147471100Y-101953600D03*
X147471100Y-100253600D03*
D14*
X141621100Y-103193600D03*
X143321100Y-103193600D03*
D16*
X158607300Y-102838600D03*
X158607300Y-104108600D03*
X158607300Y-105378600D03*
X158607300Y-106648600D03*
X163534900Y-106648600D03*
X163534900Y-105378600D03*
X163534900Y-104108600D03*
X163534900Y-102838600D03*
D14*
X166071100Y-104413600D03*
X166071100Y-102713600D03*
D13*
X156011100Y-101153600D03*
X156011100Y-102853600D03*
X156011100Y-106303600D03*
X156011100Y-104603600D03*
D14*
X153711100Y-98253600D03*
X155411100Y-98253600D03*
D17*
X124970500Y-95073200D03*
X127256500Y-95073200D03*
X129542500Y-95073200D03*
D18*
X127231100Y-88774000D03*
D19*
X130281100Y-97913600D03*
X130281100Y-99813600D03*
D20*
X127071100Y-98523600D03*
X125171100Y-98523600D03*
D14*
X136501100Y-93853600D03*
X134801100Y-93853600D03*
X132111100Y-90203600D03*
X132111100Y-91903600D03*
D21*
X145301100Y-111491600D03*
X145801100Y-111493600D03*
X146301100Y-111493600D03*
X146801100Y-111493600D03*
X145339100Y-113993600D03*
X145833100Y-113993600D03*
X146301100Y-113993600D03*
X146801100Y-113993600D03*
D22*
X146051100Y-112743600D03*
D13*
X143081100Y-113653600D03*
X143081100Y-111953600D03*
X136701100Y-104233600D03*
X136701100Y-102533600D03*
D14*
X149391100Y-113013600D03*
X149391100Y-114713600D03*
D23*
X162991000Y-109403600D03*
X162991000Y-110353600D03*
X162991000Y-111303600D03*
X165591200Y-111303600D03*
X165591200Y-109403600D03*
D13*
X161251100Y-114803600D03*
X159551100Y-114803600D03*
D14*
X163831100Y-116223600D03*
X163831100Y-114523600D03*
X168661100Y-114473600D03*
X168661100Y-116173600D03*
X170771100Y-109413600D03*
X170771100Y-111113600D03*
D13*
X168191100Y-111013600D03*
X168191100Y-109313600D03*
D14*
X170871100Y-118373600D03*
X169171100Y-118373600D03*
D13*
X166291100Y-114513600D03*
X166291100Y-116213600D03*
D24*
X159067700Y-82248600D03*
X165214500Y-82248600D03*
X159067700Y-83518600D03*
X159067700Y-84788600D03*
X165214500Y-83518600D03*
X165214500Y-84788600D03*
X159067700Y-86058600D03*
X165214500Y-86058600D03*
D13*
X163861100Y-89673600D03*
X165561100Y-89673600D03*
D14*
X167851100Y-83913600D03*
X167851100Y-82213600D03*
D13*
X137891100Y-115963600D03*
X137891100Y-114263600D03*
D14*
X129041100Y-103903600D03*
X130741100Y-103903600D03*
D13*
X140171100Y-115963600D03*
X140171100Y-114263600D03*
D14*
X132921100Y-103923600D03*
X134621100Y-103923600D03*
D13*
X134371100Y-114463600D03*
X134371100Y-116163600D03*
D25*
X131141100Y-115703600D03*
X131141100Y-106803600D03*
X125641100Y-115703600D03*
X125641100Y-106803600D03*
D26*
X131241100Y-111253600D03*
X131241100Y-112053600D03*
X131241100Y-110453600D03*
X131241100Y-109653600D03*
X131241100Y-112853600D03*
D27*
X139266300Y-107249800D03*
X138605900Y-107249800D03*
X137996300Y-107249800D03*
X137335900Y-107249800D03*
X136726300Y-107249800D03*
X136065900Y-107249800D03*
X135456300Y-107249800D03*
X134795900Y-107249800D03*
X134795900Y-112177400D03*
X135456300Y-112177400D03*
X136065900Y-112177400D03*
X136726300Y-112177400D03*
X137335900Y-112177400D03*
X137996300Y-112177400D03*
X138605900Y-112177400D03*
X139266300Y-112177400D03*
D28*
X136731100Y-89943600D03*
D29*
X136731100Y-90863600D03*
D28*
X136731100Y-91743600D03*
X134531100Y-89943600D03*
D29*
X134521100Y-90863600D03*
D28*
X134521100Y-91743600D03*
D13*
X151981100Y-113023600D03*
X153181100Y-113023600D03*
X153181100Y-110223600D03*
X151981100Y-110223600D03*
D14*
X170891100Y-116143600D03*
X170891100Y-114443600D03*
D30*
X159542700Y-112653400D03*
X159542700Y-111713600D03*
X159542700Y-110773800D03*
X156799500Y-110773800D03*
X156799500Y-112653400D03*
M02*
