G04 #@! TF.FileFunction,Drawing*
%FSLAX46Y46*%
G04 Gerber Fmt 4.6, Leading zero omitted, Abs format (unit mm)*
G04 Created by KiCad (PCBNEW 4.0.0-rc2-stable) date 5/23/2016 2:13:21 PM*
%MOMM*%
G01*
G04 APERTURE LIST*
%ADD10C,0.100000*%
%ADD11C,0.152400*%
%ADD12C,0.101600*%
%ADD13C,0.406400*%
%ADD14C,0.127000*%
%ADD15C,0.203200*%
%ADD16C,0.076200*%
G04 APERTURE END LIST*
D10*
D11*
X148482500Y-90915000D02*
X149752500Y-89645000D01*
X150641500Y-89645000D02*
X150336700Y-89645000D01*
X150133500Y-89645000D02*
X149828700Y-89645000D01*
X149625500Y-89645000D02*
X149320700Y-89645000D01*
X148482500Y-90000600D02*
X148482500Y-90305400D01*
X148482500Y-90483200D02*
X148482500Y-90788000D01*
X148482500Y-90991200D02*
X148482500Y-91296000D01*
X148482500Y-91499200D02*
X148482500Y-91804000D01*
X148482500Y-91981800D02*
X148482500Y-92286600D01*
X149320700Y-92642200D02*
X149625500Y-92642200D01*
X149828700Y-92642200D02*
X150133500Y-92642200D01*
X150336700Y-92642200D02*
X150641500Y-92642200D01*
X151479700Y-92286600D02*
X151479700Y-91981800D01*
X151479700Y-91804000D02*
X151479700Y-91499200D01*
X151479700Y-91296000D02*
X151479700Y-90991200D01*
X151479700Y-90788000D02*
X151479700Y-90483200D01*
X151479700Y-90305400D02*
X151479700Y-90000600D01*
X148482500Y-92642200D02*
X151479700Y-92642200D01*
X151479700Y-92642200D02*
X151479700Y-89645000D01*
X151479700Y-89645000D02*
X148482500Y-89645000D01*
X148482500Y-89645000D02*
X148482500Y-92642200D01*
D12*
X154839100Y-88739600D02*
X154839100Y-88027600D01*
X155690100Y-88739600D02*
X155690100Y-88027600D01*
D10*
G36*
X155741000Y-89221800D02*
X155741000Y-88721700D01*
X154791000Y-88721700D01*
X154791000Y-89221800D01*
X155741000Y-89221800D01*
G37*
G36*
X155741000Y-88053400D02*
X155741000Y-87553300D01*
X154791000Y-87553300D01*
X154791000Y-88053400D01*
X155741000Y-88053400D01*
G37*
D12*
X150847100Y-96145600D02*
X150135100Y-96145600D01*
X150847100Y-95294600D02*
X150135100Y-95294600D01*
D10*
G36*
X151329300Y-95243700D02*
X150829200Y-95243700D01*
X150829200Y-96193700D01*
X151329300Y-96193700D01*
X151329300Y-95243700D01*
G37*
G36*
X150160900Y-95243700D02*
X149660800Y-95243700D01*
X149660800Y-96193700D01*
X150160900Y-96193700D01*
X150160900Y-95243700D01*
G37*
D12*
X142995100Y-90741600D02*
X143707100Y-90741600D01*
X142995100Y-91592600D02*
X143707100Y-91592600D01*
D10*
G36*
X142512900Y-91643500D02*
X143013000Y-91643500D01*
X143013000Y-90693500D01*
X142512900Y-90693500D01*
X142512900Y-91643500D01*
G37*
G36*
X143681300Y-91643500D02*
X144181400Y-91643500D01*
X144181400Y-90693500D01*
X143681300Y-90693500D01*
X143681300Y-91643500D01*
G37*
D12*
X142995100Y-88501600D02*
X143707100Y-88501600D01*
X142995100Y-89352600D02*
X143707100Y-89352600D01*
D10*
G36*
X142512900Y-89403500D02*
X143013000Y-89403500D01*
X143013000Y-88453500D01*
X142512900Y-88453500D01*
X142512900Y-89403500D01*
G37*
G36*
X143681300Y-89403500D02*
X144181400Y-89403500D01*
X144181400Y-88453500D01*
X143681300Y-88453500D01*
X143681300Y-89403500D01*
G37*
D12*
X153279100Y-95199600D02*
X153279100Y-94487600D01*
X154130100Y-95199600D02*
X154130100Y-94487600D01*
D10*
G36*
X154181000Y-95681800D02*
X154181000Y-95181700D01*
X153231000Y-95181700D01*
X153231000Y-95681800D01*
X154181000Y-95681800D01*
G37*
G36*
X154181000Y-94513400D02*
X154181000Y-94013300D01*
X153231000Y-94013300D01*
X153231000Y-94513400D01*
X154181000Y-94513400D01*
G37*
D12*
X135925100Y-99571600D02*
X136637100Y-99571600D01*
X135925100Y-100422600D02*
X136637100Y-100422600D01*
D10*
G36*
X135442900Y-100473500D02*
X135943000Y-100473500D01*
X135943000Y-99523500D01*
X135442900Y-99523500D01*
X135442900Y-100473500D01*
G37*
G36*
X136611300Y-100473500D02*
X137111400Y-100473500D01*
X137111400Y-99523500D01*
X136611300Y-99523500D01*
X136611300Y-100473500D01*
G37*
D12*
X147039100Y-101459600D02*
X147039100Y-100747600D01*
X147890100Y-101459600D02*
X147890100Y-100747600D01*
D10*
G36*
X147941000Y-101941800D02*
X147941000Y-101441700D01*
X146991000Y-101441700D01*
X146991000Y-101941800D01*
X147941000Y-101941800D01*
G37*
G36*
X147941000Y-100773400D02*
X147941000Y-100273300D01*
X146991000Y-100273300D01*
X146991000Y-100773400D01*
X147941000Y-100773400D01*
G37*
D12*
X142115100Y-102761600D02*
X142827100Y-102761600D01*
X142115100Y-103612600D02*
X142827100Y-103612600D01*
D10*
G36*
X141632900Y-103663500D02*
X142133000Y-103663500D01*
X142133000Y-102713500D01*
X141632900Y-102713500D01*
X141632900Y-103663500D01*
G37*
G36*
X142801300Y-103663500D02*
X143301400Y-103663500D01*
X143301400Y-102713500D01*
X142801300Y-102713500D01*
X142801300Y-103663500D01*
G37*
D11*
X159064500Y-103092600D02*
X159064500Y-102584600D01*
X159064500Y-104362600D02*
X159064500Y-103854600D01*
X159064500Y-105632600D02*
X159064500Y-105124600D01*
X159064500Y-106902600D02*
X159064500Y-106394600D01*
X163077700Y-106394600D02*
X163077700Y-106902600D01*
X163077700Y-105124600D02*
X163077700Y-105632600D01*
X163077700Y-103854600D02*
X163077700Y-104362600D01*
X163077700Y-102584600D02*
X163077700Y-103092600D01*
X161375900Y-102254400D02*
X160766300Y-102254400D01*
D10*
X160766300Y-102254400D02*
G75*
G03X161375900Y-102254400I304800J0D01*
G01*
D11*
X166427100Y-103995600D02*
X166427100Y-103131600D01*
X165715100Y-103131600D02*
X165715100Y-103995600D01*
D10*
G36*
X166502900Y-103131800D02*
X166502900Y-102725400D01*
X165639300Y-102725400D01*
X165639300Y-103131800D01*
X166502900Y-103131800D01*
G37*
G36*
X166502900Y-104401800D02*
X166502900Y-103995400D01*
X165639300Y-103995400D01*
X165639300Y-104401800D01*
X166502900Y-104401800D01*
G37*
D13*
X152126100Y-104468600D02*
X152761100Y-103833600D01*
X152126100Y-105738600D02*
X152761100Y-106373600D01*
D12*
X156443100Y-101647600D02*
X156443100Y-102359600D01*
X155592100Y-101647600D02*
X155592100Y-102359600D01*
D10*
G36*
X155541200Y-101165400D02*
X155541200Y-101665500D01*
X156491200Y-101665500D01*
X156491200Y-101165400D01*
X155541200Y-101165400D01*
G37*
G36*
X155541200Y-102333800D02*
X155541200Y-102833900D01*
X156491200Y-102833900D01*
X156491200Y-102333800D01*
X155541200Y-102333800D01*
G37*
D12*
X155579100Y-105809600D02*
X155579100Y-105097600D01*
X156430100Y-105809600D02*
X156430100Y-105097600D01*
D10*
G36*
X156481000Y-106291800D02*
X156481000Y-105791700D01*
X155531000Y-105791700D01*
X155531000Y-106291800D01*
X156481000Y-106291800D01*
G37*
G36*
X156481000Y-105123400D02*
X156481000Y-104623300D01*
X155531000Y-104623300D01*
X155531000Y-105123400D01*
X156481000Y-105123400D01*
G37*
D12*
X154205100Y-97821600D02*
X154917100Y-97821600D01*
X154205100Y-98672600D02*
X154917100Y-98672600D01*
D10*
G36*
X153722900Y-98723500D02*
X154223000Y-98723500D01*
X154223000Y-97773500D01*
X153722900Y-97773500D01*
X153722900Y-98723500D01*
G37*
G36*
X154891300Y-98723500D02*
X155391400Y-98723500D01*
X155391400Y-97773500D01*
X154891300Y-97773500D01*
X154891300Y-98723500D01*
G37*
G36*
X125707100Y-90145600D02*
X128755100Y-90145600D01*
X128755100Y-88621600D01*
X125707100Y-88621600D01*
X125707100Y-90145600D01*
G37*
G36*
X124564100Y-95225600D02*
X125326100Y-95225600D01*
X125326100Y-93701600D01*
X124564100Y-93701600D01*
X124564100Y-95225600D01*
G37*
G36*
X129136100Y-95225600D02*
X129898100Y-95225600D01*
X129898100Y-93701600D01*
X129136100Y-93701600D01*
X129136100Y-95225600D01*
G37*
G36*
X126850100Y-95225600D02*
X127612100Y-95225600D01*
X127612100Y-93701600D01*
X126850100Y-93701600D01*
X126850100Y-95225600D01*
G37*
D12*
X130941100Y-98482600D02*
X130941100Y-99244600D01*
X129621100Y-98507600D02*
X129621100Y-99244600D01*
D10*
G36*
X129557200Y-97771400D02*
X129557200Y-98521500D01*
X131007300Y-98521500D01*
X131007300Y-97771400D01*
X129557200Y-97771400D01*
G37*
G36*
X129557200Y-99219200D02*
X129557200Y-99969300D01*
X131007300Y-99969300D01*
X131007300Y-99219200D01*
X129557200Y-99219200D01*
G37*
D12*
X126502100Y-99183600D02*
X125740100Y-99183600D01*
X126477100Y-97863600D02*
X125740100Y-97863600D01*
D10*
G36*
X127213300Y-97799700D02*
X126463200Y-97799700D01*
X126463200Y-99249800D01*
X127213300Y-99249800D01*
X127213300Y-97799700D01*
G37*
G36*
X125765500Y-97799700D02*
X125015400Y-97799700D01*
X125015400Y-99249800D01*
X125765500Y-99249800D01*
X125765500Y-97799700D01*
G37*
D12*
X136007100Y-94285600D02*
X135295100Y-94285600D01*
X136007100Y-93434600D02*
X135295100Y-93434600D01*
D10*
G36*
X136489300Y-93383700D02*
X135989200Y-93383700D01*
X135989200Y-94333700D01*
X136489300Y-94333700D01*
X136489300Y-93383700D01*
G37*
G36*
X135320900Y-93383700D02*
X134820800Y-93383700D01*
X134820800Y-94333700D01*
X135320900Y-94333700D01*
X135320900Y-93383700D01*
G37*
D11*
X131755100Y-90621600D02*
X131755100Y-91485600D01*
X132467100Y-91485600D02*
X132467100Y-90621600D01*
D10*
G36*
X131679300Y-91485400D02*
X131679300Y-91891800D01*
X132542900Y-91891800D01*
X132542900Y-91485400D01*
X131679300Y-91485400D01*
G37*
G36*
X131679300Y-90215400D02*
X131679300Y-90621800D01*
X132542900Y-90621800D01*
X132542900Y-90215400D01*
X131679300Y-90215400D01*
G37*
D12*
X142649100Y-113159600D02*
X142649100Y-112447600D01*
X143500100Y-113159600D02*
X143500100Y-112447600D01*
D10*
G36*
X143551000Y-113641800D02*
X143551000Y-113141700D01*
X142601000Y-113141700D01*
X142601000Y-113641800D01*
X143551000Y-113641800D01*
G37*
G36*
X143551000Y-112473400D02*
X143551000Y-111973300D01*
X142601000Y-111973300D01*
X142601000Y-112473400D01*
X143551000Y-112473400D01*
G37*
D12*
X136269100Y-103739600D02*
X136269100Y-103027600D01*
X137120100Y-103739600D02*
X137120100Y-103027600D01*
D10*
G36*
X137171000Y-104221800D02*
X137171000Y-103721700D01*
X136221000Y-103721700D01*
X136221000Y-104221800D01*
X137171000Y-104221800D01*
G37*
G36*
X137171000Y-103053400D02*
X137171000Y-102553300D01*
X136221000Y-102553300D01*
X136221000Y-103053400D01*
X137171000Y-103053400D01*
G37*
D11*
X149035100Y-113431600D02*
X149035100Y-114295600D01*
X149747100Y-114295600D02*
X149747100Y-113431600D01*
D10*
G36*
X148959300Y-114295400D02*
X148959300Y-114701800D01*
X149822900Y-114701800D01*
X149822900Y-114295400D01*
X148959300Y-114295400D01*
G37*
G36*
X148959300Y-113025400D02*
X148959300Y-113431800D01*
X149822900Y-113431800D01*
X149822900Y-113025400D01*
X148959300Y-113025400D01*
G37*
D11*
X163491100Y-111753600D02*
X163491100Y-108953600D01*
X165091100Y-108953600D02*
X165091100Y-111753600D01*
X165091100Y-111753600D02*
X163491100Y-111753600D01*
X165091100Y-108953600D02*
X163491100Y-108953600D01*
D10*
G36*
X162791100Y-109153600D02*
X162791100Y-109653600D01*
X163441100Y-109653600D01*
X163441100Y-109153600D01*
X162791100Y-109153600D01*
G37*
G36*
X162791100Y-110103600D02*
X162791100Y-110603600D01*
X163441100Y-110603600D01*
X163441100Y-110103600D01*
X162791100Y-110103600D01*
G37*
G36*
X162791100Y-111053600D02*
X162791100Y-111553600D01*
X163441100Y-111553600D01*
X163441100Y-111053600D01*
X162791100Y-111053600D01*
G37*
G36*
X165141100Y-111053600D02*
X165141100Y-111553600D01*
X165791100Y-111553600D01*
X165791100Y-111053600D01*
X165141100Y-111053600D01*
G37*
G36*
X165141100Y-109153600D02*
X165141100Y-109653600D01*
X165791100Y-109653600D01*
X165791100Y-109153600D01*
X165141100Y-109153600D01*
G37*
D11*
X160833100Y-114447600D02*
X159969100Y-114447600D01*
X159969100Y-115159600D02*
X160833100Y-115159600D01*
D10*
G36*
X159969300Y-114371800D02*
X159562900Y-114371800D01*
X159562900Y-115235400D01*
X159969300Y-115235400D01*
X159969300Y-114371800D01*
G37*
G36*
X161239300Y-114371800D02*
X160832900Y-114371800D01*
X160832900Y-115235400D01*
X161239300Y-115235400D01*
X161239300Y-114371800D01*
G37*
D11*
X164187100Y-115805600D02*
X164187100Y-114941600D01*
X163475100Y-114941600D02*
X163475100Y-115805600D01*
D10*
G36*
X164262900Y-114941800D02*
X164262900Y-114535400D01*
X163399300Y-114535400D01*
X163399300Y-114941800D01*
X164262900Y-114941800D01*
G37*
G36*
X164262900Y-116211800D02*
X164262900Y-115805400D01*
X163399300Y-115805400D01*
X163399300Y-116211800D01*
X164262900Y-116211800D01*
G37*
D11*
X168305100Y-114891600D02*
X168305100Y-115755600D01*
X169017100Y-115755600D02*
X169017100Y-114891600D01*
D10*
G36*
X168229300Y-115755400D02*
X168229300Y-116161800D01*
X169092900Y-116161800D01*
X169092900Y-115755400D01*
X168229300Y-115755400D01*
G37*
G36*
X168229300Y-114485400D02*
X168229300Y-114891800D01*
X169092900Y-114891800D01*
X169092900Y-114485400D01*
X168229300Y-114485400D01*
G37*
D11*
X170415100Y-109831600D02*
X170415100Y-110695600D01*
X171127100Y-110695600D02*
X171127100Y-109831600D01*
D10*
G36*
X170339300Y-110695400D02*
X170339300Y-111101800D01*
X171202900Y-111101800D01*
X171202900Y-110695400D01*
X170339300Y-110695400D01*
G37*
G36*
X170339300Y-109425400D02*
X170339300Y-109831800D01*
X171202900Y-109831800D01*
X171202900Y-109425400D01*
X170339300Y-109425400D01*
G37*
D12*
X167759100Y-110519600D02*
X167759100Y-109807600D01*
X168610100Y-110519600D02*
X168610100Y-109807600D01*
D10*
G36*
X168661000Y-111001800D02*
X168661000Y-110501700D01*
X167711000Y-110501700D01*
X167711000Y-111001800D01*
X168661000Y-111001800D01*
G37*
G36*
X168661000Y-109833400D02*
X168661000Y-109333300D01*
X167711000Y-109333300D01*
X167711000Y-109833400D01*
X168661000Y-109833400D01*
G37*
D12*
X170377100Y-118805600D02*
X169665100Y-118805600D01*
X170377100Y-117954600D02*
X169665100Y-117954600D01*
D10*
G36*
X170859300Y-117903700D02*
X170359200Y-117903700D01*
X170359200Y-118853700D01*
X170859300Y-118853700D01*
X170859300Y-117903700D01*
G37*
G36*
X169690900Y-117903700D02*
X169190800Y-117903700D01*
X169190800Y-118853700D01*
X169690900Y-118853700D01*
X169690900Y-117903700D01*
G37*
D12*
X166723100Y-115007600D02*
X166723100Y-115719600D01*
X165872100Y-115007600D02*
X165872100Y-115719600D01*
D10*
G36*
X165821200Y-114525400D02*
X165821200Y-115025500D01*
X166771200Y-115025500D01*
X166771200Y-114525400D01*
X165821200Y-114525400D01*
G37*
G36*
X165821200Y-115693800D02*
X165821200Y-116193900D01*
X166771200Y-116193900D01*
X166771200Y-115693800D01*
X165821200Y-115693800D01*
G37*
D11*
X164279100Y-90029600D02*
X165143100Y-90029600D01*
X165143100Y-89317600D02*
X164279100Y-89317600D01*
D10*
G36*
X165142900Y-90105400D02*
X165549300Y-90105400D01*
X165549300Y-89241800D01*
X165142900Y-89241800D01*
X165142900Y-90105400D01*
G37*
G36*
X163872900Y-90105400D02*
X164279300Y-90105400D01*
X164279300Y-89241800D01*
X163872900Y-89241800D01*
X163872900Y-90105400D01*
G37*
D11*
X168207100Y-83495600D02*
X168207100Y-82631600D01*
X167495100Y-82631600D02*
X167495100Y-83495600D01*
D10*
G36*
X168282900Y-82631800D02*
X168282900Y-82225400D01*
X167419300Y-82225400D01*
X167419300Y-82631800D01*
X168282900Y-82631800D01*
G37*
G36*
X168282900Y-83901800D02*
X168282900Y-83495400D01*
X167419300Y-83495400D01*
X167419300Y-83901800D01*
X168282900Y-83901800D01*
G37*
D12*
X137459100Y-115469600D02*
X137459100Y-114757600D01*
X138310100Y-115469600D02*
X138310100Y-114757600D01*
D10*
G36*
X138361000Y-115951800D02*
X138361000Y-115451700D01*
X137411000Y-115451700D01*
X137411000Y-115951800D01*
X138361000Y-115951800D01*
G37*
G36*
X138361000Y-114783400D02*
X138361000Y-114283300D01*
X137411000Y-114283300D01*
X137411000Y-114783400D01*
X138361000Y-114783400D01*
G37*
D12*
X129535100Y-103471600D02*
X130247100Y-103471600D01*
X129535100Y-104322600D02*
X130247100Y-104322600D01*
D10*
G36*
X129052900Y-104373500D02*
X129553000Y-104373500D01*
X129553000Y-103423500D01*
X129052900Y-103423500D01*
X129052900Y-104373500D01*
G37*
G36*
X130221300Y-104373500D02*
X130721400Y-104373500D01*
X130721400Y-103423500D01*
X130221300Y-103423500D01*
X130221300Y-104373500D01*
G37*
D12*
X139739100Y-115469600D02*
X139739100Y-114757600D01*
X140590100Y-115469600D02*
X140590100Y-114757600D01*
D10*
G36*
X140641000Y-115951800D02*
X140641000Y-115451700D01*
X139691000Y-115451700D01*
X139691000Y-115951800D01*
X140641000Y-115951800D01*
G37*
G36*
X140641000Y-114783400D02*
X140641000Y-114283300D01*
X139691000Y-114283300D01*
X139691000Y-114783400D01*
X140641000Y-114783400D01*
G37*
D12*
X133415100Y-103491600D02*
X134127100Y-103491600D01*
X133415100Y-104342600D02*
X134127100Y-104342600D01*
D10*
G36*
X132932900Y-104393500D02*
X133433000Y-104393500D01*
X133433000Y-103443500D01*
X132932900Y-103443500D01*
X132932900Y-104393500D01*
G37*
G36*
X134101300Y-104393500D02*
X134601400Y-104393500D01*
X134601400Y-103443500D01*
X134101300Y-103443500D01*
X134101300Y-104393500D01*
G37*
D12*
X134803100Y-114957600D02*
X134803100Y-115669600D01*
X133952100Y-114957600D02*
X133952100Y-115669600D01*
D10*
G36*
X133901200Y-114475400D02*
X133901200Y-114975500D01*
X134851200Y-114975500D01*
X134851200Y-114475400D01*
X133901200Y-114475400D01*
G37*
G36*
X133901200Y-115643800D02*
X133901200Y-116143900D01*
X134851200Y-116143900D01*
X134851200Y-115643800D01*
X133901200Y-115643800D01*
G37*
D11*
X134541900Y-107732400D02*
X134541900Y-111694800D01*
X139520300Y-111694800D02*
X139520300Y-109408800D01*
X139520300Y-109408800D02*
X139520300Y-107732400D01*
D10*
X139520300Y-109408800D02*
G75*
G03X139545700Y-110018400I12700J-304800D01*
G01*
G36*
X170965100Y-91857600D02*
X170965100Y-91349600D01*
X170457100Y-91349600D01*
X170457100Y-91857600D01*
X170965100Y-91857600D01*
G37*
G36*
X170965100Y-94397600D02*
X170965100Y-93889600D01*
X170457100Y-93889600D01*
X170457100Y-94397600D01*
X170965100Y-94397600D01*
G37*
G36*
X170965100Y-96937600D02*
X170965100Y-96429600D01*
X170457100Y-96429600D01*
X170457100Y-96937600D01*
X170965100Y-96937600D01*
G37*
G36*
X170965100Y-99477600D02*
X170965100Y-98969600D01*
X170457100Y-98969600D01*
X170457100Y-99477600D01*
X170965100Y-99477600D01*
G37*
G36*
X170965100Y-102017600D02*
X170965100Y-101509600D01*
X170457100Y-101509600D01*
X170457100Y-102017600D01*
X170965100Y-102017600D01*
G37*
G36*
X170965100Y-104557600D02*
X170965100Y-104049600D01*
X170457100Y-104049600D01*
X170457100Y-104557600D01*
X170965100Y-104557600D01*
G37*
G36*
X170965100Y-107097600D02*
X170965100Y-106589600D01*
X170457100Y-106589600D01*
X170457100Y-107097600D01*
X170965100Y-107097600D01*
G37*
G36*
X170965100Y-89317600D02*
X170965100Y-88809600D01*
X170457100Y-88809600D01*
X170457100Y-89317600D01*
X170965100Y-89317600D01*
G37*
D14*
X151181100Y-113223600D02*
X151181100Y-112323600D01*
X151181100Y-112323600D02*
X151181100Y-110023600D01*
D15*
X151181100Y-110023600D02*
X153981100Y-110023600D01*
D14*
X153981100Y-110023600D02*
X153981100Y-113223600D01*
D15*
X153981100Y-113223600D02*
X152081100Y-113223600D01*
X152081100Y-113223600D02*
X151181100Y-113223600D01*
X152081100Y-113223600D02*
X151181100Y-112323600D01*
X153571000Y-111623600D02*
G75*
G03X153571000Y-111623600I-989900J0D01*
G01*
D10*
G36*
X153281100Y-111823600D02*
X153281100Y-111423600D01*
X152881100Y-111423600D01*
X152881100Y-111823600D01*
X153281100Y-111823600D01*
G37*
G36*
X152781100Y-111823600D02*
X152781100Y-111423600D01*
X152381100Y-111423600D01*
X152381100Y-111823600D01*
X152781100Y-111823600D01*
G37*
G36*
X152281100Y-111823600D02*
X152281100Y-111423600D01*
X151881100Y-111423600D01*
X151881100Y-111823600D01*
X152281100Y-111823600D01*
G37*
D11*
X171247100Y-115725600D02*
X171247100Y-114861600D01*
X170535100Y-114861600D02*
X170535100Y-115725600D01*
D10*
G36*
X171322900Y-114861800D02*
X171322900Y-114455400D01*
X170459300Y-114455400D01*
X170459300Y-114861800D01*
X171322900Y-114861800D01*
G37*
G36*
X171322900Y-116131800D02*
X171322900Y-115725400D01*
X170459300Y-115725400D01*
X170459300Y-116131800D01*
X171322900Y-116131800D01*
G37*
D11*
X159060100Y-110164200D02*
X157282100Y-110164200D01*
X157282100Y-110164200D02*
X157282100Y-110519800D01*
X157282100Y-110519800D02*
X157282100Y-111027800D01*
X157282100Y-111027800D02*
X157282100Y-112399400D01*
X157282100Y-113263000D02*
X157866300Y-113263000D01*
X157866300Y-113263000D02*
X158475900Y-113263000D01*
X158475900Y-113263000D02*
X159060100Y-113263000D01*
X159060100Y-113263000D02*
X159060100Y-112907400D01*
X159060100Y-112907400D02*
X159060100Y-112399400D01*
X159060100Y-112399400D02*
X159060100Y-111967600D01*
X159060100Y-111967600D02*
X159060100Y-111459600D01*
X159060100Y-111459600D02*
X159060100Y-111027800D01*
X159060100Y-112907400D02*
X159771300Y-112907400D01*
X159771300Y-112907400D02*
X159771300Y-112399400D01*
X159771300Y-112399400D02*
X159060100Y-112399400D01*
X159060100Y-111967600D02*
X159771300Y-111967600D01*
X159771300Y-111967600D02*
X159771300Y-111459600D01*
X159771300Y-111459600D02*
X159060100Y-111459600D01*
X159060100Y-110164200D02*
X159060100Y-110519800D01*
X159060100Y-110519800D02*
X159060100Y-111027800D01*
X159060100Y-111027800D02*
X159771300Y-111027800D01*
X159771300Y-111027800D02*
X159771300Y-110519800D01*
X159771300Y-110519800D02*
X159060100Y-110519800D01*
X157282100Y-110519800D02*
X156570900Y-110519800D01*
X156570900Y-110519800D02*
X156570900Y-111027800D01*
X156570900Y-111027800D02*
X157282100Y-111027800D01*
X157282100Y-113263000D02*
X157282100Y-112907400D01*
X157282100Y-112907400D02*
X157282100Y-112399400D01*
X157282100Y-112399400D02*
X156570900Y-112399400D01*
X156570900Y-112399400D02*
X156570900Y-112907400D01*
X156570900Y-112907400D02*
X157282100Y-112907400D01*
D10*
X158475900Y-113263000D02*
G75*
G03X157866300Y-113263000I-304800J0D01*
G01*
D16*
X147418119Y-88889048D02*
X147418119Y-89176310D01*
X147130857Y-89061405D02*
X147418119Y-89176310D01*
X147705381Y-89061405D01*
X147245762Y-89406119D02*
X147418119Y-89176310D01*
X147590476Y-89406119D01*
X158228719Y-101142848D02*
X158228719Y-101430110D01*
X157941457Y-101315205D02*
X158228719Y-101430110D01*
X158515981Y-101315205D01*
X158056362Y-101659919D02*
X158228719Y-101430110D01*
X158401076Y-101659919D01*
X137316548Y-104580381D02*
X137603810Y-104580381D01*
X137488905Y-104867643D02*
X137603810Y-104580381D01*
X137488905Y-104293119D01*
X137833619Y-104752738D02*
X137603810Y-104580381D01*
X137833619Y-104408024D01*
X160840519Y-111821248D02*
X160840519Y-112108510D01*
X160553257Y-111993605D02*
X160840519Y-112108510D01*
X161127781Y-111993605D01*
X160668162Y-112338319D02*
X160840519Y-112108510D01*
X161012876Y-112338319D01*
M02*
