G04 #@! TF.FileFunction,Soldermask,Top*
%FSLAX46Y46*%
G04 Gerber Fmt 4.6, Leading zero omitted, Abs format (unit mm)*
G04 Created by KiCad (PCBNEW 4.0.0-rc2-stable) date 5/23/2016 2:13:21 PM*
%MOMM*%
G01*
G04 APERTURE LIST*
%ADD10C,0.100000*%
%ADD11R,1.365200X0.704800*%
%ADD12R,0.704800X1.365200*%
%ADD13R,1.400000X1.500000*%
%ADD14R,1.500000X1.400000*%
%ADD15R,0.908000X1.492200*%
%ADD16R,2.381200X0.958800*%
%ADD17C,2.076400*%
%ADD18R,1.898600X2.406600*%
%ADD19R,4.210000X2.406600*%
%ADD20R,1.900000X1.700000*%
%ADD21R,1.700000X1.900000*%
%ADD22R,0.680000X1.090000*%
%ADD23R,2.100000X1.900000*%
%ADD24C,1.263600*%
%ADD25R,1.600000X0.950000*%
%ADD26C,2.178000*%
%ADD27R,2.432000X1.060400*%
%ADD28R,2.900000X2.400000*%
%ADD29R,2.700000X0.900000*%
%ADD30R,0.755600X2.381200*%
%ADD31R,2.279600X2.279600*%
%ADD32C,2.279600*%
%ADD33R,1.500000X0.750000*%
%ADD34R,1.500000X1.000000*%
%ADD35R,1.908000X1.908000*%
%ADD36C,1.908000*%
%ADD37R,1.720800X0.958800*%
%ADD38C,1.204800*%
G04 APERTURE END LIST*
D10*
D11*
X148660300Y-90153000D03*
X148660300Y-90635600D03*
X148660300Y-91143600D03*
X148660300Y-91651600D03*
X148660300Y-92134200D03*
D12*
X149473100Y-92464400D03*
X149981100Y-92464400D03*
X150489100Y-92464400D03*
D11*
X151301900Y-92134200D03*
X151301900Y-91651600D03*
X151301900Y-91143600D03*
X151301900Y-90635600D03*
X151301900Y-90153000D03*
D12*
X150489100Y-89822800D03*
X149981100Y-89822800D03*
X149473100Y-89822800D03*
D13*
X155271100Y-89233600D03*
X155271100Y-87533600D03*
D14*
X151341100Y-95713600D03*
X149641100Y-95713600D03*
X142501100Y-91173600D03*
X144201100Y-91173600D03*
X142501100Y-88933600D03*
X144201100Y-88933600D03*
D13*
X153711100Y-95693600D03*
X153711100Y-93993600D03*
D15*
X140891500Y-100158200D03*
X142136100Y-100158200D03*
X143406100Y-100158200D03*
X144650700Y-100158200D03*
X144650700Y-97669000D03*
X143406100Y-97669000D03*
X142136100Y-97669000D03*
X140891500Y-97669000D03*
D14*
X135431100Y-100003600D03*
X137131100Y-100003600D03*
D13*
X147471100Y-101953600D03*
X147471100Y-100253600D03*
D14*
X141621100Y-103193600D03*
X143321100Y-103193600D03*
D16*
X158607300Y-102838600D03*
X158607300Y-104108600D03*
X158607300Y-105378600D03*
X158607300Y-106648600D03*
X163534900Y-106648600D03*
X163534900Y-105378600D03*
X163534900Y-104108600D03*
X163534900Y-102838600D03*
D14*
X166071100Y-104413600D03*
X166071100Y-102713600D03*
D17*
X152761100Y-106373600D03*
X152761100Y-103833600D03*
D13*
X156011100Y-101153600D03*
X156011100Y-102853600D03*
X156011100Y-106303600D03*
X156011100Y-104603600D03*
D14*
X153711100Y-98253600D03*
X155411100Y-98253600D03*
D18*
X124970500Y-95073200D03*
X127256500Y-95073200D03*
X129542500Y-95073200D03*
D19*
X127231100Y-88774000D03*
D20*
X130281100Y-97913600D03*
X130281100Y-99813600D03*
D21*
X127071100Y-98523600D03*
X125171100Y-98523600D03*
D14*
X136501100Y-93853600D03*
X134801100Y-93853600D03*
X132111100Y-90203600D03*
X132111100Y-91903600D03*
D22*
X145301100Y-111491600D03*
X145801100Y-111493600D03*
X146301100Y-111493600D03*
X146801100Y-111493600D03*
X145339100Y-113993600D03*
X145833100Y-113993600D03*
X146301100Y-113993600D03*
X146801100Y-113993600D03*
D23*
X146051100Y-112743600D03*
D13*
X143081100Y-113653600D03*
X143081100Y-111953600D03*
X136701100Y-104233600D03*
X136701100Y-102533600D03*
D14*
X149391100Y-113013600D03*
X149391100Y-114713600D03*
D24*
X155871100Y-120605600D03*
X143121100Y-120605600D03*
X129901100Y-120605600D03*
D25*
X162991000Y-109403600D03*
X162991000Y-110353600D03*
X162991000Y-111303600D03*
X165591200Y-111303600D03*
X165591200Y-109403600D03*
D13*
X161251100Y-114803600D03*
X159551100Y-114803600D03*
D14*
X163831100Y-116223600D03*
X163831100Y-114523600D03*
X168661100Y-114473600D03*
X168661100Y-116173600D03*
X170771100Y-109413600D03*
X170771100Y-111113600D03*
D13*
X168191100Y-111013600D03*
X168191100Y-109313600D03*
D14*
X170871100Y-118373600D03*
X169171100Y-118373600D03*
D13*
X166291100Y-114513600D03*
X166291100Y-116213600D03*
D26*
X168901100Y-122463600D03*
X166301100Y-122463600D03*
D27*
X159067700Y-82248600D03*
X165214500Y-82248600D03*
X159067700Y-83518600D03*
X159067700Y-84788600D03*
X165214500Y-83518600D03*
X165214500Y-84788600D03*
X159067700Y-86058600D03*
X165214500Y-86058600D03*
D13*
X163861100Y-89673600D03*
X165561100Y-89673600D03*
D14*
X167851100Y-83913600D03*
X167851100Y-82213600D03*
D13*
X137891100Y-115963600D03*
X137891100Y-114263600D03*
D14*
X129041100Y-103903600D03*
X130741100Y-103903600D03*
D13*
X140171100Y-115963600D03*
X140171100Y-114263600D03*
D14*
X132921100Y-103923600D03*
X134621100Y-103923600D03*
D13*
X134371100Y-114463600D03*
X134371100Y-116163600D03*
D28*
X131141100Y-115703600D03*
X131141100Y-106803600D03*
X125641100Y-115703600D03*
X125641100Y-106803600D03*
D29*
X131241100Y-111253600D03*
X131241100Y-112053600D03*
X131241100Y-110453600D03*
X131241100Y-109653600D03*
X131241100Y-112853600D03*
D30*
X139266300Y-107249800D03*
X138605900Y-107249800D03*
X137996300Y-107249800D03*
X137335900Y-107249800D03*
X136726300Y-107249800D03*
X136065900Y-107249800D03*
X135456300Y-107249800D03*
X134795900Y-107249800D03*
X134795900Y-112177400D03*
X135456300Y-112177400D03*
X136065900Y-112177400D03*
X136726300Y-112177400D03*
X137335900Y-112177400D03*
X137996300Y-112177400D03*
X138605900Y-112177400D03*
X139266300Y-112177400D03*
D31*
X170584100Y-106843600D03*
D32*
X170838100Y-104303600D03*
X170584100Y-101763600D03*
X170838100Y-99223600D03*
X170584100Y-96683600D03*
X170838100Y-94143600D03*
X170584100Y-91603600D03*
X170838100Y-89063600D03*
D33*
X136731100Y-89943600D03*
D34*
X136731100Y-90863600D03*
D33*
X136731100Y-91743600D03*
X134531100Y-89943600D03*
D34*
X134521100Y-90863600D03*
D33*
X134521100Y-91743600D03*
D35*
X125501100Y-84783600D03*
D17*
X125501100Y-82243600D03*
D36*
X128041100Y-84783600D03*
X128041100Y-82243600D03*
X130581100Y-84783600D03*
D17*
X130581100Y-82243600D03*
D36*
X133121100Y-84783600D03*
X133121100Y-82243600D03*
X135661100Y-84783600D03*
X135661100Y-82243600D03*
X138201100Y-84783600D03*
X138201100Y-82243600D03*
X140741100Y-84783600D03*
X140741100Y-82243600D03*
X143281100Y-84783600D03*
X143281100Y-82243600D03*
X145821100Y-84783600D03*
X145821100Y-82243600D03*
X148361100Y-84783600D03*
X148361100Y-82243600D03*
X150901100Y-84783600D03*
X150901100Y-82243600D03*
X153441100Y-84783600D03*
X153441100Y-82243600D03*
X155981100Y-84783600D03*
X155981100Y-82243600D03*
D13*
X151981100Y-113023600D03*
X153181100Y-113023600D03*
X153181100Y-110223600D03*
X151981100Y-110223600D03*
D14*
X170891100Y-116143600D03*
X170891100Y-114443600D03*
D37*
X159542700Y-112653400D03*
X159542700Y-111713600D03*
X159542700Y-110773800D03*
X156799500Y-110773800D03*
X156799500Y-112653400D03*
D38*
X138561100Y-92653600D03*
X140421100Y-90933600D03*
X156021100Y-99733600D03*
X160831100Y-106653600D03*
X147401100Y-92713600D03*
X147601100Y-94633600D03*
X145811100Y-95123600D03*
X146051100Y-90933600D03*
X139231100Y-97573600D03*
X144711100Y-108193600D03*
X155221100Y-112633600D03*
X155031100Y-107933600D03*
X134561100Y-88833600D03*
X142171100Y-96173600D03*
X146941100Y-108563600D03*
X136711100Y-98283600D03*
X134791100Y-96223600D03*
X147571100Y-88263600D03*
X153111100Y-88573600D03*
X157231100Y-87183600D03*
X163381100Y-87733600D03*
X142551100Y-109643600D03*
X153831100Y-115303600D03*
X169521100Y-112713600D03*
X157021100Y-115003600D03*
X141101100Y-92073600D03*
X138121100Y-94093600D03*
X150571100Y-97993600D03*
X163791100Y-112953600D03*
X166461100Y-108963600D03*
X171851100Y-112643600D03*
X160261100Y-93453600D03*
X156081100Y-95503600D03*
X131421100Y-93993600D03*
X148131100Y-108873600D03*
X143031100Y-115853600D03*
X145541100Y-116213600D03*
X149611100Y-86203600D03*
X163071100Y-86133600D03*
X170271100Y-86883600D03*
X170361100Y-82583600D03*
X137571100Y-105393600D03*
X139301100Y-104463600D03*
X133381100Y-109423600D03*
X133201100Y-111253600D03*
X133881100Y-107533600D03*
X135901100Y-116933600D03*
X135981100Y-114553600D03*
X136321100Y-110253600D03*
X138411100Y-109583600D03*
X153851100Y-90913600D03*
X144061100Y-86473600D03*
X153331100Y-92613600D03*
X143401100Y-95103600D03*
X146221100Y-98873600D03*
X150271100Y-108633600D03*
X138481100Y-88153600D03*
X130601100Y-89073600D03*
X155591100Y-94243600D03*
X139811100Y-96303600D03*
X139841100Y-94213600D03*
X124981100Y-92533600D03*
X164151100Y-120023600D03*
X167221100Y-87343600D03*
X167331100Y-90083600D03*
X172021100Y-83953600D03*
X169031100Y-87463600D03*
X168951100Y-90573600D03*
X144591100Y-95503600D03*
X147871100Y-97663600D03*
X153021100Y-108703600D03*
M02*
