G04 #@! TF.FileFunction,Legend,Top*
%FSLAX46Y46*%
G04 Gerber Fmt 4.6, Leading zero omitted, Abs format (unit mm)*
G04 Created by KiCad (PCBNEW 4.0.0-rc2-stable) date 5/23/2016 2:13:21 PM*
%MOMM*%
G01*
G04 APERTURE LIST*
%ADD10C,0.100000*%
%ADD11C,0.152400*%
%ADD12C,0.127000*%
%ADD13C,0.406400*%
%ADD14C,0.762000*%
%ADD15C,0.203200*%
%ADD16C,0.254000*%
%ADD17C,0.304800*%
%ADD18C,0.038608*%
%ADD19C,0.076200*%
%ADD20C,0.030886*%
%ADD21C,0.086868*%
%ADD22C,0.150000*%
%ADD23C,0.096520*%
%ADD24C,0.101600*%
%ADD25C,0.057912*%
G04 APERTURE END LIST*
D10*
D11*
X148482500Y-92642200D02*
X148990500Y-92642200D01*
X148990500Y-89645000D02*
X148482500Y-89645000D01*
X150971700Y-92642200D02*
X151479700Y-92642200D01*
X151479700Y-89645000D02*
X150971700Y-89645000D01*
X140281900Y-99218400D02*
G75*
G03X140281900Y-98608800I0J304800D01*
G01*
X145260300Y-101047200D02*
X145260300Y-96780000D01*
X145260300Y-96780000D02*
X140281900Y-96780000D01*
X140281900Y-96780000D02*
X140281900Y-98608800D01*
X140281900Y-98608800D02*
X140281900Y-99218400D01*
X140281900Y-99218400D02*
X140281900Y-101047200D01*
X140281900Y-101047200D02*
X145260300Y-101047200D01*
X140436842Y-102213059D02*
G75*
G03X140238722Y-101806659I-99060J203200D01*
G01*
X140238723Y-101806659D02*
G75*
G03X140436841Y-102213059I99059J-203200D01*
G01*
X140281900Y-99218400D02*
G75*
G03X140281900Y-98608800I0J304800D01*
G01*
X159064500Y-102584600D02*
X157972300Y-102584600D01*
X157972300Y-102584600D02*
X157972300Y-103092600D01*
X157972300Y-103092600D02*
X159064500Y-103092600D01*
X159064500Y-103854600D02*
X157972300Y-103854600D01*
X157972300Y-103854600D02*
X157972300Y-104362600D01*
X157972300Y-104362600D02*
X159064500Y-104362600D01*
X159064500Y-105124600D02*
X157972300Y-105124600D01*
X157972300Y-105124600D02*
X157972300Y-105632600D01*
X157972300Y-105632600D02*
X159064500Y-105632600D01*
X159064500Y-106394600D02*
X157972300Y-106394600D01*
X157972300Y-106394600D02*
X157972300Y-106902600D01*
X157972300Y-106902600D02*
X159064500Y-106902600D01*
X163077700Y-106902600D02*
X164169900Y-106902600D01*
X164169900Y-106902600D02*
X164169900Y-106394600D01*
X164169900Y-106394600D02*
X163077700Y-106394600D01*
X163077700Y-105632600D02*
X164169900Y-105632600D01*
X164169900Y-105632600D02*
X164169900Y-105124600D01*
X164169900Y-105124600D02*
X163077700Y-105124600D01*
X163077700Y-104362600D02*
X164169900Y-104362600D01*
X164169900Y-104362600D02*
X164169900Y-103854600D01*
X164169900Y-103854600D02*
X163077700Y-103854600D01*
X163077700Y-103092600D02*
X164169900Y-103092600D01*
X164169900Y-103092600D02*
X164169900Y-102584600D01*
X164169900Y-102584600D02*
X163077700Y-102584600D01*
X159064500Y-107232800D02*
X163077700Y-107232800D01*
X163077700Y-107232800D02*
X163077700Y-102254400D01*
X163077700Y-102254400D02*
X162767822Y-102254400D01*
X159699500Y-102254400D02*
X159064500Y-102254400D01*
X159064500Y-102254400D02*
X159064500Y-107232800D01*
X159699500Y-107232800D02*
X162442700Y-107232800D01*
X162767822Y-102254400D02*
X161375900Y-102254400D01*
X161375900Y-102254400D02*
X160766300Y-102254400D01*
X160766300Y-102254400D02*
X159699500Y-102254400D01*
D12*
X160766300Y-102254400D02*
G75*
G03X161375900Y-102254400I304800J0D01*
G01*
D11*
X151110100Y-105992600D02*
X151110100Y-104214600D01*
X145268100Y-104087600D02*
G75*
G03X145014100Y-104341600I0J-254000D01*
G01*
X145014100Y-105865600D02*
G75*
G03X145268100Y-106119600I254000J0D01*
G01*
X145014100Y-105865600D02*
X145014100Y-104341600D01*
X151110100Y-104214600D02*
X150729100Y-104214600D01*
X150729100Y-104087600D02*
X145268100Y-104087600D01*
X151110100Y-105992600D02*
X150729100Y-105992600D01*
X150729100Y-106119600D02*
X150729100Y-105992600D01*
X150729100Y-106119600D02*
X145268100Y-106119600D01*
D13*
X151999100Y-104595600D02*
X151618100Y-104595600D01*
X151999100Y-105611600D02*
X151491100Y-105611600D01*
D11*
X147808100Y-105611600D02*
X148189100Y-105611600D01*
X148189100Y-104595600D02*
X148189100Y-105611600D01*
X148189100Y-104595600D02*
X147808100Y-104595600D01*
X147808100Y-105611600D02*
X147808100Y-104595600D01*
X147427100Y-105611600D02*
X147427100Y-105103600D01*
X148570100Y-105611600D02*
X148570100Y-105103600D01*
X148570100Y-105103600D02*
X149078100Y-105103600D01*
X148570100Y-105103600D02*
X148570100Y-104595600D01*
X147427100Y-105103600D02*
X146919100Y-105103600D01*
X147427100Y-105103600D02*
X147427100Y-104595600D01*
X150729100Y-104087600D02*
X150729100Y-104214600D01*
X150729100Y-104214600D02*
X150729100Y-105992600D01*
D10*
G36*
X151745100Y-104798800D02*
X151745100Y-104392400D01*
X151160900Y-104392400D01*
X151160900Y-104798800D01*
X151745100Y-104798800D01*
G37*
G36*
X151745100Y-105814800D02*
X151745100Y-105408400D01*
X151160900Y-105408400D01*
X151160900Y-105814800D01*
X151745100Y-105814800D01*
G37*
D11*
X124107100Y-90192600D02*
X124107100Y-93652600D01*
X130355100Y-93652600D02*
X130355100Y-90192600D01*
X124107100Y-90192600D02*
X130355100Y-90192600D01*
X130355100Y-93652600D02*
X124107100Y-93652600D01*
D12*
X147317384Y-110164600D02*
G75*
G03X147317384Y-110164600I-175284J0D01*
G01*
X147341100Y-110743600D02*
X147341100Y-114743600D01*
X147341100Y-114743600D02*
X144771100Y-114743600D01*
X144771100Y-114743600D02*
X144771100Y-110743600D01*
X144771100Y-110743600D02*
X147341100Y-110743600D01*
D14*
X160697100Y-123653600D02*
G75*
G03X160697100Y-123653600I-4826000J0D01*
G01*
X147947100Y-123653600D02*
G75*
G03X147947100Y-123653600I-4826000J0D01*
G01*
X134727100Y-123653600D02*
G75*
G03X134727100Y-123653600I-4826000J0D01*
G01*
D15*
X164720500Y-111776000D02*
X163861700Y-111776000D01*
X163861700Y-108931200D02*
X164720500Y-108931200D01*
X165101500Y-110085200D02*
X165101500Y-110622000D01*
D12*
X172402100Y-124463600D02*
G75*
G03X172402100Y-124463600I-4801000J0D01*
G01*
X171901100Y-124463600D02*
G75*
G03X171901100Y-124463600I-4300000J0D01*
G01*
D11*
X160566300Y-86693600D02*
X164046100Y-86693600D01*
X164046100Y-81613600D02*
X162649100Y-81613600D01*
X162649100Y-81613600D02*
X161633100Y-81613600D01*
X161633100Y-81613600D02*
X160566300Y-81613600D01*
X161633100Y-81613600D02*
G75*
G03X162649100Y-81613600I508000J0D01*
G01*
X160236100Y-81613600D02*
X160236100Y-86693600D01*
X160236100Y-81613600D02*
X160553600Y-81613600D01*
X160236100Y-86693600D02*
X160553600Y-86693600D01*
D12*
X160184284Y-86463075D02*
X157943325Y-86462875D01*
X157943325Y-86462875D02*
X157943025Y-85635313D01*
X157943025Y-85635313D02*
X160188391Y-85635613D01*
X160171075Y-85199875D02*
X157943325Y-85199875D01*
X157943325Y-85199875D02*
X157943325Y-84387738D01*
X157943325Y-84387738D02*
X160197491Y-84387738D01*
X160215891Y-83915453D02*
X157956531Y-83915453D01*
X157956531Y-83915453D02*
X157956531Y-83127263D01*
X157956531Y-83127263D02*
X160223909Y-83127363D01*
X160201500Y-82653187D02*
X157960141Y-82653187D01*
X157960141Y-82653187D02*
X157960541Y-81857334D01*
X157960541Y-81857334D02*
X160250325Y-81857334D01*
X160250325Y-81857334D02*
X160250325Y-81935925D01*
X164061319Y-81610191D02*
X164061319Y-86704719D01*
X164061319Y-86704719D02*
X164045891Y-86704719D01*
X164088059Y-81841191D02*
X166285619Y-81841191D01*
X166285619Y-81841191D02*
X166285619Y-82605562D01*
X166285619Y-82605562D02*
X166279191Y-82611991D01*
X166279191Y-82611991D02*
X164081631Y-82611991D01*
X164081631Y-82611991D02*
X164075209Y-82605569D01*
X164075209Y-83132281D02*
X166279197Y-83132281D01*
X166279197Y-83132281D02*
X166285619Y-83125859D01*
X166285619Y-83125859D02*
X166285619Y-83883819D01*
X166285619Y-83883819D02*
X164081638Y-83883819D01*
X164081638Y-83883819D02*
X164075209Y-83877391D01*
X164075209Y-84416959D02*
X166266341Y-84416959D01*
X166266341Y-84416959D02*
X166272769Y-84410531D01*
X166272769Y-84410531D02*
X166272769Y-85142791D01*
X166272769Y-85142791D02*
X166266341Y-85149219D01*
X166266341Y-85149219D02*
X164081628Y-85149219D01*
X164081628Y-85149219D02*
X164075209Y-85142800D01*
X164088059Y-85669519D02*
X166279191Y-85669519D01*
X166279191Y-85669519D02*
X166279191Y-86446747D01*
X166279191Y-86446747D02*
X166272769Y-86453169D01*
X166272769Y-86453169D02*
X164088053Y-86453169D01*
X164088053Y-86453169D02*
X164081631Y-86459591D01*
D16*
X123391100Y-115103600D02*
X123391100Y-107403600D01*
X131941100Y-108103600D02*
X131941100Y-109103600D01*
X131941100Y-113403600D02*
X131941100Y-114403600D01*
X129591100Y-107403600D02*
X127191100Y-107403600D01*
X129591100Y-115103600D02*
X127191100Y-115103600D01*
X124091100Y-107403600D02*
X123391100Y-107403600D01*
X124091100Y-115103600D02*
X123391100Y-115103600D01*
D12*
X139520300Y-109408800D02*
G75*
G03X139545700Y-110018400I12700J-304800D01*
G01*
X139541100Y-107722600D02*
X139541100Y-111697600D01*
X134527100Y-107748600D02*
X134527100Y-111683600D01*
X134527100Y-111683600D02*
X134533100Y-111683600D01*
X139517700Y-107726600D02*
X134541400Y-107726600D01*
X134541400Y-107726600D02*
X134536900Y-107722100D01*
X139483800Y-111711900D02*
X134567100Y-111711900D01*
X134567100Y-111711900D02*
X134544500Y-111689300D01*
X139398900Y-107731600D02*
X139398900Y-106561500D01*
X139398900Y-106561500D02*
X139144900Y-106561500D01*
X139144900Y-106561500D02*
X139144900Y-107717900D01*
X139144900Y-107717900D02*
X139149500Y-107722500D01*
X138727600Y-107731600D02*
X138727600Y-106561500D01*
X138727600Y-106561500D02*
X138482600Y-106561500D01*
X138482600Y-106561500D02*
X138482600Y-107722500D01*
X138119800Y-107718000D02*
X138119800Y-106566000D01*
X138119800Y-106566000D02*
X138124300Y-106561500D01*
X138124300Y-106561500D02*
X137874800Y-106561500D01*
X137874800Y-106561500D02*
X137874800Y-107704400D01*
X137874800Y-107704400D02*
X137870300Y-107708900D01*
X137457500Y-107722500D02*
X137457500Y-106584200D01*
X137457500Y-106584200D02*
X137226200Y-106584200D01*
X137226200Y-106584200D02*
X137226200Y-107713500D01*
X136845100Y-107713500D02*
X136845100Y-106588700D01*
X136845100Y-106588700D02*
X136604700Y-106588700D01*
X136604700Y-106588700D02*
X136604700Y-107704400D01*
X136604700Y-107704400D02*
X136609200Y-107708900D01*
X136191900Y-107713500D02*
X136191900Y-106602300D01*
X136191900Y-106602300D02*
X135956000Y-106602300D01*
X135956000Y-106602300D02*
X135951500Y-106606800D01*
X135951500Y-106606800D02*
X135951500Y-107699900D01*
X135579600Y-107699900D02*
X135579600Y-106611400D01*
X135579600Y-106611400D02*
X135343700Y-106611400D01*
X135343700Y-106611400D02*
X135343700Y-107699900D01*
X135343700Y-107699900D02*
X135348200Y-107704400D01*
X134921800Y-107708900D02*
X134921800Y-106634100D01*
X134921800Y-106634100D02*
X134926400Y-106629500D01*
X134926400Y-106629500D02*
X134676900Y-106629500D01*
X134676900Y-106629500D02*
X134676900Y-107704300D01*
X134676900Y-107704300D02*
X134672300Y-107708900D01*
X139394400Y-111740900D02*
X139394400Y-112843100D01*
X139394400Y-112843100D02*
X139389900Y-112847600D01*
X139389900Y-112847600D02*
X139154000Y-112847600D01*
X139154000Y-112847600D02*
X139154000Y-111759100D01*
X138727600Y-111750000D02*
X138727600Y-112838500D01*
X138727600Y-112838500D02*
X138718500Y-112847600D01*
X138718500Y-112847600D02*
X138496300Y-112847600D01*
X138496300Y-112847600D02*
X138487200Y-112838500D01*
X138487200Y-112838500D02*
X138487200Y-111745500D01*
X138487200Y-111745500D02*
X138482600Y-111740900D01*
X138124300Y-111750000D02*
X138124300Y-112834000D01*
X138124300Y-112834000D02*
X138110700Y-112847600D01*
X138110700Y-112847600D02*
X137874800Y-112847600D01*
X137874800Y-112847600D02*
X137874800Y-111745500D01*
X136849700Y-111750000D02*
X136849700Y-112833900D01*
X136849700Y-112833900D02*
X136840600Y-112843000D01*
X136840600Y-112843000D02*
X136609200Y-112843000D01*
X136609200Y-112843000D02*
X136609200Y-111763700D01*
X136609200Y-111763700D02*
X136613800Y-111759100D01*
X136191900Y-111750000D02*
X136191900Y-112843000D01*
X136191900Y-112843000D02*
X136178300Y-112856600D01*
X136178300Y-112856600D02*
X135946900Y-112856600D01*
X135942400Y-112852100D02*
X135942400Y-111786300D01*
X135942400Y-111786300D02*
X135937900Y-111781800D01*
X134926400Y-111740900D02*
X134926400Y-112838400D01*
X134926400Y-112838400D02*
X134899100Y-112865700D01*
X134899100Y-112865700D02*
X134685900Y-112865700D01*
X134681400Y-112861200D02*
X134681400Y-111768200D01*
X134681400Y-111768200D02*
X134672300Y-111759100D01*
X135579900Y-111746600D02*
X135579900Y-112857600D01*
X135579900Y-112857600D02*
X135583700Y-112861400D01*
X135583700Y-112861400D02*
X135338000Y-112861400D01*
X135338000Y-112861400D02*
X135338000Y-111727700D01*
X135338000Y-111727700D02*
X135334300Y-111724000D01*
X137450200Y-111743800D02*
X137450200Y-112843200D01*
X137221600Y-112854100D02*
X137221600Y-111727400D01*
X137453100Y-112866400D02*
X137236000Y-112866400D01*
X137236000Y-112866400D02*
X137222400Y-112852800D01*
D15*
X169441100Y-92238600D02*
X169441100Y-90968600D01*
X169441100Y-90968600D02*
X170076100Y-90333600D01*
X171346100Y-90333600D02*
X171981100Y-90968600D01*
X170076100Y-95413600D02*
X169441100Y-94778600D01*
X169441100Y-94778600D02*
X169441100Y-93508600D01*
X169441100Y-93508600D02*
X170076100Y-92873600D01*
X171346100Y-92873600D02*
X171981100Y-93508600D01*
X171981100Y-93508600D02*
X171981100Y-94778600D01*
X171981100Y-94778600D02*
X171346100Y-95413600D01*
X169441100Y-92238600D02*
X170076100Y-92873600D01*
X171346100Y-92873600D02*
X171981100Y-92238600D01*
X171981100Y-90968600D02*
X171981100Y-92238600D01*
X169441100Y-99858600D02*
X169441100Y-98588600D01*
X169441100Y-98588600D02*
X170076100Y-97953600D01*
X171346100Y-97953600D02*
X171981100Y-98588600D01*
X170076100Y-97953600D02*
X169441100Y-97318600D01*
X169441100Y-97318600D02*
X169441100Y-96048600D01*
X169441100Y-96048600D02*
X170076100Y-95413600D01*
X171346100Y-95413600D02*
X171981100Y-96048600D01*
X171981100Y-96048600D02*
X171981100Y-97318600D01*
X171981100Y-97318600D02*
X171346100Y-97953600D01*
X170076100Y-103033600D02*
X169441100Y-102398600D01*
X169441100Y-102398600D02*
X169441100Y-101128600D01*
X169441100Y-101128600D02*
X170076100Y-100493600D01*
X171346100Y-100493600D02*
X171981100Y-101128600D01*
X171981100Y-101128600D02*
X171981100Y-102398600D01*
X171981100Y-102398600D02*
X171346100Y-103033600D01*
X169441100Y-99858600D02*
X170076100Y-100493600D01*
X171346100Y-100493600D02*
X171981100Y-99858600D01*
X171981100Y-98588600D02*
X171981100Y-99858600D01*
X169441100Y-107478600D02*
X169441100Y-106208600D01*
X169441100Y-106208600D02*
X170076100Y-105573600D01*
X171346100Y-105573600D02*
X171981100Y-106208600D01*
X170076100Y-105573600D02*
X169441100Y-104938600D01*
X169441100Y-104938600D02*
X169441100Y-103668600D01*
X169441100Y-103668600D02*
X170076100Y-103033600D01*
X171346100Y-103033600D02*
X171981100Y-103668600D01*
X171981100Y-103668600D02*
X171981100Y-104938600D01*
X171981100Y-104938600D02*
X171346100Y-105573600D01*
X170076100Y-108113600D02*
X171346100Y-108113600D01*
X169441100Y-107478600D02*
X170076100Y-108113600D01*
X171346100Y-108113600D02*
X171981100Y-107478600D01*
X171981100Y-106208600D02*
X171981100Y-107478600D01*
X169441100Y-89698600D02*
X169441100Y-88428600D01*
X169441100Y-88428600D02*
X170076100Y-87793600D01*
X170076100Y-87793600D02*
X171346100Y-87793600D01*
X171346100Y-87793600D02*
X171981100Y-88428600D01*
X169441100Y-89698600D02*
X170076100Y-90333600D01*
X171346100Y-90333600D02*
X171981100Y-89698600D01*
X171981100Y-88428600D02*
X171981100Y-89698600D01*
D12*
X133811100Y-92163600D02*
X133811100Y-89563600D01*
X137451100Y-92163600D02*
X137451100Y-89563600D01*
X137451100Y-89563600D02*
X133811100Y-89563600D01*
X133811100Y-92193600D02*
X137441100Y-92193600D01*
X132966703Y-91752600D02*
G75*
G03X132966703Y-91752600I-179603J0D01*
G01*
X124576100Y-83858600D02*
X126426100Y-83858600D01*
X126426100Y-85708600D02*
G75*
G02X126426100Y-83858600I53912688J925000D01*
G01*
X126426100Y-85708600D02*
X124576100Y-85708600D01*
X124576100Y-85708600D02*
X124576100Y-83858600D01*
X124101100Y-86008600D02*
X157301100Y-86008600D01*
X157301100Y-86008600D02*
X157301100Y-81008600D01*
X157301100Y-81008600D02*
X124101100Y-81008600D01*
X124101100Y-81008600D02*
X124101100Y-86008600D01*
D15*
X151281100Y-113223600D02*
X151181100Y-113223600D01*
X151181100Y-113223600D02*
X151181100Y-110023600D01*
X151181100Y-110023600D02*
X151281100Y-110023600D01*
X153881100Y-113223600D02*
X153981100Y-113223600D01*
X153981100Y-113223600D02*
X153981100Y-110023600D01*
X153981100Y-110023600D02*
X153881100Y-110023600D01*
D17*
X152122500Y-114023600D02*
G75*
G03X152122500Y-114023600I-141400J0D01*
G01*
D11*
X158806100Y-110164200D02*
X157536100Y-110164200D01*
X157282100Y-111383400D02*
X157282100Y-112043800D01*
X157536100Y-113263000D02*
X157866300Y-113263000D01*
X157866300Y-113263000D02*
X158475900Y-113263000D01*
X158475900Y-113263000D02*
X158806100Y-113263000D01*
D10*
X158475900Y-113263000D02*
G75*
G03X157866300Y-113263000I-304800J0D01*
G01*
D18*
X145374024Y-88610615D02*
X145374024Y-88224535D01*
X145778489Y-88573846D02*
X145760104Y-88592230D01*
X145704950Y-88610615D01*
X145668180Y-88610615D01*
X145613026Y-88592230D01*
X145576257Y-88555461D01*
X145557872Y-88518691D01*
X145539487Y-88445152D01*
X145539487Y-88389998D01*
X145557872Y-88316459D01*
X145576257Y-88279690D01*
X145613026Y-88242920D01*
X145668180Y-88224535D01*
X145704950Y-88224535D01*
X145760104Y-88242920D01*
X145778489Y-88261305D01*
X145907182Y-88224535D02*
X146146184Y-88224535D01*
X146017491Y-88371613D01*
X146072645Y-88371613D01*
X146109415Y-88389998D01*
X146127799Y-88408383D01*
X146146184Y-88445152D01*
X146146184Y-88537076D01*
X146127799Y-88573846D01*
X146109415Y-88592230D01*
X146072645Y-88610615D01*
X145962337Y-88610615D01*
X145925567Y-88592230D01*
X145907182Y-88573846D01*
D19*
X147418119Y-88889048D02*
X147418119Y-89176310D01*
X147130857Y-89061405D02*
X147418119Y-89176310D01*
X147705381Y-89061405D01*
X147245762Y-89406119D02*
X147418119Y-89176310D01*
X147590476Y-89406119D01*
D20*
X154948641Y-88963446D02*
X154930256Y-88981830D01*
X154875102Y-89000215D01*
X154838332Y-89000215D01*
X154783178Y-88981830D01*
X154746409Y-88945061D01*
X154728024Y-88908291D01*
X154709639Y-88834752D01*
X154709639Y-88779598D01*
X154728024Y-88706059D01*
X154746409Y-88669290D01*
X154783178Y-88632520D01*
X154838332Y-88614135D01*
X154875102Y-88614135D01*
X154930256Y-88632520D01*
X154948641Y-88650905D01*
X155316336Y-89000215D02*
X155095719Y-89000215D01*
X155206028Y-89000215D02*
X155206028Y-88614135D01*
X155169258Y-88669290D01*
X155132489Y-88706059D01*
X155095719Y-88724444D01*
X151438641Y-96293446D02*
X151420256Y-96311830D01*
X151365102Y-96330215D01*
X151328332Y-96330215D01*
X151273178Y-96311830D01*
X151236409Y-96275061D01*
X151218024Y-96238291D01*
X151199639Y-96164752D01*
X151199639Y-96109598D01*
X151218024Y-96036059D01*
X151236409Y-95999290D01*
X151273178Y-95962520D01*
X151328332Y-95944135D01*
X151365102Y-95944135D01*
X151420256Y-95962520D01*
X151438641Y-95980905D01*
X151585719Y-95980905D02*
X151604104Y-95962520D01*
X151640873Y-95944135D01*
X151732797Y-95944135D01*
X151769567Y-95962520D01*
X151787951Y-95980905D01*
X151806336Y-96017674D01*
X151806336Y-96054444D01*
X151787951Y-96109598D01*
X151567334Y-96330215D01*
X151806336Y-96330215D01*
X142274866Y-90869526D02*
X142256481Y-90887910D01*
X142201327Y-90906295D01*
X142164557Y-90906295D01*
X142109403Y-90887910D01*
X142072634Y-90851141D01*
X142054249Y-90814371D01*
X142035864Y-90740832D01*
X142035864Y-90685678D01*
X142054249Y-90612139D01*
X142072634Y-90575370D01*
X142109403Y-90538600D01*
X142164557Y-90520215D01*
X142201327Y-90520215D01*
X142256481Y-90538600D01*
X142274866Y-90556985D01*
X142403559Y-90520215D02*
X142642561Y-90520215D01*
X142513868Y-90667293D01*
X142569022Y-90667293D01*
X142605792Y-90685678D01*
X142624176Y-90704063D01*
X142642561Y-90740832D01*
X142642561Y-90832756D01*
X142624176Y-90869526D01*
X142605792Y-90887910D01*
X142569022Y-90906295D01*
X142458714Y-90906295D01*
X142421944Y-90887910D01*
X142403559Y-90869526D01*
X142660946Y-87986059D02*
X142679330Y-88004444D01*
X142697715Y-88059598D01*
X142697715Y-88096368D01*
X142679330Y-88151522D01*
X142642561Y-88188291D01*
X142605791Y-88206676D01*
X142532252Y-88225061D01*
X142477098Y-88225061D01*
X142403559Y-88206676D01*
X142366790Y-88188291D01*
X142330020Y-88151522D01*
X142311635Y-88096368D01*
X142311635Y-88059598D01*
X142330020Y-88004444D01*
X142348405Y-87986059D01*
X142440329Y-87655133D02*
X142697715Y-87655133D01*
X142293250Y-87747057D02*
X142569022Y-87838981D01*
X142569022Y-87599979D01*
X152634866Y-95809526D02*
X152616481Y-95827910D01*
X152561327Y-95846295D01*
X152524557Y-95846295D01*
X152469403Y-95827910D01*
X152432634Y-95791141D01*
X152414249Y-95754371D01*
X152395864Y-95680832D01*
X152395864Y-95625678D01*
X152414249Y-95552139D01*
X152432634Y-95515370D01*
X152469403Y-95478600D01*
X152524557Y-95460215D01*
X152561327Y-95460215D01*
X152616481Y-95478600D01*
X152634866Y-95496985D01*
X152984176Y-95460215D02*
X152800329Y-95460215D01*
X152781944Y-95644063D01*
X152800329Y-95625678D01*
X152837098Y-95607293D01*
X152929022Y-95607293D01*
X152965792Y-95625678D01*
X152984176Y-95644063D01*
X153002561Y-95680832D01*
X153002561Y-95772756D01*
X152984176Y-95809526D01*
X152965792Y-95827910D01*
X152929022Y-95846295D01*
X152837098Y-95846295D01*
X152800329Y-95827910D01*
X152781944Y-95809526D01*
D18*
X139399915Y-103342876D02*
X139013835Y-103342876D01*
X139363146Y-102938411D02*
X139381530Y-102956796D01*
X139399915Y-103011950D01*
X139399915Y-103048720D01*
X139381530Y-103103874D01*
X139344761Y-103140643D01*
X139307991Y-103159028D01*
X139234452Y-103177413D01*
X139179298Y-103177413D01*
X139105759Y-103159028D01*
X139068990Y-103140643D01*
X139032220Y-103103874D01*
X139013835Y-103048720D01*
X139013835Y-103011950D01*
X139032220Y-102956796D01*
X139050605Y-102938411D01*
X139013835Y-102809718D02*
X139013835Y-102552331D01*
X139399915Y-102717794D01*
D20*
X135977026Y-99809834D02*
X135995410Y-99828219D01*
X136013795Y-99883373D01*
X136013795Y-99920143D01*
X135995410Y-99975297D01*
X135958641Y-100012066D01*
X135921871Y-100030451D01*
X135848332Y-100048836D01*
X135793178Y-100048836D01*
X135719639Y-100030451D01*
X135682870Y-100012066D01*
X135646100Y-99975297D01*
X135627715Y-99920143D01*
X135627715Y-99883373D01*
X135646100Y-99828219D01*
X135664485Y-99809834D01*
X135627715Y-99478908D02*
X135627715Y-99552447D01*
X135646100Y-99589217D01*
X135664485Y-99607602D01*
X135719639Y-99644371D01*
X135793178Y-99662756D01*
X135940256Y-99662756D01*
X135977026Y-99644371D01*
X135995410Y-99625986D01*
X136013795Y-99589217D01*
X136013795Y-99515678D01*
X135995410Y-99478908D01*
X135977026Y-99460524D01*
X135940256Y-99442139D01*
X135848332Y-99442139D01*
X135811563Y-99460524D01*
X135793178Y-99478908D01*
X135774793Y-99515678D01*
X135774793Y-99589217D01*
X135793178Y-99625986D01*
X135811563Y-99644371D01*
X135848332Y-99662756D01*
X147148641Y-101683446D02*
X147130256Y-101701830D01*
X147075102Y-101720215D01*
X147038332Y-101720215D01*
X146983178Y-101701830D01*
X146946409Y-101665061D01*
X146928024Y-101628291D01*
X146909639Y-101554752D01*
X146909639Y-101499598D01*
X146928024Y-101426059D01*
X146946409Y-101389290D01*
X146983178Y-101352520D01*
X147038332Y-101334135D01*
X147075102Y-101334135D01*
X147130256Y-101352520D01*
X147148641Y-101370905D01*
X147277334Y-101334135D02*
X147534721Y-101334135D01*
X147369258Y-101720215D01*
X141394866Y-102889526D02*
X141376481Y-102907910D01*
X141321327Y-102926295D01*
X141284557Y-102926295D01*
X141229403Y-102907910D01*
X141192634Y-102871141D01*
X141174249Y-102834371D01*
X141155864Y-102760832D01*
X141155864Y-102705678D01*
X141174249Y-102632139D01*
X141192634Y-102595370D01*
X141229403Y-102558600D01*
X141284557Y-102540215D01*
X141321327Y-102540215D01*
X141376481Y-102558600D01*
X141394866Y-102576985D01*
X141615483Y-102705678D02*
X141578714Y-102687293D01*
X141560329Y-102668909D01*
X141541944Y-102632139D01*
X141541944Y-102613754D01*
X141560329Y-102576985D01*
X141578714Y-102558600D01*
X141615483Y-102540215D01*
X141689022Y-102540215D01*
X141725792Y-102558600D01*
X141744176Y-102576985D01*
X141762561Y-102613754D01*
X141762561Y-102632139D01*
X141744176Y-102668909D01*
X141725792Y-102687293D01*
X141689022Y-102705678D01*
X141615483Y-102705678D01*
X141578714Y-102724063D01*
X141560329Y-102742448D01*
X141541944Y-102779217D01*
X141541944Y-102852756D01*
X141560329Y-102889526D01*
X141578714Y-102907910D01*
X141615483Y-102926295D01*
X141689022Y-102926295D01*
X141725792Y-102907910D01*
X141744176Y-102889526D01*
X141762561Y-102852756D01*
X141762561Y-102779217D01*
X141744176Y-102742448D01*
X141725792Y-102724063D01*
X141689022Y-102705678D01*
D18*
X156489424Y-101169215D02*
X156489424Y-100783135D01*
X156893889Y-101132446D02*
X156875504Y-101150830D01*
X156820350Y-101169215D01*
X156783580Y-101169215D01*
X156728426Y-101150830D01*
X156691657Y-101114061D01*
X156673272Y-101077291D01*
X156654887Y-101003752D01*
X156654887Y-100948598D01*
X156673272Y-100875059D01*
X156691657Y-100838290D01*
X156728426Y-100801520D01*
X156783580Y-100783135D01*
X156820350Y-100783135D01*
X156875504Y-100801520D01*
X156893889Y-100819905D01*
X157114506Y-100948598D02*
X157077737Y-100930213D01*
X157059352Y-100911829D01*
X157040967Y-100875059D01*
X157040967Y-100856674D01*
X157059352Y-100819905D01*
X157077737Y-100801520D01*
X157114506Y-100783135D01*
X157188045Y-100783135D01*
X157224815Y-100801520D01*
X157243199Y-100819905D01*
X157261584Y-100856674D01*
X157261584Y-100875059D01*
X157243199Y-100911829D01*
X157224815Y-100930213D01*
X157188045Y-100948598D01*
X157114506Y-100948598D01*
X157077737Y-100966983D01*
X157059352Y-100985368D01*
X157040967Y-101022137D01*
X157040967Y-101095676D01*
X157059352Y-101132446D01*
X157077737Y-101150830D01*
X157114506Y-101169215D01*
X157188045Y-101169215D01*
X157224815Y-101150830D01*
X157243199Y-101132446D01*
X157261584Y-101095676D01*
X157261584Y-101022137D01*
X157243199Y-100985368D01*
X157224815Y-100966983D01*
X157188045Y-100948598D01*
D19*
X158228719Y-101142848D02*
X158228719Y-101430110D01*
X157941457Y-101315205D02*
X158228719Y-101430110D01*
X158515981Y-101315205D01*
X158056362Y-101659919D02*
X158228719Y-101430110D01*
X158401076Y-101659919D01*
D20*
X164994866Y-104566295D02*
X164866173Y-104382448D01*
X164774249Y-104566295D02*
X164774249Y-104180215D01*
X164921327Y-104180215D01*
X164958096Y-104198600D01*
X164976481Y-104216985D01*
X164994866Y-104253754D01*
X164994866Y-104308909D01*
X164976481Y-104345678D01*
X164958096Y-104364063D01*
X164921327Y-104382448D01*
X164774249Y-104382448D01*
X165123559Y-104180215D02*
X165362561Y-104180215D01*
X165233868Y-104327293D01*
X165289022Y-104327293D01*
X165325792Y-104345678D01*
X165344176Y-104364063D01*
X165362561Y-104400832D01*
X165362561Y-104492756D01*
X165344176Y-104529526D01*
X165325792Y-104547910D01*
X165289022Y-104566295D01*
X165178714Y-104566295D01*
X165141944Y-104547910D01*
X165123559Y-104529526D01*
D18*
X151133565Y-106923450D02*
X151115180Y-106960219D01*
X151078410Y-106996989D01*
X151023256Y-107052143D01*
X151004871Y-107088912D01*
X151004871Y-107125682D01*
X151096795Y-107107297D02*
X151078410Y-107144067D01*
X151041641Y-107180836D01*
X150968102Y-107199221D01*
X150839409Y-107199221D01*
X150765870Y-107180836D01*
X150729100Y-107144067D01*
X150710715Y-107107297D01*
X150710715Y-107033758D01*
X150729100Y-106996989D01*
X150765870Y-106960219D01*
X150839409Y-106941834D01*
X150968102Y-106941834D01*
X151041641Y-106960219D01*
X151078410Y-106996989D01*
X151096795Y-107033758D01*
X151096795Y-107107297D01*
X151096795Y-106574139D02*
X151096795Y-106794756D01*
X151096795Y-106684447D02*
X150710715Y-106684447D01*
X150765870Y-106721217D01*
X150802639Y-106757986D01*
X150821024Y-106794756D01*
D20*
X156590946Y-101056059D02*
X156609330Y-101074444D01*
X156627715Y-101129598D01*
X156627715Y-101166368D01*
X156609330Y-101221522D01*
X156572561Y-101258291D01*
X156535791Y-101276676D01*
X156462252Y-101295061D01*
X156407098Y-101295061D01*
X156333559Y-101276676D01*
X156296790Y-101258291D01*
X156260020Y-101221522D01*
X156241635Y-101166368D01*
X156241635Y-101129598D01*
X156260020Y-101074444D01*
X156278405Y-101056059D01*
X156627715Y-100872211D02*
X156627715Y-100798672D01*
X156609330Y-100761903D01*
X156590946Y-100743518D01*
X156535791Y-100706749D01*
X156462252Y-100688364D01*
X156315174Y-100688364D01*
X156278405Y-100706749D01*
X156260020Y-100725133D01*
X156241635Y-100761903D01*
X156241635Y-100835442D01*
X156260020Y-100872211D01*
X156278405Y-100890596D01*
X156315174Y-100908981D01*
X156407098Y-100908981D01*
X156443868Y-100890596D01*
X156462252Y-100872211D01*
X156480637Y-100835442D01*
X156480637Y-100761903D01*
X156462252Y-100725133D01*
X156443868Y-100706749D01*
X156407098Y-100688364D01*
X155707026Y-106897529D02*
X155725410Y-106915914D01*
X155743795Y-106971068D01*
X155743795Y-107007838D01*
X155725410Y-107062992D01*
X155688641Y-107099761D01*
X155651871Y-107118146D01*
X155578332Y-107136531D01*
X155523178Y-107136531D01*
X155449639Y-107118146D01*
X155412870Y-107099761D01*
X155376100Y-107062992D01*
X155357715Y-107007838D01*
X155357715Y-106971068D01*
X155376100Y-106915914D01*
X155394485Y-106897529D01*
X155743795Y-106529834D02*
X155743795Y-106750451D01*
X155743795Y-106640142D02*
X155357715Y-106640142D01*
X155412870Y-106676912D01*
X155449639Y-106713681D01*
X155468024Y-106750451D01*
X155357715Y-106290832D02*
X155357715Y-106254063D01*
X155376100Y-106217293D01*
X155394485Y-106198908D01*
X155431254Y-106180524D01*
X155504793Y-106162139D01*
X155596717Y-106162139D01*
X155670256Y-106180524D01*
X155707026Y-106198908D01*
X155725410Y-106217293D01*
X155743795Y-106254063D01*
X155743795Y-106290832D01*
X155725410Y-106327602D01*
X155707026Y-106345986D01*
X155670256Y-106364371D01*
X155596717Y-106382756D01*
X155504793Y-106382756D01*
X155431254Y-106364371D01*
X155394485Y-106345986D01*
X155376100Y-106327602D01*
X155357715Y-106290832D01*
X153117171Y-97949526D02*
X153098786Y-97967910D01*
X153043632Y-97986295D01*
X153006862Y-97986295D01*
X152951708Y-97967910D01*
X152914939Y-97931141D01*
X152896554Y-97894371D01*
X152878169Y-97820832D01*
X152878169Y-97765678D01*
X152896554Y-97692139D01*
X152914939Y-97655370D01*
X152951708Y-97618600D01*
X153006862Y-97600215D01*
X153043632Y-97600215D01*
X153098786Y-97618600D01*
X153117171Y-97636985D01*
X153484866Y-97986295D02*
X153264249Y-97986295D01*
X153374558Y-97986295D02*
X153374558Y-97600215D01*
X153337788Y-97655370D01*
X153301019Y-97692139D01*
X153264249Y-97710524D01*
X153852561Y-97986295D02*
X153631944Y-97986295D01*
X153742253Y-97986295D02*
X153742253Y-97600215D01*
X153705483Y-97655370D01*
X153668714Y-97692139D01*
X153631944Y-97710524D01*
D18*
X123845401Y-87973295D02*
X123845401Y-87587215D01*
X124249866Y-87936526D02*
X124231481Y-87954910D01*
X124176327Y-87973295D01*
X124139557Y-87973295D01*
X124084403Y-87954910D01*
X124047634Y-87918141D01*
X124029249Y-87881371D01*
X124010864Y-87807832D01*
X124010864Y-87752678D01*
X124029249Y-87679139D01*
X124047634Y-87642370D01*
X124084403Y-87605600D01*
X124139557Y-87587215D01*
X124176327Y-87587215D01*
X124231481Y-87605600D01*
X124249866Y-87623985D01*
X124396944Y-87623985D02*
X124415329Y-87605600D01*
X124452098Y-87587215D01*
X124544022Y-87587215D01*
X124580792Y-87605600D01*
X124599176Y-87623985D01*
X124617561Y-87660754D01*
X124617561Y-87697524D01*
X124599176Y-87752678D01*
X124378559Y-87973295D01*
X124617561Y-87973295D01*
D20*
X131495946Y-97281059D02*
X131514330Y-97299444D01*
X131532715Y-97354598D01*
X131532715Y-97391368D01*
X131514330Y-97446522D01*
X131477561Y-97483291D01*
X131440791Y-97501676D01*
X131367252Y-97520061D01*
X131312098Y-97520061D01*
X131238559Y-97501676D01*
X131201790Y-97483291D01*
X131165020Y-97446522D01*
X131146635Y-97391368D01*
X131146635Y-97354598D01*
X131165020Y-97299444D01*
X131183405Y-97281059D01*
X131532715Y-96913364D02*
X131532715Y-97133981D01*
X131532715Y-97023672D02*
X131146635Y-97023672D01*
X131201790Y-97060442D01*
X131238559Y-97097211D01*
X131256944Y-97133981D01*
X131183405Y-96766286D02*
X131165020Y-96747901D01*
X131146635Y-96711132D01*
X131146635Y-96619208D01*
X131165020Y-96582438D01*
X131183405Y-96564054D01*
X131220174Y-96545669D01*
X131256944Y-96545669D01*
X131312098Y-96564054D01*
X131532715Y-96784671D01*
X131532715Y-96545669D01*
X127703641Y-99738446D02*
X127685256Y-99756830D01*
X127630102Y-99775215D01*
X127593332Y-99775215D01*
X127538178Y-99756830D01*
X127501409Y-99720061D01*
X127483024Y-99683291D01*
X127464639Y-99609752D01*
X127464639Y-99554598D01*
X127483024Y-99481059D01*
X127501409Y-99444290D01*
X127538178Y-99407520D01*
X127593332Y-99389135D01*
X127630102Y-99389135D01*
X127685256Y-99407520D01*
X127703641Y-99425905D01*
X128071336Y-99775215D02*
X127850719Y-99775215D01*
X127961028Y-99775215D02*
X127961028Y-99389135D01*
X127924258Y-99444290D01*
X127887489Y-99481059D01*
X127850719Y-99499444D01*
X128200029Y-99389135D02*
X128439031Y-99389135D01*
X128310338Y-99536213D01*
X128365492Y-99536213D01*
X128402262Y-99554598D01*
X128420646Y-99572983D01*
X128439031Y-99609752D01*
X128439031Y-99701676D01*
X128420646Y-99738446D01*
X128402262Y-99756830D01*
X128365492Y-99775215D01*
X128255184Y-99775215D01*
X128218414Y-99756830D01*
X128200029Y-99738446D01*
X136230946Y-94176059D02*
X136249330Y-94194444D01*
X136267715Y-94249598D01*
X136267715Y-94286368D01*
X136249330Y-94341522D01*
X136212561Y-94378291D01*
X136175791Y-94396676D01*
X136102252Y-94415061D01*
X136047098Y-94415061D01*
X135973559Y-94396676D01*
X135936790Y-94378291D01*
X135900020Y-94341522D01*
X135881635Y-94286368D01*
X135881635Y-94249598D01*
X135900020Y-94194444D01*
X135918405Y-94176059D01*
X136267715Y-93808364D02*
X136267715Y-94028981D01*
X136267715Y-93918672D02*
X135881635Y-93918672D01*
X135936790Y-93955442D01*
X135973559Y-93992211D01*
X135991944Y-94028981D01*
X136010329Y-93477438D02*
X136267715Y-93477438D01*
X135863250Y-93569362D02*
X136139022Y-93661286D01*
X136139022Y-93422284D01*
X133058641Y-90400215D02*
X132929948Y-90216368D01*
X132838024Y-90400215D02*
X132838024Y-90014135D01*
X132985102Y-90014135D01*
X133021871Y-90032520D01*
X133040256Y-90050905D01*
X133058641Y-90087674D01*
X133058641Y-90142829D01*
X133040256Y-90179598D01*
X133021871Y-90197983D01*
X132985102Y-90216368D01*
X132838024Y-90216368D01*
X133389567Y-90014135D02*
X133316028Y-90014135D01*
X133279258Y-90032520D01*
X133260873Y-90050905D01*
X133224104Y-90106059D01*
X133205719Y-90179598D01*
X133205719Y-90326676D01*
X133224104Y-90363446D01*
X133242489Y-90381830D01*
X133279258Y-90400215D01*
X133352797Y-90400215D01*
X133389567Y-90381830D01*
X133407951Y-90363446D01*
X133426336Y-90326676D01*
X133426336Y-90234752D01*
X133407951Y-90197983D01*
X133389567Y-90179598D01*
X133352797Y-90161213D01*
X133279258Y-90161213D01*
X133242489Y-90179598D01*
X133224104Y-90197983D01*
X133205719Y-90234752D01*
D18*
X147894715Y-111806676D02*
X147508635Y-111806676D01*
X147857946Y-111402211D02*
X147876330Y-111420596D01*
X147894715Y-111475750D01*
X147894715Y-111512520D01*
X147876330Y-111567674D01*
X147839561Y-111604443D01*
X147802791Y-111622828D01*
X147729252Y-111641213D01*
X147674098Y-111641213D01*
X147600559Y-111622828D01*
X147563790Y-111604443D01*
X147527020Y-111567674D01*
X147508635Y-111512520D01*
X147508635Y-111475750D01*
X147527020Y-111420596D01*
X147545405Y-111402211D01*
X147637329Y-111071285D02*
X147894715Y-111071285D01*
X147490250Y-111163209D02*
X147766022Y-111255133D01*
X147766022Y-111016131D01*
D20*
X141637171Y-113769526D02*
X141618786Y-113787910D01*
X141563632Y-113806295D01*
X141526862Y-113806295D01*
X141471708Y-113787910D01*
X141434939Y-113751141D01*
X141416554Y-113714371D01*
X141398169Y-113640832D01*
X141398169Y-113585678D01*
X141416554Y-113512139D01*
X141434939Y-113475370D01*
X141471708Y-113438600D01*
X141526862Y-113420215D01*
X141563632Y-113420215D01*
X141618786Y-113438600D01*
X141637171Y-113456985D01*
X142004866Y-113806295D02*
X141784249Y-113806295D01*
X141894558Y-113806295D02*
X141894558Y-113420215D01*
X141857788Y-113475370D01*
X141821019Y-113512139D01*
X141784249Y-113530524D01*
X142354176Y-113420215D02*
X142170329Y-113420215D01*
X142151944Y-113604063D01*
X142170329Y-113585678D01*
X142207098Y-113567293D01*
X142299022Y-113567293D01*
X142335792Y-113585678D01*
X142354176Y-113604063D01*
X142372561Y-113640832D01*
X142372561Y-113732756D01*
X142354176Y-113769526D01*
X142335792Y-113787910D01*
X142299022Y-113806295D01*
X142207098Y-113806295D01*
X142170329Y-113787910D01*
X142151944Y-113769526D01*
X136397026Y-104827529D02*
X136415410Y-104845914D01*
X136433795Y-104901068D01*
X136433795Y-104937838D01*
X136415410Y-104992992D01*
X136378641Y-105029761D01*
X136341871Y-105048146D01*
X136268332Y-105066531D01*
X136213178Y-105066531D01*
X136139639Y-105048146D01*
X136102870Y-105029761D01*
X136066100Y-104992992D01*
X136047715Y-104937838D01*
X136047715Y-104901068D01*
X136066100Y-104845914D01*
X136084485Y-104827529D01*
X136433795Y-104459834D02*
X136433795Y-104680451D01*
X136433795Y-104570142D02*
X136047715Y-104570142D01*
X136102870Y-104606912D01*
X136139639Y-104643681D01*
X136158024Y-104680451D01*
X136047715Y-104128908D02*
X136047715Y-104202447D01*
X136066100Y-104239217D01*
X136084485Y-104257602D01*
X136139639Y-104294371D01*
X136213178Y-104312756D01*
X136360256Y-104312756D01*
X136397026Y-104294371D01*
X136415410Y-104275986D01*
X136433795Y-104239217D01*
X136433795Y-104165678D01*
X136415410Y-104128908D01*
X136397026Y-104110524D01*
X136360256Y-104092139D01*
X136268332Y-104092139D01*
X136231563Y-104110524D01*
X136213178Y-104128908D01*
X136194793Y-104165678D01*
X136194793Y-104239217D01*
X136213178Y-104275986D01*
X136231563Y-104294371D01*
X136268332Y-104312756D01*
X150338641Y-113210215D02*
X150209948Y-113026368D01*
X150118024Y-113210215D02*
X150118024Y-112824135D01*
X150265102Y-112824135D01*
X150301871Y-112842520D01*
X150320256Y-112860905D01*
X150338641Y-112897674D01*
X150338641Y-112952829D01*
X150320256Y-112989598D01*
X150301871Y-113007983D01*
X150265102Y-113026368D01*
X150118024Y-113026368D01*
X150467334Y-112824135D02*
X150724721Y-112824135D01*
X150559258Y-113210215D01*
D21*
X156202026Y-129688674D02*
X156284757Y-129716251D01*
X156312334Y-129743829D01*
X156339911Y-129798983D01*
X156339911Y-129881714D01*
X156312334Y-129936869D01*
X156284757Y-129964446D01*
X156229603Y-129992023D01*
X156008986Y-129992023D01*
X156008986Y-129412903D01*
X156202026Y-129412903D01*
X156257180Y-129440480D01*
X156284757Y-129468057D01*
X156312334Y-129523211D01*
X156312334Y-129578366D01*
X156284757Y-129633520D01*
X156257180Y-129661097D01*
X156202026Y-129688674D01*
X156008986Y-129688674D01*
X156891454Y-129992023D02*
X156560529Y-129992023D01*
X156725991Y-129992023D02*
X156725991Y-129412903D01*
X156670837Y-129495634D01*
X156615683Y-129550789D01*
X156560529Y-129578366D01*
D22*
X155254243Y-123544743D02*
X155471957Y-123617314D01*
X155544529Y-123689886D01*
X155617100Y-123835029D01*
X155617100Y-124052743D01*
X155544529Y-124197886D01*
X155471957Y-124270457D01*
X155326815Y-124343029D01*
X154746243Y-124343029D01*
X154746243Y-122819029D01*
X155254243Y-122819029D01*
X155399386Y-122891600D01*
X155471957Y-122964171D01*
X155544529Y-123109314D01*
X155544529Y-123254457D01*
X155471957Y-123399600D01*
X155399386Y-123472171D01*
X155254243Y-123544743D01*
X154746243Y-123544743D01*
X157068529Y-124343029D02*
X156197672Y-124343029D01*
X156633100Y-124343029D02*
X156633100Y-122819029D01*
X156487957Y-123036743D01*
X156342815Y-123181886D01*
X156197672Y-123254457D01*
D21*
X143452026Y-129688674D02*
X143534757Y-129716251D01*
X143562334Y-129743829D01*
X143589911Y-129798983D01*
X143589911Y-129881714D01*
X143562334Y-129936869D01*
X143534757Y-129964446D01*
X143479603Y-129992023D01*
X143258986Y-129992023D01*
X143258986Y-129412903D01*
X143452026Y-129412903D01*
X143507180Y-129440480D01*
X143534757Y-129468057D01*
X143562334Y-129523211D01*
X143562334Y-129578366D01*
X143534757Y-129633520D01*
X143507180Y-129661097D01*
X143452026Y-129688674D01*
X143258986Y-129688674D01*
X143810529Y-129468057D02*
X143838106Y-129440480D01*
X143893260Y-129412903D01*
X144031146Y-129412903D01*
X144086300Y-129440480D01*
X144113877Y-129468057D01*
X144141454Y-129523211D01*
X144141454Y-129578366D01*
X144113877Y-129661097D01*
X143782951Y-129992023D01*
X144141454Y-129992023D01*
D22*
X142504243Y-123544743D02*
X142721957Y-123617314D01*
X142794529Y-123689886D01*
X142867100Y-123835029D01*
X142867100Y-124052743D01*
X142794529Y-124197886D01*
X142721957Y-124270457D01*
X142576815Y-124343029D01*
X141996243Y-124343029D01*
X141996243Y-122819029D01*
X142504243Y-122819029D01*
X142649386Y-122891600D01*
X142721957Y-122964171D01*
X142794529Y-123109314D01*
X142794529Y-123254457D01*
X142721957Y-123399600D01*
X142649386Y-123472171D01*
X142504243Y-123544743D01*
X141996243Y-123544743D01*
X143447672Y-122964171D02*
X143520243Y-122891600D01*
X143665386Y-122819029D01*
X144028243Y-122819029D01*
X144173386Y-122891600D01*
X144245957Y-122964171D01*
X144318529Y-123109314D01*
X144318529Y-123254457D01*
X144245957Y-123472171D01*
X143375100Y-124343029D01*
X144318529Y-124343029D01*
D21*
X130232026Y-129688674D02*
X130314757Y-129716251D01*
X130342334Y-129743829D01*
X130369911Y-129798983D01*
X130369911Y-129881714D01*
X130342334Y-129936869D01*
X130314757Y-129964446D01*
X130259603Y-129992023D01*
X130038986Y-129992023D01*
X130038986Y-129412903D01*
X130232026Y-129412903D01*
X130287180Y-129440480D01*
X130314757Y-129468057D01*
X130342334Y-129523211D01*
X130342334Y-129578366D01*
X130314757Y-129633520D01*
X130287180Y-129661097D01*
X130232026Y-129688674D01*
X130038986Y-129688674D01*
X130562951Y-129412903D02*
X130921454Y-129412903D01*
X130728414Y-129633520D01*
X130811146Y-129633520D01*
X130866300Y-129661097D01*
X130893877Y-129688674D01*
X130921454Y-129743829D01*
X130921454Y-129881714D01*
X130893877Y-129936869D01*
X130866300Y-129964446D01*
X130811146Y-129992023D01*
X130645683Y-129992023D01*
X130590529Y-129964446D01*
X130562951Y-129936869D01*
D22*
X129284243Y-123544743D02*
X129501957Y-123617314D01*
X129574529Y-123689886D01*
X129647100Y-123835029D01*
X129647100Y-124052743D01*
X129574529Y-124197886D01*
X129501957Y-124270457D01*
X129356815Y-124343029D01*
X128776243Y-124343029D01*
X128776243Y-122819029D01*
X129284243Y-122819029D01*
X129429386Y-122891600D01*
X129501957Y-122964171D01*
X129574529Y-123109314D01*
X129574529Y-123254457D01*
X129501957Y-123399600D01*
X129429386Y-123472171D01*
X129284243Y-123544743D01*
X128776243Y-123544743D01*
X130155100Y-122819029D02*
X131098529Y-122819029D01*
X130590529Y-123399600D01*
X130808243Y-123399600D01*
X130953386Y-123472171D01*
X131025957Y-123544743D01*
X131098529Y-123689886D01*
X131098529Y-124052743D01*
X131025957Y-124197886D01*
X130953386Y-124270457D01*
X130808243Y-124343029D01*
X130372815Y-124343029D01*
X130227672Y-124270457D01*
X130155100Y-124197886D01*
D20*
X166542024Y-109446215D02*
X166542024Y-109060135D01*
X166946489Y-109409446D02*
X166928104Y-109427830D01*
X166872950Y-109446215D01*
X166836180Y-109446215D01*
X166781026Y-109427830D01*
X166744257Y-109391061D01*
X166725872Y-109354291D01*
X166707487Y-109280752D01*
X166707487Y-109225598D01*
X166725872Y-109152059D01*
X166744257Y-109115290D01*
X166781026Y-109078520D01*
X166836180Y-109060135D01*
X166872950Y-109060135D01*
X166928104Y-109078520D01*
X166946489Y-109096905D01*
X167314184Y-109446215D02*
X167093567Y-109446215D01*
X167203876Y-109446215D02*
X167203876Y-109060135D01*
X167167106Y-109115290D01*
X167130337Y-109152059D01*
X167093567Y-109170444D01*
X167553186Y-109060135D02*
X167589955Y-109060135D01*
X167626725Y-109078520D01*
X167645110Y-109096905D01*
X167663494Y-109133674D01*
X167681879Y-109207213D01*
X167681879Y-109299137D01*
X167663494Y-109372676D01*
X167645110Y-109409446D01*
X167626725Y-109427830D01*
X167589955Y-109446215D01*
X167553186Y-109446215D01*
X167516416Y-109427830D01*
X167498032Y-109409446D01*
X167479647Y-109372676D01*
X167461262Y-109299137D01*
X167461262Y-109207213D01*
X167479647Y-109133674D01*
X167498032Y-109096905D01*
X167516416Y-109078520D01*
X167553186Y-109060135D01*
X164082215Y-111460193D02*
X164082215Y-111386654D01*
X164100600Y-111349885D01*
X164137370Y-111313115D01*
X164210909Y-111294730D01*
X164339602Y-111294730D01*
X164413141Y-111313115D01*
X164449910Y-111349885D01*
X164468295Y-111386654D01*
X164468295Y-111460193D01*
X164449910Y-111496963D01*
X164413141Y-111533732D01*
X164339602Y-111552117D01*
X164210909Y-111552117D01*
X164137370Y-111533732D01*
X164100600Y-111496963D01*
X164082215Y-111460193D01*
X164468295Y-111129267D02*
X164082215Y-111129267D01*
X164082215Y-110982189D01*
X164100600Y-110945420D01*
X164118985Y-110927035D01*
X164155754Y-110908650D01*
X164210909Y-110908650D01*
X164247678Y-110927035D01*
X164266063Y-110945420D01*
X164284448Y-110982189D01*
X164284448Y-111129267D01*
X164357987Y-110761572D02*
X164357987Y-110577724D01*
X164468295Y-110798341D02*
X164082215Y-110669648D01*
X164468295Y-110540955D01*
X164082215Y-110449031D02*
X164082215Y-110210029D01*
X164229293Y-110338722D01*
X164229293Y-110283568D01*
X164247678Y-110246798D01*
X164266063Y-110228414D01*
X164302832Y-110210029D01*
X164394756Y-110210029D01*
X164431526Y-110228414D01*
X164449910Y-110246798D01*
X164468295Y-110283568D01*
X164468295Y-110393876D01*
X164449910Y-110430646D01*
X164431526Y-110449031D01*
X164210909Y-109879103D02*
X164468295Y-109879103D01*
X164063830Y-109971027D02*
X164339602Y-110062951D01*
X164339602Y-109823949D01*
X164210909Y-109511408D02*
X164468295Y-109511408D01*
X164063830Y-109603332D02*
X164339602Y-109695256D01*
X164339602Y-109456254D01*
X161403795Y-115879834D02*
X161219948Y-116008527D01*
X161403795Y-116100451D02*
X161017715Y-116100451D01*
X161017715Y-115953373D01*
X161036100Y-115916604D01*
X161054485Y-115898219D01*
X161091254Y-115879834D01*
X161146409Y-115879834D01*
X161183178Y-115898219D01*
X161201563Y-115916604D01*
X161219948Y-115953373D01*
X161219948Y-116100451D01*
X161403795Y-115512139D02*
X161403795Y-115732756D01*
X161403795Y-115622447D02*
X161017715Y-115622447D01*
X161072870Y-115659217D01*
X161109639Y-115695986D01*
X161128024Y-115732756D01*
X160208786Y-113266295D02*
X159988169Y-113266295D01*
X160098478Y-113266295D02*
X160098478Y-112880215D01*
X160061708Y-112935370D01*
X160024939Y-112972139D01*
X159988169Y-112990524D01*
X160447788Y-112880215D02*
X160484557Y-112880215D01*
X160521327Y-112898600D01*
X160539712Y-112916985D01*
X160558096Y-112953754D01*
X160576481Y-113027293D01*
X160576481Y-113119217D01*
X160558096Y-113192756D01*
X160539712Y-113229526D01*
X160521327Y-113247910D01*
X160484557Y-113266295D01*
X160447788Y-113266295D01*
X160411018Y-113247910D01*
X160392634Y-113229526D01*
X160374249Y-113192756D01*
X160355864Y-113119217D01*
X160355864Y-113027293D01*
X160374249Y-112953754D01*
X160392634Y-112916985D01*
X160411018Y-112898600D01*
X160447788Y-112880215D01*
X160741944Y-113266295D02*
X160741944Y-112880215D01*
X160962561Y-113266295D02*
X160797098Y-113045678D01*
X160962561Y-112880215D02*
X160741944Y-113100832D01*
X162754866Y-116376295D02*
X162626173Y-116192448D01*
X162534249Y-116376295D02*
X162534249Y-115990215D01*
X162681327Y-115990215D01*
X162718096Y-116008600D01*
X162736481Y-116026985D01*
X162754866Y-116063754D01*
X162754866Y-116118909D01*
X162736481Y-116155678D01*
X162718096Y-116174063D01*
X162681327Y-116192448D01*
X162534249Y-116192448D01*
X162901944Y-116026985D02*
X162920329Y-116008600D01*
X162957098Y-115990215D01*
X163049022Y-115990215D01*
X163085792Y-116008600D01*
X163104176Y-116026985D01*
X163122561Y-116063754D01*
X163122561Y-116100524D01*
X163104176Y-116155678D01*
X162883559Y-116376295D01*
X163122561Y-116376295D01*
X165717715Y-115714444D02*
X165717715Y-115935061D01*
X165717715Y-115824752D02*
X165331635Y-115824752D01*
X165386790Y-115861522D01*
X165423559Y-115898291D01*
X165441944Y-115935061D01*
X165331635Y-115475442D02*
X165331635Y-115438673D01*
X165350020Y-115401903D01*
X165368405Y-115383518D01*
X165405174Y-115365134D01*
X165478713Y-115346749D01*
X165570637Y-115346749D01*
X165644176Y-115365134D01*
X165680946Y-115383518D01*
X165699330Y-115401903D01*
X165717715Y-115438673D01*
X165717715Y-115475442D01*
X165699330Y-115512212D01*
X165680946Y-115530596D01*
X165644176Y-115548981D01*
X165570637Y-115567366D01*
X165478713Y-115567366D01*
X165405174Y-115548981D01*
X165368405Y-115530596D01*
X165350020Y-115512212D01*
X165331635Y-115475442D01*
X165717715Y-115181286D02*
X165331635Y-115181286D01*
X165717715Y-114960669D02*
X165497098Y-115126132D01*
X165331635Y-114960669D02*
X165552252Y-115181286D01*
X169608641Y-114670215D02*
X169479948Y-114486368D01*
X169388024Y-114670215D02*
X169388024Y-114284135D01*
X169535102Y-114284135D01*
X169571871Y-114302520D01*
X169590256Y-114320905D01*
X169608641Y-114357674D01*
X169608641Y-114412829D01*
X169590256Y-114449598D01*
X169571871Y-114467983D01*
X169535102Y-114486368D01*
X169388024Y-114486368D01*
X169939567Y-114412829D02*
X169939567Y-114670215D01*
X169847643Y-114265750D02*
X169755719Y-114541522D01*
X169994721Y-114541522D01*
X167123795Y-115515914D02*
X167123795Y-115736531D01*
X167123795Y-115626222D02*
X166737715Y-115626222D01*
X166792870Y-115662992D01*
X166829639Y-115699761D01*
X166848024Y-115736531D01*
X166737715Y-115276912D02*
X166737715Y-115240143D01*
X166756100Y-115203373D01*
X166774485Y-115184988D01*
X166811254Y-115166604D01*
X166884793Y-115148219D01*
X166976717Y-115148219D01*
X167050256Y-115166604D01*
X167087026Y-115184988D01*
X167105410Y-115203373D01*
X167123795Y-115240143D01*
X167123795Y-115276912D01*
X167105410Y-115313682D01*
X167087026Y-115332066D01*
X167050256Y-115350451D01*
X166976717Y-115368836D01*
X166884793Y-115368836D01*
X166811254Y-115350451D01*
X166774485Y-115332066D01*
X166756100Y-115313682D01*
X166737715Y-115276912D01*
X167123795Y-114982756D02*
X166737715Y-114982756D01*
X167123795Y-114762139D02*
X166903178Y-114927602D01*
X166737715Y-114762139D02*
X166958332Y-114982756D01*
X171387715Y-109316059D02*
X171203868Y-109444752D01*
X171387715Y-109536676D02*
X171001635Y-109536676D01*
X171001635Y-109389598D01*
X171020020Y-109352829D01*
X171038405Y-109334444D01*
X171075174Y-109316059D01*
X171130329Y-109316059D01*
X171167098Y-109334444D01*
X171185483Y-109352829D01*
X171203868Y-109389598D01*
X171203868Y-109536676D01*
X171001635Y-108966749D02*
X171001635Y-109150596D01*
X171185483Y-109168981D01*
X171167098Y-109150596D01*
X171148713Y-109113827D01*
X171148713Y-109021903D01*
X171167098Y-108985133D01*
X171185483Y-108966749D01*
X171222252Y-108948364D01*
X171314176Y-108948364D01*
X171350946Y-108966749D01*
X171369330Y-108985133D01*
X171387715Y-109021903D01*
X171387715Y-109113827D01*
X171369330Y-109150596D01*
X171350946Y-109168981D01*
X169233795Y-110143373D02*
X169233795Y-110363990D01*
X169233795Y-110253681D02*
X168847715Y-110253681D01*
X168902870Y-110290451D01*
X168939639Y-110327220D01*
X168958024Y-110363990D01*
X169233795Y-109977910D02*
X168847715Y-109977910D01*
X169123487Y-109849217D01*
X168847715Y-109720524D01*
X169233795Y-109720524D01*
X166747171Y-111129526D02*
X166728786Y-111147910D01*
X166673632Y-111166295D01*
X166636862Y-111166295D01*
X166581708Y-111147910D01*
X166544939Y-111111141D01*
X166526554Y-111074371D01*
X166508169Y-111000832D01*
X166508169Y-110945678D01*
X166526554Y-110872139D01*
X166544939Y-110835370D01*
X166581708Y-110798600D01*
X166636862Y-110780215D01*
X166673632Y-110780215D01*
X166728786Y-110798600D01*
X166747171Y-110816985D01*
X167114866Y-111166295D02*
X166894249Y-111166295D01*
X167004558Y-111166295D02*
X167004558Y-110780215D01*
X166967788Y-110835370D01*
X166931019Y-110872139D01*
X166894249Y-110890524D01*
X167243559Y-110780215D02*
X167500946Y-110780215D01*
X167335483Y-111166295D01*
X170077715Y-110504444D02*
X170077715Y-110725061D01*
X170077715Y-110614752D02*
X169691635Y-110614752D01*
X169746790Y-110651522D01*
X169783559Y-110688291D01*
X169801944Y-110725061D01*
X169728405Y-110357366D02*
X169710020Y-110338981D01*
X169691635Y-110302212D01*
X169691635Y-110210288D01*
X169710020Y-110173518D01*
X169728405Y-110155134D01*
X169765174Y-110136749D01*
X169801944Y-110136749D01*
X169857098Y-110155134D01*
X170077715Y-110375751D01*
X170077715Y-110136749D01*
X169820329Y-109971286D02*
X170206409Y-109971286D01*
X169838713Y-109971286D02*
X169820329Y-109934517D01*
X169820329Y-109860978D01*
X169838713Y-109824208D01*
X169857098Y-109805823D01*
X169893868Y-109787439D01*
X170004176Y-109787439D01*
X170040946Y-109805823D01*
X170059330Y-109824208D01*
X170077715Y-109860978D01*
X170077715Y-109934517D01*
X170059330Y-109971286D01*
X169875483Y-109493283D02*
X169875483Y-109621976D01*
X170077715Y-109621976D02*
X169691635Y-109621976D01*
X169691635Y-109438129D01*
X170600946Y-118696059D02*
X170619330Y-118714444D01*
X170637715Y-118769598D01*
X170637715Y-118806368D01*
X170619330Y-118861522D01*
X170582561Y-118898291D01*
X170545791Y-118916676D01*
X170472252Y-118935061D01*
X170417098Y-118935061D01*
X170343559Y-118916676D01*
X170306790Y-118898291D01*
X170270020Y-118861522D01*
X170251635Y-118806368D01*
X170251635Y-118769598D01*
X170270020Y-118714444D01*
X170288405Y-118696059D01*
X170637715Y-118328364D02*
X170637715Y-118548981D01*
X170637715Y-118438672D02*
X170251635Y-118438672D01*
X170306790Y-118475442D01*
X170343559Y-118512211D01*
X170361944Y-118548981D01*
X170417098Y-118107747D02*
X170398713Y-118144516D01*
X170380329Y-118162901D01*
X170343559Y-118181286D01*
X170325174Y-118181286D01*
X170288405Y-118162901D01*
X170270020Y-118144516D01*
X170251635Y-118107747D01*
X170251635Y-118034208D01*
X170270020Y-117997438D01*
X170288405Y-117979054D01*
X170325174Y-117960669D01*
X170343559Y-117960669D01*
X170380329Y-117979054D01*
X170398713Y-117997438D01*
X170417098Y-118034208D01*
X170417098Y-118107747D01*
X170435483Y-118144516D01*
X170453868Y-118162901D01*
X170490637Y-118181286D01*
X170564176Y-118181286D01*
X170600946Y-118162901D01*
X170619330Y-118144516D01*
X170637715Y-118107747D01*
X170637715Y-118034208D01*
X170619330Y-117997438D01*
X170600946Y-117979054D01*
X170564176Y-117960669D01*
X170490637Y-117960669D01*
X170453868Y-117979054D01*
X170435483Y-117997438D01*
X170417098Y-118034208D01*
X166117171Y-115059526D02*
X166098786Y-115077910D01*
X166043632Y-115096295D01*
X166006862Y-115096295D01*
X165951708Y-115077910D01*
X165914939Y-115041141D01*
X165896554Y-115004371D01*
X165878169Y-114930832D01*
X165878169Y-114875678D01*
X165896554Y-114802139D01*
X165914939Y-114765370D01*
X165951708Y-114728600D01*
X166006862Y-114710215D01*
X166043632Y-114710215D01*
X166098786Y-114728600D01*
X166117171Y-114746985D01*
X166484866Y-115096295D02*
X166264249Y-115096295D01*
X166374558Y-115096295D02*
X166374558Y-114710215D01*
X166337788Y-114765370D01*
X166301019Y-114802139D01*
X166264249Y-114820524D01*
X166668714Y-115096295D02*
X166742253Y-115096295D01*
X166779022Y-115077910D01*
X166797407Y-115059526D01*
X166834176Y-115004371D01*
X166852561Y-114930832D01*
X166852561Y-114783754D01*
X166834176Y-114746985D01*
X166815792Y-114728600D01*
X166779022Y-114710215D01*
X166705483Y-114710215D01*
X166668714Y-114728600D01*
X166650329Y-114746985D01*
X166631944Y-114783754D01*
X166631944Y-114875678D01*
X166650329Y-114912448D01*
X166668714Y-114930832D01*
X166705483Y-114949217D01*
X166779022Y-114949217D01*
X166815792Y-114930832D01*
X166834176Y-114912448D01*
X166852561Y-114875678D01*
X164753795Y-116033918D02*
X164753795Y-116254535D01*
X164753795Y-116144226D02*
X164367715Y-116144226D01*
X164422870Y-116180996D01*
X164459639Y-116217765D01*
X164478024Y-116254535D01*
X164717026Y-115868455D02*
X164735410Y-115850070D01*
X164753795Y-115868455D01*
X164735410Y-115886840D01*
X164717026Y-115868455D01*
X164753795Y-115868455D01*
X164367715Y-115611068D02*
X164367715Y-115574299D01*
X164386100Y-115537529D01*
X164404485Y-115519144D01*
X164441254Y-115500760D01*
X164514793Y-115482375D01*
X164606717Y-115482375D01*
X164680256Y-115500760D01*
X164717026Y-115519144D01*
X164735410Y-115537529D01*
X164753795Y-115574299D01*
X164753795Y-115611068D01*
X164735410Y-115647838D01*
X164717026Y-115666222D01*
X164680256Y-115684607D01*
X164606717Y-115702992D01*
X164514793Y-115702992D01*
X164441254Y-115684607D01*
X164404485Y-115666222D01*
X164386100Y-115647838D01*
X164367715Y-115611068D01*
X164496409Y-115151449D02*
X164753795Y-115151449D01*
X164496409Y-115316912D02*
X164698641Y-115316912D01*
X164735410Y-115298527D01*
X164753795Y-115261758D01*
X164753795Y-115206604D01*
X164735410Y-115169834D01*
X164717026Y-115151449D01*
X164551563Y-114838909D02*
X164551563Y-114967602D01*
X164753795Y-114967602D02*
X164367715Y-114967602D01*
X164367715Y-114783755D01*
D23*
X166657262Y-126942548D02*
X166657262Y-125736048D01*
X167059429Y-126597833D01*
X167461595Y-125736048D01*
X167461595Y-126942548D01*
X168036119Y-126942548D02*
X168036119Y-125736048D01*
X169300071Y-126827643D02*
X169242619Y-126885095D01*
X169070262Y-126942548D01*
X168955357Y-126942548D01*
X168783000Y-126885095D01*
X168668095Y-126770190D01*
X168610643Y-126655286D01*
X168553191Y-126425476D01*
X168553191Y-126253119D01*
X168610643Y-126023310D01*
X168668095Y-125908405D01*
X168783000Y-125793500D01*
X168955357Y-125736048D01*
X169070262Y-125736048D01*
X169242619Y-125793500D01*
X169300071Y-125850952D01*
D20*
X160328024Y-81214215D02*
X160328024Y-80828135D01*
X160732489Y-81177446D02*
X160714104Y-81195830D01*
X160658950Y-81214215D01*
X160622180Y-81214215D01*
X160567026Y-81195830D01*
X160530257Y-81159061D01*
X160511872Y-81122291D01*
X160493487Y-81048752D01*
X160493487Y-80993598D01*
X160511872Y-80920059D01*
X160530257Y-80883290D01*
X160567026Y-80846520D01*
X160622180Y-80828135D01*
X160658950Y-80828135D01*
X160714104Y-80846520D01*
X160732489Y-80864905D01*
X161063415Y-80828135D02*
X160989876Y-80828135D01*
X160953106Y-80846520D01*
X160934721Y-80864905D01*
X160897952Y-80920059D01*
X160879567Y-80993598D01*
X160879567Y-81140676D01*
X160897952Y-81177446D01*
X160916337Y-81195830D01*
X160953106Y-81214215D01*
X161026645Y-81214215D01*
X161063415Y-81195830D01*
X161081799Y-81177446D01*
X161100184Y-81140676D01*
X161100184Y-81048752D01*
X161081799Y-81011983D01*
X161063415Y-80993598D01*
X161026645Y-80975213D01*
X160953106Y-80975213D01*
X160916337Y-80993598D01*
X160897952Y-81011983D01*
X160879567Y-81048752D01*
X164057715Y-88726059D02*
X163873868Y-88854752D01*
X164057715Y-88946676D02*
X163671635Y-88946676D01*
X163671635Y-88799598D01*
X163690020Y-88762829D01*
X163708405Y-88744444D01*
X163745174Y-88726059D01*
X163800329Y-88726059D01*
X163837098Y-88744444D01*
X163855483Y-88762829D01*
X163873868Y-88799598D01*
X163873868Y-88946676D01*
X164057715Y-88542211D02*
X164057715Y-88468672D01*
X164039330Y-88431903D01*
X164020946Y-88413518D01*
X163965791Y-88376749D01*
X163892252Y-88358364D01*
X163745174Y-88358364D01*
X163708405Y-88376749D01*
X163690020Y-88395133D01*
X163671635Y-88431903D01*
X163671635Y-88505442D01*
X163690020Y-88542211D01*
X163708405Y-88560596D01*
X163745174Y-88578981D01*
X163837098Y-88578981D01*
X163873868Y-88560596D01*
X163892252Y-88542211D01*
X163910637Y-88505442D01*
X163910637Y-88431903D01*
X163892252Y-88395133D01*
X163873868Y-88376749D01*
X163837098Y-88358364D01*
X166407171Y-84066295D02*
X166278478Y-83882448D01*
X166186554Y-84066295D02*
X166186554Y-83680215D01*
X166333632Y-83680215D01*
X166370401Y-83698600D01*
X166388786Y-83716985D01*
X166407171Y-83753754D01*
X166407171Y-83808909D01*
X166388786Y-83845678D01*
X166370401Y-83864063D01*
X166333632Y-83882448D01*
X166186554Y-83882448D01*
X166774866Y-84066295D02*
X166554249Y-84066295D01*
X166664558Y-84066295D02*
X166664558Y-83680215D01*
X166627788Y-83735370D01*
X166591019Y-83772139D01*
X166554249Y-83790524D01*
X167013868Y-83680215D02*
X167050637Y-83680215D01*
X167087407Y-83698600D01*
X167105792Y-83716985D01*
X167124176Y-83753754D01*
X167142561Y-83827293D01*
X167142561Y-83919217D01*
X167124176Y-83992756D01*
X167105792Y-84029526D01*
X167087407Y-84047910D01*
X167050637Y-84066295D01*
X167013868Y-84066295D01*
X166977098Y-84047910D01*
X166958714Y-84029526D01*
X166940329Y-83992756D01*
X166921944Y-83919217D01*
X166921944Y-83827293D01*
X166940329Y-83753754D01*
X166958714Y-83716985D01*
X166977098Y-83698600D01*
X167013868Y-83680215D01*
X137568641Y-115693446D02*
X137550256Y-115711830D01*
X137495102Y-115730215D01*
X137458332Y-115730215D01*
X137403178Y-115711830D01*
X137366409Y-115675061D01*
X137348024Y-115638291D01*
X137329639Y-115564752D01*
X137329639Y-115509598D01*
X137348024Y-115436059D01*
X137366409Y-115399290D01*
X137403178Y-115362520D01*
X137458332Y-115344135D01*
X137495102Y-115344135D01*
X137550256Y-115362520D01*
X137568641Y-115380905D01*
X137715719Y-115380905D02*
X137734104Y-115362520D01*
X137770873Y-115344135D01*
X137862797Y-115344135D01*
X137899567Y-115362520D01*
X137917951Y-115380905D01*
X137936336Y-115417674D01*
X137936336Y-115454444D01*
X137917951Y-115509598D01*
X137697334Y-115730215D01*
X137936336Y-115730215D01*
X138175338Y-115344135D02*
X138212107Y-115344135D01*
X138248877Y-115362520D01*
X138267262Y-115380905D01*
X138285646Y-115417674D01*
X138304031Y-115491213D01*
X138304031Y-115583137D01*
X138285646Y-115656676D01*
X138267262Y-115693446D01*
X138248877Y-115711830D01*
X138212107Y-115730215D01*
X138175338Y-115730215D01*
X138138568Y-115711830D01*
X138120184Y-115693446D01*
X138101799Y-115656676D01*
X138083414Y-115583137D01*
X138083414Y-115491213D01*
X138101799Y-115417674D01*
X138120184Y-115380905D01*
X138138568Y-115362520D01*
X138175338Y-115344135D01*
X129277871Y-103123215D02*
X129094024Y-103123215D01*
X129094024Y-102737135D01*
X129388180Y-102773905D02*
X129406565Y-102755520D01*
X129443334Y-102737135D01*
X129535258Y-102737135D01*
X129572028Y-102755520D01*
X129590412Y-102773905D01*
X129608797Y-102810674D01*
X129608797Y-102847444D01*
X129590412Y-102902598D01*
X129369795Y-103123215D01*
X129608797Y-103123215D01*
X138727171Y-116079526D02*
X138708786Y-116097910D01*
X138653632Y-116116295D01*
X138616862Y-116116295D01*
X138561708Y-116097910D01*
X138524939Y-116061141D01*
X138506554Y-116024371D01*
X138488169Y-115950832D01*
X138488169Y-115895678D01*
X138506554Y-115822139D01*
X138524939Y-115785370D01*
X138561708Y-115748600D01*
X138616862Y-115730215D01*
X138653632Y-115730215D01*
X138708786Y-115748600D01*
X138727171Y-115766985D01*
X138874249Y-115766985D02*
X138892634Y-115748600D01*
X138929403Y-115730215D01*
X139021327Y-115730215D01*
X139058097Y-115748600D01*
X139076481Y-115766985D01*
X139094866Y-115803754D01*
X139094866Y-115840524D01*
X139076481Y-115895678D01*
X138855864Y-116116295D01*
X139094866Y-116116295D01*
X139462561Y-116116295D02*
X139241944Y-116116295D01*
X139352253Y-116116295D02*
X139352253Y-115730215D01*
X139315483Y-115785370D01*
X139278714Y-115822139D01*
X139241944Y-115840524D01*
X132327171Y-103619526D02*
X132308786Y-103637910D01*
X132253632Y-103656295D01*
X132216862Y-103656295D01*
X132161708Y-103637910D01*
X132124939Y-103601141D01*
X132106554Y-103564371D01*
X132088169Y-103490832D01*
X132088169Y-103435678D01*
X132106554Y-103362139D01*
X132124939Y-103325370D01*
X132161708Y-103288600D01*
X132216862Y-103270215D01*
X132253632Y-103270215D01*
X132308786Y-103288600D01*
X132327171Y-103306985D01*
X132474249Y-103306985D02*
X132492634Y-103288600D01*
X132529403Y-103270215D01*
X132621327Y-103270215D01*
X132658097Y-103288600D01*
X132676481Y-103306985D01*
X132694866Y-103343754D01*
X132694866Y-103380524D01*
X132676481Y-103435678D01*
X132455864Y-103656295D01*
X132694866Y-103656295D01*
X132841944Y-103306985D02*
X132860329Y-103288600D01*
X132897098Y-103270215D01*
X132989022Y-103270215D01*
X133025792Y-103288600D01*
X133044176Y-103306985D01*
X133062561Y-103343754D01*
X133062561Y-103380524D01*
X133044176Y-103435678D01*
X132823559Y-103656295D01*
X133062561Y-103656295D01*
X134197171Y-115009526D02*
X134178786Y-115027910D01*
X134123632Y-115046295D01*
X134086862Y-115046295D01*
X134031708Y-115027910D01*
X133994939Y-114991141D01*
X133976554Y-114954371D01*
X133958169Y-114880832D01*
X133958169Y-114825678D01*
X133976554Y-114752139D01*
X133994939Y-114715370D01*
X134031708Y-114678600D01*
X134086862Y-114660215D01*
X134123632Y-114660215D01*
X134178786Y-114678600D01*
X134197171Y-114696985D01*
X134344249Y-114696985D02*
X134362634Y-114678600D01*
X134399403Y-114660215D01*
X134491327Y-114660215D01*
X134528097Y-114678600D01*
X134546481Y-114696985D01*
X134564866Y-114733754D01*
X134564866Y-114770524D01*
X134546481Y-114825678D01*
X134325864Y-115046295D01*
X134564866Y-115046295D01*
X134693559Y-114660215D02*
X134932561Y-114660215D01*
X134803868Y-114807293D01*
X134859022Y-114807293D01*
X134895792Y-114825678D01*
X134914176Y-114844063D01*
X134932561Y-114880832D01*
X134932561Y-114972756D01*
X134914176Y-115009526D01*
X134895792Y-115027910D01*
X134859022Y-115046295D01*
X134748714Y-115046295D01*
X134711944Y-115027910D01*
X134693559Y-115009526D01*
X134122715Y-108319916D02*
X134435256Y-108319916D01*
X134472026Y-108301531D01*
X134490410Y-108283147D01*
X134508795Y-108246377D01*
X134508795Y-108172838D01*
X134490410Y-108136069D01*
X134472026Y-108117684D01*
X134435256Y-108099299D01*
X134122715Y-108099299D01*
X134490410Y-107933836D02*
X134508795Y-107878682D01*
X134508795Y-107786758D01*
X134490410Y-107749988D01*
X134472026Y-107731604D01*
X134435256Y-107713219D01*
X134398487Y-107713219D01*
X134361717Y-107731604D01*
X134343332Y-107749988D01*
X134324948Y-107786758D01*
X134306563Y-107860297D01*
X134288178Y-107897066D01*
X134269793Y-107915451D01*
X134233024Y-107933836D01*
X134196254Y-107933836D01*
X134159485Y-107915451D01*
X134141100Y-107897066D01*
X134122715Y-107860297D01*
X134122715Y-107768373D01*
X134141100Y-107713219D01*
X134306563Y-107419063D02*
X134324948Y-107363909D01*
X134343332Y-107345524D01*
X134380102Y-107327139D01*
X134435256Y-107327139D01*
X134472026Y-107345524D01*
X134490410Y-107363909D01*
X134508795Y-107400678D01*
X134508795Y-107547756D01*
X134122715Y-107547756D01*
X134122715Y-107419063D01*
X134141100Y-107382293D01*
X134159485Y-107363909D01*
X134196254Y-107345524D01*
X134233024Y-107345524D01*
X134269793Y-107363909D01*
X134288178Y-107382293D01*
X134306563Y-107419063D01*
X134306563Y-107547756D01*
D24*
X132583648Y-107334362D02*
X132583648Y-108023790D01*
X132583648Y-107679076D02*
X131377148Y-107679076D01*
X131549505Y-107793981D01*
X131664410Y-107908886D01*
X131721862Y-108023790D01*
D18*
X140162315Y-105151276D02*
X139776235Y-105151276D01*
X140125546Y-104746811D02*
X140143930Y-104765196D01*
X140162315Y-104820350D01*
X140162315Y-104857120D01*
X140143930Y-104912274D01*
X140107161Y-104949043D01*
X140070391Y-104967428D01*
X139996852Y-104985813D01*
X139941698Y-104985813D01*
X139868159Y-104967428D01*
X139831390Y-104949043D01*
X139794620Y-104912274D01*
X139776235Y-104857120D01*
X139776235Y-104820350D01*
X139794620Y-104765196D01*
X139813005Y-104746811D01*
X140162315Y-104379116D02*
X140162315Y-104599733D01*
X140162315Y-104489424D02*
X139776235Y-104489424D01*
X139831390Y-104526194D01*
X139868159Y-104562963D01*
X139886544Y-104599733D01*
D19*
X137316548Y-104580381D02*
X137603810Y-104580381D01*
X137488905Y-104867643D02*
X137603810Y-104580381D01*
X137488905Y-104293119D01*
X137833619Y-104752738D02*
X137603810Y-104580381D01*
X137833619Y-104408024D01*
D25*
X168303180Y-107748566D02*
X168275603Y-107803720D01*
X168275603Y-107886451D01*
X168303180Y-107969183D01*
X168358334Y-108024337D01*
X168413489Y-108051914D01*
X168523797Y-108079491D01*
X168606529Y-108079491D01*
X168716837Y-108051914D01*
X168771991Y-108024337D01*
X168827146Y-107969183D01*
X168854723Y-107886451D01*
X168854723Y-107831297D01*
X168827146Y-107748566D01*
X168799569Y-107720989D01*
X168606529Y-107720989D01*
X168606529Y-107831297D01*
X168854723Y-107197023D02*
X168854723Y-107472794D01*
X168275603Y-107472794D01*
X168799569Y-106673058D02*
X168827146Y-106700635D01*
X168854723Y-106783366D01*
X168854723Y-106838520D01*
X168827146Y-106921252D01*
X168771991Y-106976406D01*
X168716837Y-107003983D01*
X168606529Y-107031560D01*
X168523797Y-107031560D01*
X168413489Y-107003983D01*
X168358334Y-106976406D01*
X168303180Y-106921252D01*
X168275603Y-106838520D01*
X168275603Y-106783366D01*
X168303180Y-106700635D01*
X168330757Y-106673058D01*
X168854723Y-106424863D02*
X168275603Y-106424863D01*
X168275603Y-106286978D01*
X168303180Y-106204246D01*
X168358334Y-106149092D01*
X168413489Y-106121515D01*
X168523797Y-106093938D01*
X168606529Y-106093938D01*
X168716837Y-106121515D01*
X168771991Y-106149092D01*
X168827146Y-106204246D01*
X168854723Y-106286978D01*
X168854723Y-106424863D01*
D23*
D20*
X134403024Y-88940215D02*
X134403024Y-88554135D01*
X134807489Y-88903446D02*
X134789104Y-88921830D01*
X134733950Y-88940215D01*
X134697180Y-88940215D01*
X134642026Y-88921830D01*
X134605257Y-88885061D01*
X134586872Y-88848291D01*
X134568487Y-88774752D01*
X134568487Y-88719598D01*
X134586872Y-88646059D01*
X134605257Y-88609290D01*
X134642026Y-88572520D01*
X134697180Y-88554135D01*
X134733950Y-88554135D01*
X134789104Y-88572520D01*
X134807489Y-88590905D01*
X135156799Y-88554135D02*
X134972952Y-88554135D01*
X134954567Y-88737983D01*
X134972952Y-88719598D01*
X135009721Y-88701213D01*
X135101645Y-88701213D01*
X135138415Y-88719598D01*
X135156799Y-88737983D01*
X135175184Y-88774752D01*
X135175184Y-88866676D01*
X135156799Y-88903446D01*
X135138415Y-88921830D01*
X135101645Y-88940215D01*
X135009721Y-88940215D01*
X134972952Y-88921830D01*
X134954567Y-88903446D01*
D18*
X134214166Y-88114526D02*
X134195781Y-88132910D01*
X134140627Y-88151295D01*
X134103857Y-88151295D01*
X134048703Y-88132910D01*
X134011934Y-88096141D01*
X133993549Y-88059371D01*
X133975164Y-87985832D01*
X133975164Y-87930678D01*
X133993549Y-87857139D01*
X134011934Y-87820370D01*
X134048703Y-87783600D01*
X134103857Y-87765215D01*
X134140627Y-87765215D01*
X134195781Y-87783600D01*
X134214166Y-87801985D01*
X134453168Y-87765215D02*
X134526707Y-87765215D01*
X134563476Y-87783600D01*
X134600246Y-87820370D01*
X134618631Y-87893909D01*
X134618631Y-88022602D01*
X134600246Y-88096141D01*
X134563476Y-88132910D01*
X134526707Y-88151295D01*
X134453168Y-88151295D01*
X134416398Y-88132910D01*
X134379629Y-88096141D01*
X134361244Y-88022602D01*
X134361244Y-87893909D01*
X134379629Y-87820370D01*
X134416398Y-87783600D01*
X134453168Y-87765215D01*
X134784094Y-88151295D02*
X134784094Y-87765215D01*
X135004711Y-88151295D01*
X135004711Y-87765215D01*
X135188559Y-88151295D02*
X135188559Y-87765215D01*
X135409176Y-88151295D01*
X135409176Y-87765215D01*
D20*
X150316871Y-113510215D02*
X150133024Y-113510215D01*
X150133024Y-113124135D01*
X150445565Y-113307983D02*
X150574258Y-113307983D01*
X150629412Y-113510215D02*
X150445565Y-113510215D01*
X150445565Y-113124135D01*
X150629412Y-113124135D01*
X150794875Y-113510215D02*
X150794875Y-113124135D01*
X150886799Y-113124135D01*
X150941953Y-113142520D01*
X150978722Y-113179290D01*
X150997107Y-113216059D01*
X151015492Y-113289598D01*
X151015492Y-113344752D01*
X150997107Y-113418291D01*
X150978722Y-113455061D01*
X150941953Y-113491830D01*
X150886799Y-113510215D01*
X150794875Y-113510215D01*
X169814866Y-116296295D02*
X169686173Y-116112448D01*
X169594249Y-116296295D02*
X169594249Y-115910215D01*
X169741327Y-115910215D01*
X169778096Y-115928600D01*
X169796481Y-115946985D01*
X169814866Y-115983754D01*
X169814866Y-116038909D01*
X169796481Y-116075678D01*
X169778096Y-116094063D01*
X169741327Y-116112448D01*
X169594249Y-116112448D01*
X170035483Y-116075678D02*
X169998714Y-116057293D01*
X169980329Y-116038909D01*
X169961944Y-116002139D01*
X169961944Y-115983754D01*
X169980329Y-115946985D01*
X169998714Y-115928600D01*
X170035483Y-115910215D01*
X170109022Y-115910215D01*
X170145792Y-115928600D01*
X170164176Y-115946985D01*
X170182561Y-115983754D01*
X170182561Y-116002139D01*
X170164176Y-116038909D01*
X170145792Y-116057293D01*
X170109022Y-116075678D01*
X170035483Y-116075678D01*
X169998714Y-116094063D01*
X169980329Y-116112448D01*
X169961944Y-116149217D01*
X169961944Y-116222756D01*
X169980329Y-116259526D01*
X169998714Y-116277910D01*
X170035483Y-116296295D01*
X170109022Y-116296295D01*
X170145792Y-116277910D01*
X170164176Y-116259526D01*
X170182561Y-116222756D01*
X170182561Y-116149217D01*
X170164176Y-116112448D01*
X170145792Y-116094063D01*
X170109022Y-116075678D01*
D18*
X162708024Y-113854215D02*
X162708024Y-113468135D01*
X163112489Y-113817446D02*
X163094104Y-113835830D01*
X163038950Y-113854215D01*
X163002180Y-113854215D01*
X162947026Y-113835830D01*
X162910257Y-113799061D01*
X162891872Y-113762291D01*
X162873487Y-113688752D01*
X162873487Y-113633598D01*
X162891872Y-113560059D01*
X162910257Y-113523290D01*
X162947026Y-113486520D01*
X163002180Y-113468135D01*
X163038950Y-113468135D01*
X163094104Y-113486520D01*
X163112489Y-113504905D01*
X163296337Y-113854215D02*
X163369876Y-113854215D01*
X163406645Y-113835830D01*
X163425030Y-113817446D01*
X163461799Y-113762291D01*
X163480184Y-113688752D01*
X163480184Y-113541674D01*
X163461799Y-113504905D01*
X163443415Y-113486520D01*
X163406645Y-113468135D01*
X163333106Y-113468135D01*
X163296337Y-113486520D01*
X163277952Y-113504905D01*
X163259567Y-113541674D01*
X163259567Y-113633598D01*
X163277952Y-113670368D01*
X163296337Y-113688752D01*
X163333106Y-113707137D01*
X163406645Y-113707137D01*
X163443415Y-113688752D01*
X163461799Y-113670368D01*
X163480184Y-113633598D01*
D19*
X160840519Y-111821248D02*
X160840519Y-112108510D01*
X160553257Y-111993605D02*
X160840519Y-112108510D01*
X161127781Y-111993605D01*
X160668162Y-112338319D02*
X160840519Y-112108510D01*
X161012876Y-112338319D01*
M02*
