%FSLAX45Y45*%
G04 Gerber Fmt 4.5, Leading zero omitted, Abs format (unit mm)*
G04 Created by KiCad (PCBNEW 4.0.0-rc2-stable) date 5/23/2016 2:12:25 PM*
%MOMM*%
G01*
G04 APERTURE LIST*
%ADD10C,0.127000*%
%ADD11C,0.150000*%
%ADD12C,0.200000*%
%ADD13C,0.300000*%
G04 APERTURE END LIST*
D10*
D11*
X12350110Y-13000360D02*
X17350110Y-13000360D01*
X17350110Y-13000360D02*
X17350110Y-8000360D01*
X17350110Y-8000360D02*
X12350110Y-8000360D01*
X12350110Y-8000360D02*
X12350110Y-13000360D01*
D12*
X12972330Y-12042780D02*
X13007890Y-12078340D01*
X13007890Y-12042780D02*
X12972330Y-12078340D01*
X14294330Y-12042780D02*
X14329890Y-12078340D01*
X14329890Y-12042780D02*
X14294330Y-12078340D01*
X15569330Y-12042780D02*
X15604890Y-12078340D01*
X15604890Y-12042780D02*
X15569330Y-12078340D01*
X12523110Y-9253360D02*
G75*
G03X12523110Y-9253360I-25000J0D01*
G01*
X13085110Y-8907360D02*
G75*
G03X13085110Y-8907360I-25000J0D01*
G01*
X13167110Y-9399360D02*
G75*
G03X13167110Y-9399360I-25000J0D01*
G01*
X13345110Y-11125360D02*
G75*
G03X13345110Y-11125360I-25000J0D01*
G01*
X13363110Y-10942360D02*
G75*
G03X13363110Y-10942360I-25000J0D01*
G01*
X13413110Y-10753360D02*
G75*
G03X13413110Y-10753360I-25000J0D01*
G01*
X13481110Y-8883360D02*
G75*
G03X13481110Y-8883360I-25000J0D01*
G01*
X13504110Y-9622360D02*
G75*
G03X13504110Y-9622360I-25000J0D01*
G01*
X13615110Y-11693360D02*
G75*
G03X13615110Y-11693360I-25000J0D01*
G01*
X13623110Y-11455360D02*
G75*
G03X13623110Y-11455360I-25000J0D01*
G01*
X13657110Y-11025360D02*
G75*
G03X13657110Y-11025360I-25000J0D01*
G01*
X13696110Y-9828360D02*
G75*
G03X13696110Y-9828360I-25000J0D01*
G01*
X13782110Y-10539360D02*
G75*
G03X13782110Y-10539360I-25000J0D01*
G01*
X13837110Y-9409360D02*
G75*
G03X13837110Y-9409360I-25000J0D01*
G01*
X13866110Y-10958360D02*
G75*
G03X13866110Y-10958360I-25000J0D01*
G01*
X13873110Y-8815360D02*
G75*
G03X13873110Y-8815360I-25000J0D01*
G01*
X13881110Y-9265360D02*
G75*
G03X13881110Y-9265360I-25000J0D01*
G01*
X13948110Y-9757360D02*
G75*
G03X13948110Y-9757360I-25000J0D01*
G01*
X13955110Y-10446360D02*
G75*
G03X13955110Y-10446360I-25000J0D01*
G01*
X14006110Y-9630360D02*
G75*
G03X14006110Y-9630360I-25000J0D01*
G01*
X14009110Y-9421360D02*
G75*
G03X14009110Y-9421360I-25000J0D01*
G01*
X14067110Y-9093360D02*
G75*
G03X14067110Y-9093360I-25000J0D01*
G01*
X14135110Y-9207360D02*
G75*
G03X14135110Y-9207360I-25000J0D01*
G01*
X14242110Y-9617360D02*
G75*
G03X14242110Y-9617360I-25000J0D01*
G01*
X14280110Y-10964360D02*
G75*
G03X14280110Y-10964360I-25000J0D01*
G01*
X14328110Y-11585360D02*
G75*
G03X14328110Y-11585360I-25000J0D01*
G01*
X14365110Y-9510360D02*
G75*
G03X14365110Y-9510360I-25000J0D01*
G01*
X14431110Y-8647360D02*
G75*
G03X14431110Y-8647360I-25000J0D01*
G01*
X14484110Y-9550360D02*
G75*
G03X14484110Y-9550360I-25000J0D01*
G01*
X14496110Y-10819360D02*
G75*
G03X14496110Y-10819360I-25000J0D01*
G01*
X14579110Y-11621360D02*
G75*
G03X14579110Y-11621360I-25000J0D01*
G01*
X14606110Y-9512360D02*
G75*
G03X14606110Y-9512360I-25000J0D01*
G01*
X14630110Y-9093360D02*
G75*
G03X14630110Y-9093360I-25000J0D01*
G01*
X14647110Y-9887360D02*
G75*
G03X14647110Y-9887360I-25000J0D01*
G01*
X14719110Y-10856360D02*
G75*
G03X14719110Y-10856360I-25000J0D01*
G01*
X14765110Y-9271360D02*
G75*
G03X14765110Y-9271360I-25000J0D01*
G01*
X14782110Y-8826360D02*
G75*
G03X14782110Y-8826360I-25000J0D01*
G01*
X14785110Y-9463360D02*
G75*
G03X14785110Y-9463360I-25000J0D01*
G01*
X14812110Y-9766360D02*
G75*
G03X14812110Y-9766360I-25000J0D01*
G01*
X14838110Y-10887360D02*
G75*
G03X14838110Y-10887360I-25000J0D01*
G01*
X14986110Y-8620360D02*
G75*
G03X14986110Y-8620360I-25000J0D01*
G01*
X15052110Y-10863360D02*
G75*
G03X15052110Y-10863360I-25000J0D01*
G01*
X15082110Y-9799360D02*
G75*
G03X15082110Y-9799360I-25000J0D01*
G01*
X15327110Y-10870360D02*
G75*
G03X15327110Y-10870360I-25000J0D01*
G01*
X15336110Y-8857360D02*
G75*
G03X15336110Y-8857360I-25000J0D01*
G01*
X15358110Y-9261360D02*
G75*
G03X15358110Y-9261360I-25000J0D01*
G01*
X15408110Y-11530360D02*
G75*
G03X15408110Y-11530360I-25000J0D01*
G01*
X15410110Y-9091360D02*
G75*
G03X15410110Y-9091360I-25000J0D01*
G01*
X15528110Y-10793360D02*
G75*
G03X15528110Y-10793360I-25000J0D01*
G01*
X15547110Y-11263360D02*
G75*
G03X15547110Y-11263360I-25000J0D01*
G01*
X15584110Y-9424360D02*
G75*
G03X15584110Y-9424360I-25000J0D01*
G01*
X15627110Y-9973360D02*
G75*
G03X15627110Y-9973360I-25000J0D01*
G01*
X15633110Y-9550360D02*
G75*
G03X15633110Y-9550360I-25000J0D01*
G01*
X15727110Y-11500360D02*
G75*
G03X15727110Y-11500360I-25000J0D01*
G01*
X15748110Y-8718360D02*
G75*
G03X15748110Y-8718360I-25000J0D01*
G01*
X16051110Y-9345360D02*
G75*
G03X16051110Y-9345360I-25000J0D01*
G01*
X16108110Y-10665360D02*
G75*
G03X16108110Y-10665360I-25000J0D01*
G01*
X16332110Y-8613360D02*
G75*
G03X16332110Y-8613360I-25000J0D01*
G01*
X16363110Y-8773360D02*
G75*
G03X16363110Y-8773360I-25000J0D01*
G01*
X16404110Y-11295360D02*
G75*
G03X16404110Y-11295360I-25000J0D01*
G01*
X16440110Y-12002360D02*
G75*
G03X16440110Y-12002360I-25000J0D01*
G01*
X16671110Y-10896360D02*
G75*
G03X16671110Y-10896360I-25000J0D01*
G01*
X16747110Y-8734360D02*
G75*
G03X16747110Y-8734360I-25000J0D01*
G01*
X16758110Y-9008360D02*
G75*
G03X16758110Y-9008360I-25000J0D01*
G01*
X16920110Y-9057360D02*
G75*
G03X16920110Y-9057360I-25000J0D01*
G01*
X16928110Y-8746360D02*
G75*
G03X16928110Y-8746360I-25000J0D01*
G01*
X16977110Y-11271360D02*
G75*
G03X16977110Y-11271360I-25000J0D01*
G01*
X17052110Y-8688360D02*
G75*
G03X17052110Y-8688360I-25000J0D01*
G01*
X17061110Y-8258360D02*
G75*
G03X17061110Y-8258360I-25000J0D01*
G01*
X17210110Y-11264360D02*
G75*
G03X17210110Y-11264360I-25000J0D01*
G01*
X17227110Y-8395360D02*
G75*
G03X17227110Y-8395360I-25000J0D01*
G01*
X16630110Y-12216360D02*
X16630110Y-12276360D01*
X16600110Y-12246360D02*
X16660110Y-12246360D01*
X16890110Y-12216360D02*
X16890110Y-12276360D01*
X16860110Y-12246360D02*
X16920110Y-12246360D01*
X15304847Y-10412097D02*
X15304847Y-10354623D01*
X15247373Y-10354623D01*
X15247373Y-10412097D01*
X15304847Y-10412097D01*
X15304847Y-10666097D02*
X15304847Y-10608623D01*
X15247373Y-10608623D01*
X15247373Y-10666097D01*
X15304847Y-10666097D01*
X12550110Y-8274360D02*
X12600110Y-8224360D01*
X12550110Y-8174360D01*
X12500110Y-8224360D01*
X12550110Y-8274360D01*
X12550110Y-8528360D02*
X12600110Y-8478360D01*
X12550110Y-8428360D01*
X12500110Y-8478360D01*
X12550110Y-8528360D01*
X12804110Y-8274360D02*
X12854110Y-8224360D01*
X12804110Y-8174360D01*
X12754110Y-8224360D01*
X12804110Y-8274360D01*
X12804110Y-8528360D02*
X12854110Y-8478360D01*
X12804110Y-8428360D01*
X12754110Y-8478360D01*
X12804110Y-8528360D01*
X13058110Y-8274360D02*
X13108110Y-8224360D01*
X13058110Y-8174360D01*
X13008110Y-8224360D01*
X13058110Y-8274360D01*
X13058110Y-8528360D02*
X13108110Y-8478360D01*
X13058110Y-8428360D01*
X13008110Y-8478360D01*
X13058110Y-8528360D01*
X13312110Y-8274360D02*
X13362110Y-8224360D01*
X13312110Y-8174360D01*
X13262110Y-8224360D01*
X13312110Y-8274360D01*
X13312110Y-8528360D02*
X13362110Y-8478360D01*
X13312110Y-8428360D01*
X13262110Y-8478360D01*
X13312110Y-8528360D01*
X13566110Y-8274360D02*
X13616110Y-8224360D01*
X13566110Y-8174360D01*
X13516110Y-8224360D01*
X13566110Y-8274360D01*
X13566110Y-8528360D02*
X13616110Y-8478360D01*
X13566110Y-8428360D01*
X13516110Y-8478360D01*
X13566110Y-8528360D01*
X13820110Y-8274360D02*
X13870110Y-8224360D01*
X13820110Y-8174360D01*
X13770110Y-8224360D01*
X13820110Y-8274360D01*
X13820110Y-8528360D02*
X13870110Y-8478360D01*
X13820110Y-8428360D01*
X13770110Y-8478360D01*
X13820110Y-8528360D01*
X14074110Y-8274360D02*
X14124110Y-8224360D01*
X14074110Y-8174360D01*
X14024110Y-8224360D01*
X14074110Y-8274360D01*
X14074110Y-8528360D02*
X14124110Y-8478360D01*
X14074110Y-8428360D01*
X14024110Y-8478360D01*
X14074110Y-8528360D01*
X14328110Y-8274360D02*
X14378110Y-8224360D01*
X14328110Y-8174360D01*
X14278110Y-8224360D01*
X14328110Y-8274360D01*
X14328110Y-8528360D02*
X14378110Y-8478360D01*
X14328110Y-8428360D01*
X14278110Y-8478360D01*
X14328110Y-8528360D01*
X14582110Y-8274360D02*
X14632110Y-8224360D01*
X14582110Y-8174360D01*
X14532110Y-8224360D01*
X14582110Y-8274360D01*
X14582110Y-8528360D02*
X14632110Y-8478360D01*
X14582110Y-8428360D01*
X14532110Y-8478360D01*
X14582110Y-8528360D01*
X14836110Y-8274360D02*
X14886110Y-8224360D01*
X14836110Y-8174360D01*
X14786110Y-8224360D01*
X14836110Y-8274360D01*
X14836110Y-8528360D02*
X14886110Y-8478360D01*
X14836110Y-8428360D01*
X14786110Y-8478360D01*
X14836110Y-8528360D01*
X15090110Y-8274360D02*
X15140110Y-8224360D01*
X15090110Y-8174360D01*
X15040110Y-8224360D01*
X15090110Y-8274360D01*
X15090110Y-8528360D02*
X15140110Y-8478360D01*
X15090110Y-8428360D01*
X15040110Y-8478360D01*
X15090110Y-8528360D01*
X15344110Y-8274360D02*
X15394110Y-8224360D01*
X15344110Y-8174360D01*
X15294110Y-8224360D01*
X15344110Y-8274360D01*
X15344110Y-8528360D02*
X15394110Y-8478360D01*
X15344110Y-8428360D01*
X15294110Y-8478360D01*
X15344110Y-8528360D01*
X15598110Y-8274360D02*
X15648110Y-8224360D01*
X15598110Y-8174360D01*
X15548110Y-8224360D01*
X15598110Y-8274360D01*
X15598110Y-8528360D02*
X15648110Y-8478360D01*
X15598110Y-8428360D01*
X15548110Y-8478360D01*
X15598110Y-8528360D01*
X17007610Y-9109560D02*
X17109210Y-9211160D01*
X17109210Y-9109560D02*
X17007610Y-9211160D01*
X17109210Y-9160360D02*
G75*
G03X17109210Y-9160360I-50800J0D01*
G01*
X17007610Y-9617560D02*
X17109210Y-9719160D01*
X17109210Y-9617560D02*
X17007610Y-9719160D01*
X17109210Y-9668360D02*
G75*
G03X17109210Y-9668360I-50800J0D01*
G01*
X17007610Y-10125560D02*
X17109210Y-10227160D01*
X17109210Y-10125560D02*
X17007610Y-10227160D01*
X17109210Y-10176360D02*
G75*
G03X17109210Y-10176360I-50800J0D01*
G01*
X17007610Y-10633560D02*
X17109210Y-10735160D01*
X17109210Y-10633560D02*
X17007610Y-10735160D01*
X17109210Y-10684360D02*
G75*
G03X17109210Y-10684360I-50800J0D01*
G01*
X17033010Y-8855560D02*
X17134610Y-8957160D01*
X17134610Y-8855560D02*
X17033010Y-8957160D01*
X17134610Y-8906360D02*
G75*
G03X17134610Y-8906360I-50800J0D01*
G01*
X17033010Y-9363560D02*
X17134610Y-9465160D01*
X17134610Y-9363560D02*
X17033010Y-9465160D01*
X17134610Y-9414360D02*
G75*
G03X17134610Y-9414360I-50800J0D01*
G01*
X17033010Y-9871560D02*
X17134610Y-9973160D01*
X17134610Y-9871560D02*
X17033010Y-9973160D01*
X17134610Y-9922360D02*
G75*
G03X17134610Y-9922360I-50800J0D01*
G01*
X17033010Y-10379560D02*
X17134610Y-10481160D01*
X17134610Y-10379560D02*
X17033010Y-10481160D01*
X17134610Y-10430360D02*
G75*
G03X17134610Y-10430360I-50800J0D01*
G01*
D13*
X12614038Y-13473574D02*
X12614038Y-13173574D01*
X12685467Y-13173574D01*
X12728324Y-13187860D01*
X12756896Y-13216431D01*
X12771181Y-13245003D01*
X12785467Y-13302146D01*
X12785467Y-13345003D01*
X12771181Y-13402146D01*
X12756896Y-13430717D01*
X12728324Y-13459289D01*
X12685467Y-13473574D01*
X12614038Y-13473574D01*
X12914038Y-13473574D02*
X12914038Y-13273574D01*
X12914038Y-13330717D02*
X12928324Y-13302146D01*
X12942610Y-13287860D01*
X12971181Y-13273574D01*
X12999753Y-13273574D01*
X13099753Y-13473574D02*
X13099753Y-13273574D01*
X13099753Y-13173574D02*
X13085467Y-13187860D01*
X13099753Y-13202146D01*
X13114038Y-13187860D01*
X13099753Y-13173574D01*
X13099753Y-13202146D01*
X13285467Y-13473574D02*
X13256896Y-13459289D01*
X13242610Y-13430717D01*
X13242610Y-13173574D01*
X13442610Y-13473574D02*
X13414038Y-13459289D01*
X13399753Y-13430717D01*
X13399753Y-13173574D01*
X13785467Y-13473574D02*
X13785467Y-13173574D01*
X13885467Y-13387860D01*
X13985467Y-13173574D01*
X13985467Y-13473574D01*
X14256896Y-13473574D02*
X14256896Y-13316431D01*
X14242610Y-13287860D01*
X14214038Y-13273574D01*
X14156896Y-13273574D01*
X14128324Y-13287860D01*
X14256896Y-13459289D02*
X14228324Y-13473574D01*
X14156896Y-13473574D01*
X14128324Y-13459289D01*
X14114038Y-13430717D01*
X14114038Y-13402146D01*
X14128324Y-13373574D01*
X14156896Y-13359289D01*
X14228324Y-13359289D01*
X14256896Y-13345003D01*
X14399753Y-13273574D02*
X14399753Y-13573574D01*
X14399753Y-13287860D02*
X14428324Y-13273574D01*
X14485467Y-13273574D01*
X14514038Y-13287860D01*
X14528324Y-13302146D01*
X14542610Y-13330717D01*
X14542610Y-13416431D01*
X14528324Y-13445003D01*
X14514038Y-13459289D01*
X14485467Y-13473574D01*
X14428324Y-13473574D01*
X14399753Y-13459289D01*
X14671181Y-13445003D02*
X14685467Y-13459289D01*
X14671181Y-13473574D01*
X14656896Y-13459289D01*
X14671181Y-13445003D01*
X14671181Y-13473574D01*
X14671181Y-13287860D02*
X14685467Y-13302146D01*
X14671181Y-13316431D01*
X14656896Y-13302146D01*
X14671181Y-13287860D01*
X14671181Y-13316431D01*
X12307050Y-13950080D02*
X12342610Y-13985640D01*
X12342610Y-13950080D02*
X12307050Y-13985640D01*
X12671181Y-13803574D02*
X12699753Y-13803574D01*
X12728324Y-13817860D01*
X12742610Y-13832146D01*
X12756896Y-13860717D01*
X12771181Y-13917860D01*
X12771181Y-13989289D01*
X12756896Y-14046431D01*
X12742610Y-14075003D01*
X12728324Y-14089289D01*
X12699753Y-14103574D01*
X12671181Y-14103574D01*
X12642610Y-14089289D01*
X12628324Y-14075003D01*
X12614038Y-14046431D01*
X12599753Y-13989289D01*
X12599753Y-13917860D01*
X12614038Y-13860717D01*
X12628324Y-13832146D01*
X12642610Y-13817860D01*
X12671181Y-13803574D01*
X12899753Y-14075003D02*
X12914038Y-14089289D01*
X12899753Y-14103574D01*
X12885467Y-14089289D01*
X12899753Y-14075003D01*
X12899753Y-14103574D01*
X13014038Y-13803574D02*
X13199753Y-13803574D01*
X13099753Y-13917860D01*
X13142610Y-13917860D01*
X13171181Y-13932146D01*
X13185467Y-13946431D01*
X13199753Y-13975003D01*
X13199753Y-14046431D01*
X13185467Y-14075003D01*
X13171181Y-14089289D01*
X13142610Y-14103574D01*
X13056896Y-14103574D01*
X13028324Y-14089289D01*
X13014038Y-14075003D01*
X13456896Y-13803574D02*
X13399753Y-13803574D01*
X13371181Y-13817860D01*
X13356896Y-13832146D01*
X13328324Y-13875003D01*
X13314038Y-13932146D01*
X13314038Y-14046431D01*
X13328324Y-14075003D01*
X13342610Y-14089289D01*
X13371181Y-14103574D01*
X13428324Y-14103574D01*
X13456896Y-14089289D01*
X13471181Y-14075003D01*
X13485467Y-14046431D01*
X13485467Y-13975003D01*
X13471181Y-13946431D01*
X13456896Y-13932146D01*
X13428324Y-13917860D01*
X13371181Y-13917860D01*
X13342610Y-13932146D01*
X13328324Y-13946431D01*
X13314038Y-13975003D01*
X13614038Y-14103574D02*
X13614038Y-13903574D01*
X13614038Y-13932146D02*
X13628324Y-13917860D01*
X13656896Y-13903574D01*
X13699753Y-13903574D01*
X13728324Y-13917860D01*
X13742610Y-13946431D01*
X13742610Y-14103574D01*
X13742610Y-13946431D02*
X13756896Y-13917860D01*
X13785467Y-13903574D01*
X13828324Y-13903574D01*
X13856896Y-13917860D01*
X13871181Y-13946431D01*
X13871181Y-14103574D01*
X14014038Y-14103574D02*
X14014038Y-13903574D01*
X14014038Y-13932146D02*
X14028324Y-13917860D01*
X14056896Y-13903574D01*
X14099753Y-13903574D01*
X14128324Y-13917860D01*
X14142610Y-13946431D01*
X14142610Y-14103574D01*
X14142610Y-13946431D02*
X14156896Y-13917860D01*
X14185467Y-13903574D01*
X14228324Y-13903574D01*
X14256896Y-13917860D01*
X14271181Y-13946431D01*
X14271181Y-14103574D01*
X14856896Y-13789289D02*
X14599753Y-14175003D01*
X15242610Y-13803574D02*
X15271181Y-13803574D01*
X15299753Y-13817860D01*
X15314038Y-13832146D01*
X15328324Y-13860717D01*
X15342610Y-13917860D01*
X15342610Y-13989289D01*
X15328324Y-14046431D01*
X15314038Y-14075003D01*
X15299753Y-14089289D01*
X15271181Y-14103574D01*
X15242610Y-14103574D01*
X15214038Y-14089289D01*
X15199753Y-14075003D01*
X15185467Y-14046431D01*
X15171181Y-13989289D01*
X15171181Y-13917860D01*
X15185467Y-13860717D01*
X15199753Y-13832146D01*
X15214038Y-13817860D01*
X15242610Y-13803574D01*
X15471181Y-14075003D02*
X15485467Y-14089289D01*
X15471181Y-14103574D01*
X15456896Y-14089289D01*
X15471181Y-14075003D01*
X15471181Y-14103574D01*
X15671181Y-13803574D02*
X15699753Y-13803574D01*
X15728324Y-13817860D01*
X15742610Y-13832146D01*
X15756895Y-13860717D01*
X15771181Y-13917860D01*
X15771181Y-13989289D01*
X15756895Y-14046431D01*
X15742610Y-14075003D01*
X15728324Y-14089289D01*
X15699753Y-14103574D01*
X15671181Y-14103574D01*
X15642610Y-14089289D01*
X15628324Y-14075003D01*
X15614038Y-14046431D01*
X15599753Y-13989289D01*
X15599753Y-13917860D01*
X15614038Y-13860717D01*
X15628324Y-13832146D01*
X15642610Y-13817860D01*
X15671181Y-13803574D01*
X16056895Y-14103574D02*
X15885467Y-14103574D01*
X15971181Y-14103574D02*
X15971181Y-13803574D01*
X15942610Y-13846431D01*
X15914038Y-13875003D01*
X15885467Y-13889289D01*
X16314038Y-13903574D02*
X16314038Y-14103574D01*
X16242610Y-13789289D02*
X16171181Y-14003574D01*
X16356895Y-14003574D01*
X16456896Y-13803574D02*
X16456896Y-13860717D01*
X16571181Y-13803574D02*
X16571181Y-13860717D01*
X17014038Y-14217860D02*
X16999753Y-14203574D01*
X16971181Y-14160717D01*
X16956896Y-14132146D01*
X16942610Y-14089289D01*
X16928324Y-14017860D01*
X16928324Y-13960717D01*
X16942610Y-13889289D01*
X16956896Y-13846431D01*
X16971181Y-13817860D01*
X16999753Y-13775003D01*
X17014038Y-13760717D01*
X17099753Y-13803574D02*
X17285467Y-13803574D01*
X17185467Y-13917860D01*
X17228324Y-13917860D01*
X17256896Y-13932146D01*
X17271181Y-13946431D01*
X17285467Y-13975003D01*
X17285467Y-14046431D01*
X17271181Y-14075003D01*
X17256896Y-14089289D01*
X17228324Y-14103574D01*
X17142610Y-14103574D01*
X17114038Y-14089289D01*
X17099753Y-14075003D01*
X17642610Y-14103574D02*
X17642610Y-13803574D01*
X17771181Y-14103574D02*
X17771181Y-13946431D01*
X17756896Y-13917860D01*
X17728324Y-13903574D01*
X17685467Y-13903574D01*
X17656896Y-13917860D01*
X17642610Y-13932146D01*
X17956896Y-14103574D02*
X17928324Y-14089289D01*
X17914038Y-14075003D01*
X17899753Y-14046431D01*
X17899753Y-13960717D01*
X17914038Y-13932146D01*
X17928324Y-13917860D01*
X17956896Y-13903574D01*
X17999753Y-13903574D01*
X18028324Y-13917860D01*
X18042610Y-13932146D01*
X18056896Y-13960717D01*
X18056896Y-14046431D01*
X18042610Y-14075003D01*
X18028324Y-14089289D01*
X17999753Y-14103574D01*
X17956896Y-14103574D01*
X18228324Y-14103574D02*
X18199753Y-14089289D01*
X18185467Y-14060717D01*
X18185467Y-13803574D01*
X18456896Y-14089289D02*
X18428324Y-14103574D01*
X18371181Y-14103574D01*
X18342610Y-14089289D01*
X18328324Y-14060717D01*
X18328324Y-13946431D01*
X18342610Y-13917860D01*
X18371181Y-13903574D01*
X18428324Y-13903574D01*
X18456896Y-13917860D01*
X18471181Y-13946431D01*
X18471181Y-13975003D01*
X18328324Y-14003574D01*
X18585467Y-14089289D02*
X18614039Y-14103574D01*
X18671181Y-14103574D01*
X18699753Y-14089289D01*
X18714039Y-14060717D01*
X18714039Y-14046431D01*
X18699753Y-14017860D01*
X18671181Y-14003574D01*
X18628324Y-14003574D01*
X18599753Y-13989289D01*
X18585467Y-13960717D01*
X18585467Y-13946431D01*
X18599753Y-13917860D01*
X18628324Y-13903574D01*
X18671181Y-13903574D01*
X18699753Y-13917860D01*
X18814038Y-14217860D02*
X18828324Y-14203574D01*
X18856896Y-14160717D01*
X18871181Y-14132146D01*
X18885467Y-14089289D01*
X18899753Y-14017860D01*
X18899753Y-13960717D01*
X18885467Y-13889289D01*
X18871181Y-13846431D01*
X18856896Y-13817860D01*
X18828324Y-13775003D01*
X18814038Y-13760717D01*
X12342610Y-14363860D02*
G75*
G03X12342610Y-14363860I-25000J0D01*
G01*
X12671181Y-14199574D02*
X12699753Y-14199574D01*
X12728324Y-14213860D01*
X12742610Y-14228146D01*
X12756896Y-14256717D01*
X12771181Y-14313860D01*
X12771181Y-14385289D01*
X12756896Y-14442431D01*
X12742610Y-14471003D01*
X12728324Y-14485289D01*
X12699753Y-14499574D01*
X12671181Y-14499574D01*
X12642610Y-14485289D01*
X12628324Y-14471003D01*
X12614038Y-14442431D01*
X12599753Y-14385289D01*
X12599753Y-14313860D01*
X12614038Y-14256717D01*
X12628324Y-14228146D01*
X12642610Y-14213860D01*
X12671181Y-14199574D01*
X12899753Y-14471003D02*
X12914038Y-14485289D01*
X12899753Y-14499574D01*
X12885467Y-14485289D01*
X12899753Y-14471003D01*
X12899753Y-14499574D01*
X13185467Y-14199574D02*
X13042610Y-14199574D01*
X13028324Y-14342431D01*
X13042610Y-14328146D01*
X13071181Y-14313860D01*
X13142610Y-14313860D01*
X13171181Y-14328146D01*
X13185467Y-14342431D01*
X13199753Y-14371003D01*
X13199753Y-14442431D01*
X13185467Y-14471003D01*
X13171181Y-14485289D01*
X13142610Y-14499574D01*
X13071181Y-14499574D01*
X13042610Y-14485289D01*
X13028324Y-14471003D01*
X13385467Y-14199574D02*
X13414038Y-14199574D01*
X13442610Y-14213860D01*
X13456896Y-14228146D01*
X13471181Y-14256717D01*
X13485467Y-14313860D01*
X13485467Y-14385289D01*
X13471181Y-14442431D01*
X13456896Y-14471003D01*
X13442610Y-14485289D01*
X13414038Y-14499574D01*
X13385467Y-14499574D01*
X13356896Y-14485289D01*
X13342610Y-14471003D01*
X13328324Y-14442431D01*
X13314038Y-14385289D01*
X13314038Y-14313860D01*
X13328324Y-14256717D01*
X13342610Y-14228146D01*
X13356896Y-14213860D01*
X13385467Y-14199574D01*
X13614038Y-14499574D02*
X13614038Y-14299574D01*
X13614038Y-14328146D02*
X13628324Y-14313860D01*
X13656896Y-14299574D01*
X13699753Y-14299574D01*
X13728324Y-14313860D01*
X13742610Y-14342431D01*
X13742610Y-14499574D01*
X13742610Y-14342431D02*
X13756896Y-14313860D01*
X13785467Y-14299574D01*
X13828324Y-14299574D01*
X13856896Y-14313860D01*
X13871181Y-14342431D01*
X13871181Y-14499574D01*
X14014038Y-14499574D02*
X14014038Y-14299574D01*
X14014038Y-14328146D02*
X14028324Y-14313860D01*
X14056896Y-14299574D01*
X14099753Y-14299574D01*
X14128324Y-14313860D01*
X14142610Y-14342431D01*
X14142610Y-14499574D01*
X14142610Y-14342431D02*
X14156896Y-14313860D01*
X14185467Y-14299574D01*
X14228324Y-14299574D01*
X14256896Y-14313860D01*
X14271181Y-14342431D01*
X14271181Y-14499574D01*
X14856896Y-14185289D02*
X14599753Y-14571003D01*
X15242610Y-14199574D02*
X15271181Y-14199574D01*
X15299753Y-14213860D01*
X15314038Y-14228146D01*
X15328324Y-14256717D01*
X15342610Y-14313860D01*
X15342610Y-14385289D01*
X15328324Y-14442431D01*
X15314038Y-14471003D01*
X15299753Y-14485289D01*
X15271181Y-14499574D01*
X15242610Y-14499574D01*
X15214038Y-14485289D01*
X15199753Y-14471003D01*
X15185467Y-14442431D01*
X15171181Y-14385289D01*
X15171181Y-14313860D01*
X15185467Y-14256717D01*
X15199753Y-14228146D01*
X15214038Y-14213860D01*
X15242610Y-14199574D01*
X15471181Y-14471003D02*
X15485467Y-14485289D01*
X15471181Y-14499574D01*
X15456896Y-14485289D01*
X15471181Y-14471003D01*
X15471181Y-14499574D01*
X15671181Y-14199574D02*
X15699753Y-14199574D01*
X15728324Y-14213860D01*
X15742610Y-14228146D01*
X15756895Y-14256717D01*
X15771181Y-14313860D01*
X15771181Y-14385289D01*
X15756895Y-14442431D01*
X15742610Y-14471003D01*
X15728324Y-14485289D01*
X15699753Y-14499574D01*
X15671181Y-14499574D01*
X15642610Y-14485289D01*
X15628324Y-14471003D01*
X15614038Y-14442431D01*
X15599753Y-14385289D01*
X15599753Y-14313860D01*
X15614038Y-14256717D01*
X15628324Y-14228146D01*
X15642610Y-14213860D01*
X15671181Y-14199574D01*
X15885467Y-14228146D02*
X15899753Y-14213860D01*
X15928324Y-14199574D01*
X15999753Y-14199574D01*
X16028324Y-14213860D01*
X16042610Y-14228146D01*
X16056895Y-14256717D01*
X16056895Y-14285289D01*
X16042610Y-14328146D01*
X15871181Y-14499574D01*
X16056895Y-14499574D01*
X16242610Y-14199574D02*
X16271181Y-14199574D01*
X16299753Y-14213860D01*
X16314038Y-14228146D01*
X16328324Y-14256717D01*
X16342610Y-14313860D01*
X16342610Y-14385289D01*
X16328324Y-14442431D01*
X16314038Y-14471003D01*
X16299753Y-14485289D01*
X16271181Y-14499574D01*
X16242610Y-14499574D01*
X16214038Y-14485289D01*
X16199753Y-14471003D01*
X16185467Y-14442431D01*
X16171181Y-14385289D01*
X16171181Y-14313860D01*
X16185467Y-14256717D01*
X16199753Y-14228146D01*
X16214038Y-14213860D01*
X16242610Y-14199574D01*
X16456896Y-14199574D02*
X16456896Y-14256717D01*
X16571181Y-14199574D02*
X16571181Y-14256717D01*
X17014038Y-14613860D02*
X16999753Y-14599574D01*
X16971181Y-14556717D01*
X16956896Y-14528146D01*
X16942610Y-14485289D01*
X16928324Y-14413860D01*
X16928324Y-14356717D01*
X16942610Y-14285289D01*
X16956896Y-14242431D01*
X16971181Y-14213860D01*
X16999753Y-14171003D01*
X17014038Y-14156717D01*
X17099753Y-14199574D02*
X17299753Y-14199574D01*
X17171181Y-14499574D01*
X17571181Y-14499574D02*
X17399753Y-14499574D01*
X17485467Y-14499574D02*
X17485467Y-14199574D01*
X17456896Y-14242431D01*
X17428324Y-14271003D01*
X17399753Y-14285289D01*
X17928324Y-14499574D02*
X17928324Y-14199574D01*
X18056896Y-14499574D02*
X18056896Y-14342431D01*
X18042610Y-14313860D01*
X18014038Y-14299574D01*
X17971181Y-14299574D01*
X17942610Y-14313860D01*
X17928324Y-14328146D01*
X18242610Y-14499574D02*
X18214038Y-14485289D01*
X18199753Y-14471003D01*
X18185467Y-14442431D01*
X18185467Y-14356717D01*
X18199753Y-14328146D01*
X18214038Y-14313860D01*
X18242610Y-14299574D01*
X18285467Y-14299574D01*
X18314038Y-14313860D01*
X18328324Y-14328146D01*
X18342610Y-14356717D01*
X18342610Y-14442431D01*
X18328324Y-14471003D01*
X18314038Y-14485289D01*
X18285467Y-14499574D01*
X18242610Y-14499574D01*
X18514038Y-14499574D02*
X18485467Y-14485289D01*
X18471181Y-14456717D01*
X18471181Y-14199574D01*
X18742610Y-14485289D02*
X18714039Y-14499574D01*
X18656896Y-14499574D01*
X18628324Y-14485289D01*
X18614039Y-14456717D01*
X18614039Y-14342431D01*
X18628324Y-14313860D01*
X18656896Y-14299574D01*
X18714039Y-14299574D01*
X18742610Y-14313860D01*
X18756896Y-14342431D01*
X18756896Y-14371003D01*
X18614039Y-14399574D01*
X18871181Y-14485289D02*
X18899753Y-14499574D01*
X18956896Y-14499574D01*
X18985467Y-14485289D01*
X18999753Y-14456717D01*
X18999753Y-14442431D01*
X18985467Y-14413860D01*
X18956896Y-14399574D01*
X18914039Y-14399574D01*
X18885467Y-14385289D01*
X18871181Y-14356717D01*
X18871181Y-14342431D01*
X18885467Y-14313860D01*
X18914039Y-14299574D01*
X18956896Y-14299574D01*
X18985467Y-14313860D01*
X19099753Y-14613860D02*
X19114039Y-14599574D01*
X19142610Y-14556717D01*
X19156896Y-14528146D01*
X19171181Y-14485289D01*
X19185467Y-14413860D01*
X19185467Y-14356717D01*
X19171181Y-14285289D01*
X19156896Y-14242431D01*
X19142610Y-14213860D01*
X19114039Y-14171003D01*
X19099753Y-14156717D01*
X12312610Y-14729860D02*
X12312610Y-14789860D01*
X12282610Y-14759860D02*
X12342610Y-14759860D01*
X12671181Y-14595574D02*
X12699753Y-14595574D01*
X12728324Y-14609860D01*
X12742610Y-14624146D01*
X12756896Y-14652717D01*
X12771181Y-14709860D01*
X12771181Y-14781289D01*
X12756896Y-14838431D01*
X12742610Y-14867003D01*
X12728324Y-14881289D01*
X12699753Y-14895574D01*
X12671181Y-14895574D01*
X12642610Y-14881289D01*
X12628324Y-14867003D01*
X12614038Y-14838431D01*
X12599753Y-14781289D01*
X12599753Y-14709860D01*
X12614038Y-14652717D01*
X12628324Y-14624146D01*
X12642610Y-14609860D01*
X12671181Y-14595574D01*
X12899753Y-14867003D02*
X12914038Y-14881289D01*
X12899753Y-14895574D01*
X12885467Y-14881289D01*
X12899753Y-14867003D01*
X12899753Y-14895574D01*
X13171181Y-14595574D02*
X13114038Y-14595574D01*
X13085467Y-14609860D01*
X13071181Y-14624146D01*
X13042610Y-14667003D01*
X13028324Y-14724146D01*
X13028324Y-14838431D01*
X13042610Y-14867003D01*
X13056896Y-14881289D01*
X13085467Y-14895574D01*
X13142610Y-14895574D01*
X13171181Y-14881289D01*
X13185467Y-14867003D01*
X13199753Y-14838431D01*
X13199753Y-14767003D01*
X13185467Y-14738431D01*
X13171181Y-14724146D01*
X13142610Y-14709860D01*
X13085467Y-14709860D01*
X13056896Y-14724146D01*
X13042610Y-14738431D01*
X13028324Y-14767003D01*
X13385467Y-14595574D02*
X13414038Y-14595574D01*
X13442610Y-14609860D01*
X13456896Y-14624146D01*
X13471181Y-14652717D01*
X13485467Y-14709860D01*
X13485467Y-14781289D01*
X13471181Y-14838431D01*
X13456896Y-14867003D01*
X13442610Y-14881289D01*
X13414038Y-14895574D01*
X13385467Y-14895574D01*
X13356896Y-14881289D01*
X13342610Y-14867003D01*
X13328324Y-14838431D01*
X13314038Y-14781289D01*
X13314038Y-14709860D01*
X13328324Y-14652717D01*
X13342610Y-14624146D01*
X13356896Y-14609860D01*
X13385467Y-14595574D01*
X13614038Y-14895574D02*
X13614038Y-14695574D01*
X13614038Y-14724146D02*
X13628324Y-14709860D01*
X13656896Y-14695574D01*
X13699753Y-14695574D01*
X13728324Y-14709860D01*
X13742610Y-14738431D01*
X13742610Y-14895574D01*
X13742610Y-14738431D02*
X13756896Y-14709860D01*
X13785467Y-14695574D01*
X13828324Y-14695574D01*
X13856896Y-14709860D01*
X13871181Y-14738431D01*
X13871181Y-14895574D01*
X14014038Y-14895574D02*
X14014038Y-14695574D01*
X14014038Y-14724146D02*
X14028324Y-14709860D01*
X14056896Y-14695574D01*
X14099753Y-14695574D01*
X14128324Y-14709860D01*
X14142610Y-14738431D01*
X14142610Y-14895574D01*
X14142610Y-14738431D02*
X14156896Y-14709860D01*
X14185467Y-14695574D01*
X14228324Y-14695574D01*
X14256896Y-14709860D01*
X14271181Y-14738431D01*
X14271181Y-14895574D01*
X14856896Y-14581289D02*
X14599753Y-14967003D01*
X15242610Y-14595574D02*
X15271181Y-14595574D01*
X15299753Y-14609860D01*
X15314038Y-14624146D01*
X15328324Y-14652717D01*
X15342610Y-14709860D01*
X15342610Y-14781289D01*
X15328324Y-14838431D01*
X15314038Y-14867003D01*
X15299753Y-14881289D01*
X15271181Y-14895574D01*
X15242610Y-14895574D01*
X15214038Y-14881289D01*
X15199753Y-14867003D01*
X15185467Y-14838431D01*
X15171181Y-14781289D01*
X15171181Y-14709860D01*
X15185467Y-14652717D01*
X15199753Y-14624146D01*
X15214038Y-14609860D01*
X15242610Y-14595574D01*
X15471181Y-14867003D02*
X15485467Y-14881289D01*
X15471181Y-14895574D01*
X15456896Y-14881289D01*
X15471181Y-14867003D01*
X15471181Y-14895574D01*
X15671181Y-14595574D02*
X15699753Y-14595574D01*
X15728324Y-14609860D01*
X15742610Y-14624146D01*
X15756895Y-14652717D01*
X15771181Y-14709860D01*
X15771181Y-14781289D01*
X15756895Y-14838431D01*
X15742610Y-14867003D01*
X15728324Y-14881289D01*
X15699753Y-14895574D01*
X15671181Y-14895574D01*
X15642610Y-14881289D01*
X15628324Y-14867003D01*
X15614038Y-14838431D01*
X15599753Y-14781289D01*
X15599753Y-14709860D01*
X15614038Y-14652717D01*
X15628324Y-14624146D01*
X15642610Y-14609860D01*
X15671181Y-14595574D01*
X15885467Y-14624146D02*
X15899753Y-14609860D01*
X15928324Y-14595574D01*
X15999753Y-14595574D01*
X16028324Y-14609860D01*
X16042610Y-14624146D01*
X16056895Y-14652717D01*
X16056895Y-14681289D01*
X16042610Y-14724146D01*
X15871181Y-14895574D01*
X16056895Y-14895574D01*
X16314038Y-14695574D02*
X16314038Y-14895574D01*
X16242610Y-14581289D02*
X16171181Y-14795574D01*
X16356895Y-14795574D01*
X16456896Y-14595574D02*
X16456896Y-14652717D01*
X16571181Y-14595574D02*
X16571181Y-14652717D01*
X17014038Y-15009860D02*
X16999753Y-14995574D01*
X16971181Y-14952717D01*
X16956896Y-14924146D01*
X16942610Y-14881289D01*
X16928324Y-14809860D01*
X16928324Y-14752717D01*
X16942610Y-14681289D01*
X16956896Y-14638431D01*
X16971181Y-14609860D01*
X16999753Y-14567003D01*
X17014038Y-14552717D01*
X17114038Y-14624146D02*
X17128324Y-14609860D01*
X17156896Y-14595574D01*
X17228324Y-14595574D01*
X17256896Y-14609860D01*
X17271181Y-14624146D01*
X17285467Y-14652717D01*
X17285467Y-14681289D01*
X17271181Y-14724146D01*
X17099753Y-14895574D01*
X17285467Y-14895574D01*
X17642610Y-14895574D02*
X17642610Y-14595574D01*
X17771181Y-14895574D02*
X17771181Y-14738431D01*
X17756896Y-14709860D01*
X17728324Y-14695574D01*
X17685467Y-14695574D01*
X17656896Y-14709860D01*
X17642610Y-14724146D01*
X17956896Y-14895574D02*
X17928324Y-14881289D01*
X17914038Y-14867003D01*
X17899753Y-14838431D01*
X17899753Y-14752717D01*
X17914038Y-14724146D01*
X17928324Y-14709860D01*
X17956896Y-14695574D01*
X17999753Y-14695574D01*
X18028324Y-14709860D01*
X18042610Y-14724146D01*
X18056896Y-14752717D01*
X18056896Y-14838431D01*
X18042610Y-14867003D01*
X18028324Y-14881289D01*
X17999753Y-14895574D01*
X17956896Y-14895574D01*
X18228324Y-14895574D02*
X18199753Y-14881289D01*
X18185467Y-14852717D01*
X18185467Y-14595574D01*
X18456896Y-14881289D02*
X18428324Y-14895574D01*
X18371181Y-14895574D01*
X18342610Y-14881289D01*
X18328324Y-14852717D01*
X18328324Y-14738431D01*
X18342610Y-14709860D01*
X18371181Y-14695574D01*
X18428324Y-14695574D01*
X18456896Y-14709860D01*
X18471181Y-14738431D01*
X18471181Y-14767003D01*
X18328324Y-14795574D01*
X18585467Y-14881289D02*
X18614039Y-14895574D01*
X18671181Y-14895574D01*
X18699753Y-14881289D01*
X18714039Y-14852717D01*
X18714039Y-14838431D01*
X18699753Y-14809860D01*
X18671181Y-14795574D01*
X18628324Y-14795574D01*
X18599753Y-14781289D01*
X18585467Y-14752717D01*
X18585467Y-14738431D01*
X18599753Y-14709860D01*
X18628324Y-14695574D01*
X18671181Y-14695574D01*
X18699753Y-14709860D01*
X18814038Y-15009860D02*
X18828324Y-14995574D01*
X18856896Y-14952717D01*
X18871181Y-14924146D01*
X18885467Y-14881289D01*
X18899753Y-14809860D01*
X18899753Y-14752717D01*
X18885467Y-14681289D01*
X18871181Y-14638431D01*
X18856896Y-14609860D01*
X18828324Y-14567003D01*
X18814038Y-14552717D01*
X12330707Y-15184597D02*
X12330707Y-15127123D01*
X12273233Y-15127123D01*
X12273233Y-15184597D01*
X12330707Y-15184597D01*
X12671181Y-14991574D02*
X12699753Y-14991574D01*
X12728324Y-15005860D01*
X12742610Y-15020146D01*
X12756896Y-15048717D01*
X12771181Y-15105860D01*
X12771181Y-15177289D01*
X12756896Y-15234431D01*
X12742610Y-15263003D01*
X12728324Y-15277289D01*
X12699753Y-15291574D01*
X12671181Y-15291574D01*
X12642610Y-15277289D01*
X12628324Y-15263003D01*
X12614038Y-15234431D01*
X12599753Y-15177289D01*
X12599753Y-15105860D01*
X12614038Y-15048717D01*
X12628324Y-15020146D01*
X12642610Y-15005860D01*
X12671181Y-14991574D01*
X12899753Y-15263003D02*
X12914038Y-15277289D01*
X12899753Y-15291574D01*
X12885467Y-15277289D01*
X12899753Y-15263003D01*
X12899753Y-15291574D01*
X13085467Y-15120146D02*
X13056896Y-15105860D01*
X13042610Y-15091574D01*
X13028324Y-15063003D01*
X13028324Y-15048717D01*
X13042610Y-15020146D01*
X13056896Y-15005860D01*
X13085467Y-14991574D01*
X13142610Y-14991574D01*
X13171181Y-15005860D01*
X13185467Y-15020146D01*
X13199753Y-15048717D01*
X13199753Y-15063003D01*
X13185467Y-15091574D01*
X13171181Y-15105860D01*
X13142610Y-15120146D01*
X13085467Y-15120146D01*
X13056896Y-15134431D01*
X13042610Y-15148717D01*
X13028324Y-15177289D01*
X13028324Y-15234431D01*
X13042610Y-15263003D01*
X13056896Y-15277289D01*
X13085467Y-15291574D01*
X13142610Y-15291574D01*
X13171181Y-15277289D01*
X13185467Y-15263003D01*
X13199753Y-15234431D01*
X13199753Y-15177289D01*
X13185467Y-15148717D01*
X13171181Y-15134431D01*
X13142610Y-15120146D01*
X13485467Y-15291574D02*
X13314038Y-15291574D01*
X13399753Y-15291574D02*
X13399753Y-14991574D01*
X13371181Y-15034431D01*
X13342610Y-15063003D01*
X13314038Y-15077289D01*
X13614038Y-15291574D02*
X13614038Y-15091574D01*
X13614038Y-15120146D02*
X13628324Y-15105860D01*
X13656896Y-15091574D01*
X13699753Y-15091574D01*
X13728324Y-15105860D01*
X13742610Y-15134431D01*
X13742610Y-15291574D01*
X13742610Y-15134431D02*
X13756896Y-15105860D01*
X13785467Y-15091574D01*
X13828324Y-15091574D01*
X13856896Y-15105860D01*
X13871181Y-15134431D01*
X13871181Y-15291574D01*
X14014038Y-15291574D02*
X14014038Y-15091574D01*
X14014038Y-15120146D02*
X14028324Y-15105860D01*
X14056896Y-15091574D01*
X14099753Y-15091574D01*
X14128324Y-15105860D01*
X14142610Y-15134431D01*
X14142610Y-15291574D01*
X14142610Y-15134431D02*
X14156896Y-15105860D01*
X14185467Y-15091574D01*
X14228324Y-15091574D01*
X14256896Y-15105860D01*
X14271181Y-15134431D01*
X14271181Y-15291574D01*
X14856896Y-14977289D02*
X14599753Y-15363003D01*
X15242610Y-14991574D02*
X15271181Y-14991574D01*
X15299753Y-15005860D01*
X15314038Y-15020146D01*
X15328324Y-15048717D01*
X15342610Y-15105860D01*
X15342610Y-15177289D01*
X15328324Y-15234431D01*
X15314038Y-15263003D01*
X15299753Y-15277289D01*
X15271181Y-15291574D01*
X15242610Y-15291574D01*
X15214038Y-15277289D01*
X15199753Y-15263003D01*
X15185467Y-15234431D01*
X15171181Y-15177289D01*
X15171181Y-15105860D01*
X15185467Y-15048717D01*
X15199753Y-15020146D01*
X15214038Y-15005860D01*
X15242610Y-14991574D01*
X15471181Y-15263003D02*
X15485467Y-15277289D01*
X15471181Y-15291574D01*
X15456896Y-15277289D01*
X15471181Y-15263003D01*
X15471181Y-15291574D01*
X15671181Y-14991574D02*
X15699753Y-14991574D01*
X15728324Y-15005860D01*
X15742610Y-15020146D01*
X15756895Y-15048717D01*
X15771181Y-15105860D01*
X15771181Y-15177289D01*
X15756895Y-15234431D01*
X15742610Y-15263003D01*
X15728324Y-15277289D01*
X15699753Y-15291574D01*
X15671181Y-15291574D01*
X15642610Y-15277289D01*
X15628324Y-15263003D01*
X15614038Y-15234431D01*
X15599753Y-15177289D01*
X15599753Y-15105860D01*
X15614038Y-15048717D01*
X15628324Y-15020146D01*
X15642610Y-15005860D01*
X15671181Y-14991574D01*
X15871181Y-14991574D02*
X16056895Y-14991574D01*
X15956895Y-15105860D01*
X15999753Y-15105860D01*
X16028324Y-15120146D01*
X16042610Y-15134431D01*
X16056895Y-15163003D01*
X16056895Y-15234431D01*
X16042610Y-15263003D01*
X16028324Y-15277289D01*
X15999753Y-15291574D01*
X15914038Y-15291574D01*
X15885467Y-15277289D01*
X15871181Y-15263003D01*
X16171181Y-15020146D02*
X16185467Y-15005860D01*
X16214038Y-14991574D01*
X16285467Y-14991574D01*
X16314038Y-15005860D01*
X16328324Y-15020146D01*
X16342610Y-15048717D01*
X16342610Y-15077289D01*
X16328324Y-15120146D01*
X16156895Y-15291574D01*
X16342610Y-15291574D01*
X16456896Y-14991574D02*
X16456896Y-15048717D01*
X16571181Y-14991574D02*
X16571181Y-15048717D01*
X17014038Y-15405860D02*
X16999753Y-15391574D01*
X16971181Y-15348717D01*
X16956896Y-15320146D01*
X16942610Y-15277289D01*
X16928324Y-15205860D01*
X16928324Y-15148717D01*
X16942610Y-15077289D01*
X16956896Y-15034431D01*
X16971181Y-15005860D01*
X16999753Y-14963003D01*
X17014038Y-14948717D01*
X17114038Y-15020146D02*
X17128324Y-15005860D01*
X17156896Y-14991574D01*
X17228324Y-14991574D01*
X17256896Y-15005860D01*
X17271181Y-15020146D01*
X17285467Y-15048717D01*
X17285467Y-15077289D01*
X17271181Y-15120146D01*
X17099753Y-15291574D01*
X17285467Y-15291574D01*
X17642610Y-15291574D02*
X17642610Y-14991574D01*
X17771181Y-15291574D02*
X17771181Y-15134431D01*
X17756896Y-15105860D01*
X17728324Y-15091574D01*
X17685467Y-15091574D01*
X17656896Y-15105860D01*
X17642610Y-15120146D01*
X17956896Y-15291574D02*
X17928324Y-15277289D01*
X17914038Y-15263003D01*
X17899753Y-15234431D01*
X17899753Y-15148717D01*
X17914038Y-15120146D01*
X17928324Y-15105860D01*
X17956896Y-15091574D01*
X17999753Y-15091574D01*
X18028324Y-15105860D01*
X18042610Y-15120146D01*
X18056896Y-15148717D01*
X18056896Y-15234431D01*
X18042610Y-15263003D01*
X18028324Y-15277289D01*
X17999753Y-15291574D01*
X17956896Y-15291574D01*
X18228324Y-15291574D02*
X18199753Y-15277289D01*
X18185467Y-15248717D01*
X18185467Y-14991574D01*
X18456896Y-15277289D02*
X18428324Y-15291574D01*
X18371181Y-15291574D01*
X18342610Y-15277289D01*
X18328324Y-15248717D01*
X18328324Y-15134431D01*
X18342610Y-15105860D01*
X18371181Y-15091574D01*
X18428324Y-15091574D01*
X18456896Y-15105860D01*
X18471181Y-15134431D01*
X18471181Y-15163003D01*
X18328324Y-15191574D01*
X18585467Y-15277289D02*
X18614039Y-15291574D01*
X18671181Y-15291574D01*
X18699753Y-15277289D01*
X18714039Y-15248717D01*
X18714039Y-15234431D01*
X18699753Y-15205860D01*
X18671181Y-15191574D01*
X18628324Y-15191574D01*
X18599753Y-15177289D01*
X18585467Y-15148717D01*
X18585467Y-15134431D01*
X18599753Y-15105860D01*
X18628324Y-15091574D01*
X18671181Y-15091574D01*
X18699753Y-15105860D01*
X18814038Y-15405860D02*
X18828324Y-15391574D01*
X18856896Y-15348717D01*
X18871181Y-15320146D01*
X18885467Y-15277289D01*
X18899753Y-15205860D01*
X18899753Y-15148717D01*
X18885467Y-15077289D01*
X18871181Y-15034431D01*
X18856896Y-15005860D01*
X18828324Y-14963003D01*
X18814038Y-14948717D01*
X12292610Y-15601860D02*
X12342610Y-15551860D01*
X12292610Y-15501860D01*
X12242610Y-15551860D01*
X12292610Y-15601860D01*
X12771181Y-15687574D02*
X12599753Y-15687574D01*
X12685467Y-15687574D02*
X12685467Y-15387574D01*
X12656896Y-15430431D01*
X12628324Y-15459003D01*
X12599753Y-15473289D01*
X12899753Y-15659003D02*
X12914038Y-15673289D01*
X12899753Y-15687574D01*
X12885467Y-15673289D01*
X12899753Y-15659003D01*
X12899753Y-15687574D01*
X13099753Y-15387574D02*
X13128324Y-15387574D01*
X13156896Y-15401860D01*
X13171181Y-15416146D01*
X13185467Y-15444717D01*
X13199753Y-15501860D01*
X13199753Y-15573289D01*
X13185467Y-15630431D01*
X13171181Y-15659003D01*
X13156896Y-15673289D01*
X13128324Y-15687574D01*
X13099753Y-15687574D01*
X13071181Y-15673289D01*
X13056896Y-15659003D01*
X13042610Y-15630431D01*
X13028324Y-15573289D01*
X13028324Y-15501860D01*
X13042610Y-15444717D01*
X13056896Y-15416146D01*
X13071181Y-15401860D01*
X13099753Y-15387574D01*
X13385467Y-15387574D02*
X13414038Y-15387574D01*
X13442610Y-15401860D01*
X13456896Y-15416146D01*
X13471181Y-15444717D01*
X13485467Y-15501860D01*
X13485467Y-15573289D01*
X13471181Y-15630431D01*
X13456896Y-15659003D01*
X13442610Y-15673289D01*
X13414038Y-15687574D01*
X13385467Y-15687574D01*
X13356896Y-15673289D01*
X13342610Y-15659003D01*
X13328324Y-15630431D01*
X13314038Y-15573289D01*
X13314038Y-15501860D01*
X13328324Y-15444717D01*
X13342610Y-15416146D01*
X13356896Y-15401860D01*
X13385467Y-15387574D01*
X13614038Y-15687574D02*
X13614038Y-15487574D01*
X13614038Y-15516146D02*
X13628324Y-15501860D01*
X13656896Y-15487574D01*
X13699753Y-15487574D01*
X13728324Y-15501860D01*
X13742610Y-15530431D01*
X13742610Y-15687574D01*
X13742610Y-15530431D02*
X13756896Y-15501860D01*
X13785467Y-15487574D01*
X13828324Y-15487574D01*
X13856896Y-15501860D01*
X13871181Y-15530431D01*
X13871181Y-15687574D01*
X14014038Y-15687574D02*
X14014038Y-15487574D01*
X14014038Y-15516146D02*
X14028324Y-15501860D01*
X14056896Y-15487574D01*
X14099753Y-15487574D01*
X14128324Y-15501860D01*
X14142610Y-15530431D01*
X14142610Y-15687574D01*
X14142610Y-15530431D02*
X14156896Y-15501860D01*
X14185467Y-15487574D01*
X14228324Y-15487574D01*
X14256896Y-15501860D01*
X14271181Y-15530431D01*
X14271181Y-15687574D01*
X14856896Y-15373289D02*
X14599753Y-15759003D01*
X15242610Y-15387574D02*
X15271181Y-15387574D01*
X15299753Y-15401860D01*
X15314038Y-15416146D01*
X15328324Y-15444717D01*
X15342610Y-15501860D01*
X15342610Y-15573289D01*
X15328324Y-15630431D01*
X15314038Y-15659003D01*
X15299753Y-15673289D01*
X15271181Y-15687574D01*
X15242610Y-15687574D01*
X15214038Y-15673289D01*
X15199753Y-15659003D01*
X15185467Y-15630431D01*
X15171181Y-15573289D01*
X15171181Y-15501860D01*
X15185467Y-15444717D01*
X15199753Y-15416146D01*
X15214038Y-15401860D01*
X15242610Y-15387574D01*
X15471181Y-15659003D02*
X15485467Y-15673289D01*
X15471181Y-15687574D01*
X15456896Y-15673289D01*
X15471181Y-15659003D01*
X15471181Y-15687574D01*
X15671181Y-15387574D02*
X15699753Y-15387574D01*
X15728324Y-15401860D01*
X15742610Y-15416146D01*
X15756895Y-15444717D01*
X15771181Y-15501860D01*
X15771181Y-15573289D01*
X15756895Y-15630431D01*
X15742610Y-15659003D01*
X15728324Y-15673289D01*
X15699753Y-15687574D01*
X15671181Y-15687574D01*
X15642610Y-15673289D01*
X15628324Y-15659003D01*
X15614038Y-15630431D01*
X15599753Y-15573289D01*
X15599753Y-15501860D01*
X15614038Y-15444717D01*
X15628324Y-15416146D01*
X15642610Y-15401860D01*
X15671181Y-15387574D01*
X15871181Y-15387574D02*
X16056895Y-15387574D01*
X15956895Y-15501860D01*
X15999753Y-15501860D01*
X16028324Y-15516146D01*
X16042610Y-15530431D01*
X16056895Y-15559003D01*
X16056895Y-15630431D01*
X16042610Y-15659003D01*
X16028324Y-15673289D01*
X15999753Y-15687574D01*
X15914038Y-15687574D01*
X15885467Y-15673289D01*
X15871181Y-15659003D01*
X16199753Y-15687574D02*
X16256895Y-15687574D01*
X16285467Y-15673289D01*
X16299753Y-15659003D01*
X16328324Y-15616146D01*
X16342610Y-15559003D01*
X16342610Y-15444717D01*
X16328324Y-15416146D01*
X16314038Y-15401860D01*
X16285467Y-15387574D01*
X16228324Y-15387574D01*
X16199753Y-15401860D01*
X16185467Y-15416146D01*
X16171181Y-15444717D01*
X16171181Y-15516146D01*
X16185467Y-15544717D01*
X16199753Y-15559003D01*
X16228324Y-15573289D01*
X16285467Y-15573289D01*
X16314038Y-15559003D01*
X16328324Y-15544717D01*
X16342610Y-15516146D01*
X16456896Y-15387574D02*
X16456896Y-15444717D01*
X16571181Y-15387574D02*
X16571181Y-15444717D01*
X17014038Y-15801860D02*
X16999753Y-15787574D01*
X16971181Y-15744717D01*
X16956896Y-15716146D01*
X16942610Y-15673289D01*
X16928324Y-15601860D01*
X16928324Y-15544717D01*
X16942610Y-15473289D01*
X16956896Y-15430431D01*
X16971181Y-15401860D01*
X16999753Y-15359003D01*
X17014038Y-15344717D01*
X17114038Y-15416146D02*
X17128324Y-15401860D01*
X17156896Y-15387574D01*
X17228324Y-15387574D01*
X17256896Y-15401860D01*
X17271181Y-15416146D01*
X17285467Y-15444717D01*
X17285467Y-15473289D01*
X17271181Y-15516146D01*
X17099753Y-15687574D01*
X17285467Y-15687574D01*
X17542610Y-15387574D02*
X17485467Y-15387574D01*
X17456896Y-15401860D01*
X17442610Y-15416146D01*
X17414038Y-15459003D01*
X17399753Y-15516146D01*
X17399753Y-15630431D01*
X17414038Y-15659003D01*
X17428324Y-15673289D01*
X17456896Y-15687574D01*
X17514038Y-15687574D01*
X17542610Y-15673289D01*
X17556896Y-15659003D01*
X17571181Y-15630431D01*
X17571181Y-15559003D01*
X17556896Y-15530431D01*
X17542610Y-15516146D01*
X17514038Y-15501860D01*
X17456896Y-15501860D01*
X17428324Y-15516146D01*
X17414038Y-15530431D01*
X17399753Y-15559003D01*
X17928324Y-15687574D02*
X17928324Y-15387574D01*
X18056896Y-15687574D02*
X18056896Y-15530431D01*
X18042610Y-15501860D01*
X18014038Y-15487574D01*
X17971181Y-15487574D01*
X17942610Y-15501860D01*
X17928324Y-15516146D01*
X18242610Y-15687574D02*
X18214038Y-15673289D01*
X18199753Y-15659003D01*
X18185467Y-15630431D01*
X18185467Y-15544717D01*
X18199753Y-15516146D01*
X18214038Y-15501860D01*
X18242610Y-15487574D01*
X18285467Y-15487574D01*
X18314038Y-15501860D01*
X18328324Y-15516146D01*
X18342610Y-15544717D01*
X18342610Y-15630431D01*
X18328324Y-15659003D01*
X18314038Y-15673289D01*
X18285467Y-15687574D01*
X18242610Y-15687574D01*
X18514038Y-15687574D02*
X18485467Y-15673289D01*
X18471181Y-15644717D01*
X18471181Y-15387574D01*
X18742610Y-15673289D02*
X18714039Y-15687574D01*
X18656896Y-15687574D01*
X18628324Y-15673289D01*
X18614039Y-15644717D01*
X18614039Y-15530431D01*
X18628324Y-15501860D01*
X18656896Y-15487574D01*
X18714039Y-15487574D01*
X18742610Y-15501860D01*
X18756896Y-15530431D01*
X18756896Y-15559003D01*
X18614039Y-15587574D01*
X18871181Y-15673289D02*
X18899753Y-15687574D01*
X18956896Y-15687574D01*
X18985467Y-15673289D01*
X18999753Y-15644717D01*
X18999753Y-15630431D01*
X18985467Y-15601860D01*
X18956896Y-15587574D01*
X18914039Y-15587574D01*
X18885467Y-15573289D01*
X18871181Y-15544717D01*
X18871181Y-15530431D01*
X18885467Y-15501860D01*
X18914039Y-15487574D01*
X18956896Y-15487574D01*
X18985467Y-15501860D01*
X19099753Y-15801860D02*
X19114039Y-15787574D01*
X19142610Y-15744717D01*
X19156896Y-15716146D01*
X19171181Y-15673289D01*
X19185467Y-15601860D01*
X19185467Y-15544717D01*
X19171181Y-15473289D01*
X19156896Y-15430431D01*
X19142610Y-15401860D01*
X19114039Y-15359003D01*
X19099753Y-15344717D01*
X12241010Y-15897060D02*
X12342610Y-15998660D01*
X12342610Y-15897060D02*
X12241010Y-15998660D01*
X12342610Y-15947860D02*
G75*
G03X12342610Y-15947860I-50800J0D01*
G01*
X12771181Y-16083574D02*
X12599753Y-16083574D01*
X12685467Y-16083574D02*
X12685467Y-15783574D01*
X12656896Y-15826431D01*
X12628324Y-15855003D01*
X12599753Y-15869289D01*
X12899753Y-16055003D02*
X12914038Y-16069289D01*
X12899753Y-16083574D01*
X12885467Y-16069289D01*
X12899753Y-16055003D01*
X12899753Y-16083574D01*
X13099753Y-15783574D02*
X13128324Y-15783574D01*
X13156896Y-15797860D01*
X13171181Y-15812146D01*
X13185467Y-15840717D01*
X13199753Y-15897860D01*
X13199753Y-15969289D01*
X13185467Y-16026431D01*
X13171181Y-16055003D01*
X13156896Y-16069289D01*
X13128324Y-16083574D01*
X13099753Y-16083574D01*
X13071181Y-16069289D01*
X13056896Y-16055003D01*
X13042610Y-16026431D01*
X13028324Y-15969289D01*
X13028324Y-15897860D01*
X13042610Y-15840717D01*
X13056896Y-15812146D01*
X13071181Y-15797860D01*
X13099753Y-15783574D01*
X13314038Y-15812146D02*
X13328324Y-15797860D01*
X13356896Y-15783574D01*
X13428324Y-15783574D01*
X13456896Y-15797860D01*
X13471181Y-15812146D01*
X13485467Y-15840717D01*
X13485467Y-15869289D01*
X13471181Y-15912146D01*
X13299753Y-16083574D01*
X13485467Y-16083574D01*
X13614038Y-16083574D02*
X13614038Y-15883574D01*
X13614038Y-15912146D02*
X13628324Y-15897860D01*
X13656896Y-15883574D01*
X13699753Y-15883574D01*
X13728324Y-15897860D01*
X13742610Y-15926431D01*
X13742610Y-16083574D01*
X13742610Y-15926431D02*
X13756896Y-15897860D01*
X13785467Y-15883574D01*
X13828324Y-15883574D01*
X13856896Y-15897860D01*
X13871181Y-15926431D01*
X13871181Y-16083574D01*
X14014038Y-16083574D02*
X14014038Y-15883574D01*
X14014038Y-15912146D02*
X14028324Y-15897860D01*
X14056896Y-15883574D01*
X14099753Y-15883574D01*
X14128324Y-15897860D01*
X14142610Y-15926431D01*
X14142610Y-16083574D01*
X14142610Y-15926431D02*
X14156896Y-15897860D01*
X14185467Y-15883574D01*
X14228324Y-15883574D01*
X14256896Y-15897860D01*
X14271181Y-15926431D01*
X14271181Y-16083574D01*
X14856896Y-15769289D02*
X14599753Y-16155003D01*
X15242610Y-15783574D02*
X15271181Y-15783574D01*
X15299753Y-15797860D01*
X15314038Y-15812146D01*
X15328324Y-15840717D01*
X15342610Y-15897860D01*
X15342610Y-15969289D01*
X15328324Y-16026431D01*
X15314038Y-16055003D01*
X15299753Y-16069289D01*
X15271181Y-16083574D01*
X15242610Y-16083574D01*
X15214038Y-16069289D01*
X15199753Y-16055003D01*
X15185467Y-16026431D01*
X15171181Y-15969289D01*
X15171181Y-15897860D01*
X15185467Y-15840717D01*
X15199753Y-15812146D01*
X15214038Y-15797860D01*
X15242610Y-15783574D01*
X15471181Y-16055003D02*
X15485467Y-16069289D01*
X15471181Y-16083574D01*
X15456896Y-16069289D01*
X15471181Y-16055003D01*
X15471181Y-16083574D01*
X15671181Y-15783574D02*
X15699753Y-15783574D01*
X15728324Y-15797860D01*
X15742610Y-15812146D01*
X15756895Y-15840717D01*
X15771181Y-15897860D01*
X15771181Y-15969289D01*
X15756895Y-16026431D01*
X15742610Y-16055003D01*
X15728324Y-16069289D01*
X15699753Y-16083574D01*
X15671181Y-16083574D01*
X15642610Y-16069289D01*
X15628324Y-16055003D01*
X15614038Y-16026431D01*
X15599753Y-15969289D01*
X15599753Y-15897860D01*
X15614038Y-15840717D01*
X15628324Y-15812146D01*
X15642610Y-15797860D01*
X15671181Y-15783574D01*
X16028324Y-15883574D02*
X16028324Y-16083574D01*
X15956895Y-15769289D02*
X15885467Y-15983574D01*
X16071181Y-15983574D01*
X16242610Y-15783574D02*
X16271181Y-15783574D01*
X16299753Y-15797860D01*
X16314038Y-15812146D01*
X16328324Y-15840717D01*
X16342610Y-15897860D01*
X16342610Y-15969289D01*
X16328324Y-16026431D01*
X16314038Y-16055003D01*
X16299753Y-16069289D01*
X16271181Y-16083574D01*
X16242610Y-16083574D01*
X16214038Y-16069289D01*
X16199753Y-16055003D01*
X16185467Y-16026431D01*
X16171181Y-15969289D01*
X16171181Y-15897860D01*
X16185467Y-15840717D01*
X16199753Y-15812146D01*
X16214038Y-15797860D01*
X16242610Y-15783574D01*
X16456896Y-15783574D02*
X16456896Y-15840717D01*
X16571181Y-15783574D02*
X16571181Y-15840717D01*
X17014038Y-16197860D02*
X16999753Y-16183574D01*
X16971181Y-16140717D01*
X16956896Y-16112146D01*
X16942610Y-16069289D01*
X16928324Y-15997860D01*
X16928324Y-15940717D01*
X16942610Y-15869289D01*
X16956896Y-15826431D01*
X16971181Y-15797860D01*
X16999753Y-15755003D01*
X17014038Y-15740717D01*
X17171181Y-15912146D02*
X17142610Y-15897860D01*
X17128324Y-15883574D01*
X17114038Y-15855003D01*
X17114038Y-15840717D01*
X17128324Y-15812146D01*
X17142610Y-15797860D01*
X17171181Y-15783574D01*
X17228324Y-15783574D01*
X17256896Y-15797860D01*
X17271181Y-15812146D01*
X17285467Y-15840717D01*
X17285467Y-15855003D01*
X17271181Y-15883574D01*
X17256896Y-15897860D01*
X17228324Y-15912146D01*
X17171181Y-15912146D01*
X17142610Y-15926431D01*
X17128324Y-15940717D01*
X17114038Y-15969289D01*
X17114038Y-16026431D01*
X17128324Y-16055003D01*
X17142610Y-16069289D01*
X17171181Y-16083574D01*
X17228324Y-16083574D01*
X17256896Y-16069289D01*
X17271181Y-16055003D01*
X17285467Y-16026431D01*
X17285467Y-15969289D01*
X17271181Y-15940717D01*
X17256896Y-15926431D01*
X17228324Y-15912146D01*
X17642610Y-16083574D02*
X17642610Y-15783574D01*
X17771181Y-16083574D02*
X17771181Y-15926431D01*
X17756896Y-15897860D01*
X17728324Y-15883574D01*
X17685467Y-15883574D01*
X17656896Y-15897860D01*
X17642610Y-15912146D01*
X17956896Y-16083574D02*
X17928324Y-16069289D01*
X17914038Y-16055003D01*
X17899753Y-16026431D01*
X17899753Y-15940717D01*
X17914038Y-15912146D01*
X17928324Y-15897860D01*
X17956896Y-15883574D01*
X17999753Y-15883574D01*
X18028324Y-15897860D01*
X18042610Y-15912146D01*
X18056896Y-15940717D01*
X18056896Y-16026431D01*
X18042610Y-16055003D01*
X18028324Y-16069289D01*
X17999753Y-16083574D01*
X17956896Y-16083574D01*
X18228324Y-16083574D02*
X18199753Y-16069289D01*
X18185467Y-16040717D01*
X18185467Y-15783574D01*
X18456896Y-16069289D02*
X18428324Y-16083574D01*
X18371181Y-16083574D01*
X18342610Y-16069289D01*
X18328324Y-16040717D01*
X18328324Y-15926431D01*
X18342610Y-15897860D01*
X18371181Y-15883574D01*
X18428324Y-15883574D01*
X18456896Y-15897860D01*
X18471181Y-15926431D01*
X18471181Y-15955003D01*
X18328324Y-15983574D01*
X18585467Y-16069289D02*
X18614039Y-16083574D01*
X18671181Y-16083574D01*
X18699753Y-16069289D01*
X18714039Y-16040717D01*
X18714039Y-16026431D01*
X18699753Y-15997860D01*
X18671181Y-15983574D01*
X18628324Y-15983574D01*
X18599753Y-15969289D01*
X18585467Y-15940717D01*
X18585467Y-15926431D01*
X18599753Y-15897860D01*
X18628324Y-15883574D01*
X18671181Y-15883574D01*
X18699753Y-15897860D01*
X18814038Y-16197860D02*
X18828324Y-16183574D01*
X18856896Y-16140717D01*
X18871181Y-16112146D01*
X18885467Y-16069289D01*
X18899753Y-15997860D01*
X18899753Y-15940717D01*
X18885467Y-15869289D01*
X18871181Y-15826431D01*
X18856896Y-15797860D01*
X18828324Y-15755003D01*
X18814038Y-15740717D01*
M02*
