M48
;DRILL file {KiCad 4.0.0-rc2-stable} date 5/23/2016 2:13:16 PM
;FORMAT={-:-/ absolute / metric / decimal}
FMAT,2
METRIC,TZ
T1C0.356
T2C0.500
T3C0.600
T4C0.813
T5C1.000
T6C1.016
%
G90
G05
M71
T1
X129.901Y-120.606
X143.121Y-120.606
X155.871Y-120.606
T2
X124.981Y-92.534
X130.601Y-89.074
X131.421Y-93.994
X133.201Y-111.254
X133.381Y-109.424
X133.881Y-107.534
X134.561Y-88.834
X134.791Y-96.224
X135.901Y-116.934
X135.981Y-114.554
X136.321Y-110.254
X136.711Y-98.284
X137.571Y-105.394
X138.121Y-94.094
X138.411Y-109.584
X138.481Y-88.154
X138.561Y-92.654
X139.231Y-97.574
X139.301Y-104.464
X139.811Y-96.304
X139.841Y-94.214
X140.421Y-90.934
X141.101Y-92.074
X142.171Y-96.174
X142.551Y-109.644
X143.031Y-115.854
X143.401Y-95.104
X144.061Y-86.474
X144.591Y-95.504
X144.711Y-108.194
X145.541Y-116.214
X145.811Y-95.124
X146.051Y-90.934
X146.221Y-98.874
X146.941Y-108.564
X147.401Y-92.714
X147.571Y-88.264
X147.601Y-94.634
X147.871Y-97.664
X148.131Y-108.874
X149.611Y-86.204
X150.271Y-108.634
X150.571Y-97.994
X153.021Y-108.704
X153.111Y-88.574
X153.331Y-92.614
X153.831Y-115.304
X153.851Y-90.914
X155.031Y-107.934
X155.221Y-112.634
X155.591Y-94.244
X156.021Y-99.734
X156.081Y-95.504
X157.021Y-115.004
X157.231Y-87.184
X160.261Y-93.454
X160.831Y-106.654
X163.071Y-86.134
X163.381Y-87.734
X163.791Y-112.954
X164.151Y-120.024
X166.461Y-108.964
X167.221Y-87.344
X167.331Y-90.084
X168.951Y-90.574
X169.031Y-87.464
X169.521Y-112.714
X170.271Y-86.884
X170.361Y-82.584
X171.851Y-112.644
X172.021Y-83.954
T3
X166.301Y-122.464
X168.901Y-122.464
T4
X152.761Y-103.834
X152.761Y-106.374
T5
X125.501Y-82.244
X125.501Y-84.784
X128.041Y-82.244
X128.041Y-84.784
X130.581Y-82.244
X130.581Y-84.784
X133.121Y-82.244
X133.121Y-84.784
X135.661Y-82.244
X135.661Y-84.784
X138.201Y-82.244
X138.201Y-84.784
X140.741Y-82.244
X140.741Y-84.784
X143.281Y-82.244
X143.281Y-84.784
X145.821Y-82.244
X145.821Y-84.784
X148.361Y-82.244
X148.361Y-84.784
X150.901Y-82.244
X150.901Y-84.784
X153.441Y-82.244
X153.441Y-84.784
X155.981Y-82.244
X155.981Y-84.784
T6
X170.584Y-91.604
X170.584Y-96.684
X170.584Y-101.764
X170.584Y-106.844
X170.838Y-89.064
X170.838Y-94.144
X170.838Y-99.224
X170.838Y-104.304
T0
M30
